helvetia-verbundene.sfdir

StartChar: exclam
Encoding: 33 33 2
Width: 597
Flags: W
LayerCount: 2
Fore
SplineSet
585 1501 m 0,0,1
 604 1501 604 1501 616.5 1489 c 128,-1,2
 629 1477 629 1477 629 1458 c 0,3,4
 629 1453 629 1453 614 1407.5 c 128,-1,5
 599 1362 599 1362 574.5 1290.5 c 128,-1,6
 550 1219 550 1219 518 1129 c 128,-1,7
 486 1039 486 1039 452 943.5 c 128,-1,8
 418 848 418 848 385 754.5 c 128,-1,9
 352 661 352 661 324 583.5 c 128,-1,10
 296 506 296 506 276.5 451.5 c 128,-1,11
 257 397 257 397 251 380 c 0,12,13
 246 366 246 366 233.5 358 c 128,-1,14
 221 350 221 350 207 350 c 0,15,16
 189 350 189 350 176 364 c 128,-1,17
 163 378 163 378 163 395 c 0,18,19
 163 398 163 398 178 443 c 128,-1,20
 193 488 193 488 218 559 c 128,-1,21
 243 630 243 630 275.5 721 c 128,-1,22
 308 812 308 812 342 908.5 c 128,-1,23
 376 1005 376 1005 409.5 1099 c 128,-1,24
 443 1193 443 1193 471 1270.5 c 128,-1,25
 499 1348 499 1348 518 1402 c 128,-1,26
 537 1456 537 1456 543 1472 c 0,27,28
 548 1485 548 1485 559.5 1493 c 128,-1,29
 571 1501 571 1501 585 1501 c 0,0,1
129 212 m 0,30,31
 146 212 146 212 160 204 c 128,-1,32
 174 196 174 196 183.5 183 c 128,-1,33
 193 170 193 170 198.5 154.5 c 128,-1,34
 204 139 204 139 204 123 c 0,35,36
 204 102 204 102 197.5 81 c 128,-1,37
 191 60 191 60 178.5 43.5 c 128,-1,38
 166 27 166 27 148 17 c 128,-1,39
 130 7 130 7 107 7 c 0,40,41
 91 7 91 7 78 15 c 128,-1,42
 65 23 65 23 56 36 c 128,-1,43
 47 49 47 49 42.5 64.5 c 128,-1,44
 38 80 38 80 38 94 c 0,45,46
 38 112 38 112 44 133 c 128,-1,47
 50 154 50 154 62 171.5 c 128,-1,48
 74 189 74 189 91 200.5 c 128,-1,49
 108 212 108 212 129 212 c 0,30,31
EndSplineSet
EndChar

StartChar: numbersign
Encoding: 35 35 4
Width: 791
Flags: W
LayerCount: 2
Fore
SplineSet
63 638 m 0,0,1
 63 657 63 657 76 670 c 128,-1,2
 89 683 89 683 108 683 c 2,3,-1
 278 683 l 1,4,-1
 297 756 l 1,5,-1
 148 756 l 2,6,7
 130 756 130 756 116.5 769 c 128,-1,8
 103 782 103 782 103 800 c 0,9,10
 103 819 103 819 116 832 c 128,-1,11
 129 845 129 845 148 845 c 2,12,-1
 321 845 l 1,13,-1
 386 1087 l 2,14,15
 390 1101 390 1101 401.5 1110 c 128,-1,16
 413 1119 413 1119 428 1119 c 0,17,18
 448 1119 448 1119 460.5 1106.5 c 128,-1,19
 473 1094 473 1094 473 1074 c 0,20,21
 473 1069 473 1069 469 1052.5 c 128,-1,22
 465 1036 465 1036 459.5 1013 c 128,-1,23
 454 990 454 990 446.5 964 c 128,-1,24
 439 938 439 938 432.5 914 c 128,-1,25
 426 890 426 890 421 871.5 c 128,-1,26
 416 853 416 853 414 845 c 1,27,-1
 514 845 l 1,28,-1
 575 1079 l 2,29,30
 579 1093 579 1093 590.5 1102 c 128,-1,31
 602 1111 602 1111 617 1111 c 0,32,33
 637 1111 637 1111 649.5 1098.5 c 128,-1,34
 662 1086 662 1086 662 1066 c 0,35,36
 662 1061 662 1061 658.5 1044.5 c 128,-1,37
 655 1028 655 1028 649.5 1006 c 128,-1,38
 644 984 644 984 637.5 959 c 128,-1,39
 631 934 631 934 625 911.5 c 128,-1,40
 619 889 619 889 614 871 c 128,-1,41
 609 853 609 853 607 845 c 1,42,-1
 754 845 l 2,43,44
 773 845 773 845 785.5 831.5 c 128,-1,45
 798 818 798 818 798 800 c 256,46,47
 798 782 798 782 785 769 c 128,-1,48
 772 756 772 756 754 756 c 2,49,-1
 584 756 l 1,50,-1
 565 683 l 1,51,-1
 709 683 l 2,52,53
 728 683 728 683 740.5 669.5 c 128,-1,54
 753 656 753 656 753 638 c 256,55,56
 753 620 753 620 740 607 c 128,-1,57
 727 594 727 594 709 594 c 2,58,-1
 541 594 l 1,59,-1
 476 353 l 2,60,61
 472 339 472 339 460 329 c 128,-1,62
 448 319 448 319 433 319 c 0,63,64
 416 319 416 319 402 331.5 c 128,-1,65
 388 344 388 344 388 362 c 0,66,67
 388 366 388 366 392 383 c 128,-1,68
 396 400 396 400 402 423 c 128,-1,69
 408 446 408 446 415 473 c 128,-1,70
 422 500 422 500 429 524 c 128,-1,71
 436 548 436 548 441 567 c 128,-1,72
 446 586 446 586 448 594 c 1,73,-1
 347 594 l 1,74,-1
 283 351 l 2,75,76
 279 337 279 337 267 327 c 128,-1,77
 255 317 255 317 240 317 c 0,78,79
 223 317 223 317 209 329.5 c 128,-1,80
 195 342 195 342 195 360 c 0,81,82
 195 365 195 365 199 382 c 128,-1,83
 203 399 203 399 208.5 422.5 c 128,-1,84
 214 446 214 446 221.5 472.5 c 128,-1,85
 229 499 229 499 235.5 523.5 c 128,-1,86
 242 548 242 548 247 567 c 128,-1,87
 252 586 252 586 254 594 c 1,88,-1
 108 594 l 2,89,90
 90 594 90 594 76.5 607 c 128,-1,91
 63 620 63 620 63 638 c 0,0,1
370 683 m 1,92,-1
 472 683 l 1,93,-1
 491 756 l 1,94,-1
 390 756 l 1,95,-1
 370 683 l 1,92,-1
EndSplineSet
EndChar

StartChar: dollar
Encoding: 36 36 5
Width: 975
Flags: W
LayerCount: 2
Fore
SplineSet
779 1494 m 0,0,1
 799 1494 799 1494 811 1481.5 c 128,-1,2
 823 1469 823 1469 823 1451 c 0,3,4
 823 1443 823 1443 820 1432 c 128,-1,5
 817 1421 817 1421 813 1410 c 128,-1,6
 809 1399 809 1399 805 1388.5 c 128,-1,7
 801 1378 801 1378 798 1370 c 1,8,9
 812 1365 812 1365 838.5 1354.5 c 128,-1,10
 865 1344 865 1344 891 1330 c 128,-1,11
 917 1316 917 1316 936 1299.5 c 128,-1,12
 955 1283 955 1283 955 1266 c 256,13,14
 955 1249 955 1249 941 1235 c 128,-1,15
 927 1221 927 1221 910 1221 c 0,16,17
 906 1221 906 1221 887.5 1229.5 c 128,-1,18
 869 1238 869 1238 845.5 1249.5 c 128,-1,19
 822 1261 822 1261 800 1271.5 c 128,-1,20
 778 1282 778 1282 768 1285 c 1,21,-1
 603 822 l 1,22,23
 657 802 657 802 702 769.5 c 128,-1,24
 747 737 747 737 780 694.5 c 128,-1,25
 813 652 813 652 831.5 600 c 128,-1,26
 850 548 850 548 850 489 c 0,27,28
 850 407 850 407 820.5 337 c 128,-1,29
 791 267 791 267 739 216 c 128,-1,30
 687 165 687 165 616.5 136 c 128,-1,31
 546 107 546 107 465 107 c 0,32,33
 411 107 411 107 355 121 c 1,34,35
 350 107 350 107 344.5 85 c 128,-1,36
 339 63 339 63 330.5 42 c 128,-1,37
 322 21 322 21 309 6 c 128,-1,38
 296 -9 296 -9 276 -9 c 0,39,40
 258 -9 258 -9 245.5 4 c 128,-1,41
 233 17 233 17 233 34 c 0,42,43
 233 41 233 41 238 57 c 128,-1,44
 243 73 243 73 249.5 91 c 128,-1,45
 256 109 256 109 262 125.5 c 128,-1,46
 268 142 268 142 271 150 c 1,47,48
 202 180 202 180 151.5 226.5 c 128,-1,49
 101 273 101 273 58 333 c 0,50,51
 50 344 50 344 39.5 360.5 c 128,-1,52
 29 377 29 377 29 391 c 0,53,54
 29 411 29 411 42 423.5 c 128,-1,55
 55 436 55 436 74 436 c 0,56,57
 85 436 85 436 95 430 c 128,-1,58
 105 424 105 424 111 415 c 0,59,60
 131 386 131 386 150.5 360 c 128,-1,61
 170 334 170 334 192.5 311.5 c 128,-1,62
 215 289 215 289 241.5 269.5 c 128,-1,63
 268 250 268 250 301 235 c 1,64,-1
 490 769 l 1,65,66
 403 810 403 810 353 882 c 128,-1,67
 303 954 303 954 303 1051 c 0,68,69
 303 1132 303 1132 337.5 1198.5 c 128,-1,70
 372 1265 372 1265 429 1310.5 c 128,-1,71
 486 1356 486 1356 559 1377.5 c 128,-1,72
 632 1399 632 1399 710 1390 c 1,73,74
 714 1402 714 1402 719 1420 c 128,-1,75
 724 1438 724 1438 731.5 1454.5 c 128,-1,76
 739 1471 739 1471 750 1482.5 c 128,-1,77
 761 1494 761 1494 779 1494 c 0,0,1
574 738 m 1,78,-1
 385 205 l 2,79,80
 386 205 386 205 396.5 204 c 128,-1,81
 407 203 407 203 419.5 201.5 c 128,-1,82
 432 200 432 200 444.5 198.5 c 128,-1,83
 457 197 457 197 462 197 c 0,84,85
 525 197 525 197 580 218.5 c 128,-1,86
 635 240 635 240 675 278.5 c 128,-1,87
 715 317 715 317 738 370.5 c 128,-1,88
 761 424 761 424 761 489 c 0,89,90
 761 534 761 534 747 572.5 c 128,-1,91
 733 611 733 611 708 642.5 c 128,-1,92
 683 674 683 674 648.5 698 c 128,-1,93
 614 722 614 722 574 738 c 1,78,-1
520 854 m 1,94,-1
 679 1303 l 1,95,-1
 662 1303 l 2,96,97
 609 1303 609 1303 560 1284 c 128,-1,98
 511 1265 511 1265 474 1231.5 c 128,-1,99
 437 1198 437 1198 415 1151.5 c 128,-1,100
 393 1105 393 1105 393 1050 c 0,101,102
 393 981 393 981 426 932.5 c 128,-1,103
 459 884 459 884 520 854 c 1,94,-1
EndSplineSet
EndChar

StartChar: percent
Encoding: 37 37 6
Width: 1284
Flags: W
LayerCount: 2
Fore
SplineSet
1142 1572 m 0,0,1
 1159 1572 1159 1572 1172.5 1559.5 c 128,-1,2
 1186 1547 1186 1547 1186 1530 c 0,3,4
 1186 1515 1186 1515 1178 1502 c 2,5,-1
 110 -33 l 2,6,7
 97 -52 97 -52 73 -52 c 0,8,9
 54 -52 54 -52 41 -39 c 128,-1,10
 28 -26 28 -26 28 -7 c 0,11,12
 28 7 28 7 36 18 c 2,13,-1
 1105 1553 l 2,14,15
 1118 1572 1118 1572 1142 1572 c 0,0,1
975 622 m 0,16,17
 930 622 930 622 885 609.5 c 128,-1,18
 840 597 840 597 799.5 574 c 128,-1,19
 759 551 759 551 724 519 c 128,-1,20
 689 487 689 487 663 448.5 c 128,-1,21
 637 410 637 410 622.5 366.5 c 128,-1,22
 608 323 608 323 608 276 c 0,23,24
 608 237 608 237 619 204 c 128,-1,25
 630 171 630 171 651.5 147 c 128,-1,26
 673 123 673 123 704.5 109 c 128,-1,27
 736 95 736 95 776 95 c 0,28,29
 815 95 815 95 858.5 111.5 c 128,-1,30
 902 128 902 128 943.5 155.5 c 128,-1,31
 985 183 985 183 1023 220 c 128,-1,32
 1061 257 1061 257 1089.5 298 c 128,-1,33
 1118 339 1118 339 1135 382.5 c 128,-1,34
 1152 426 1152 426 1152 466 c 0,35,36
 1152 508 1152 508 1139 537.5 c 128,-1,37
 1126 567 1126 567 1102.5 586 c 128,-1,38
 1079 605 1079 605 1046.5 613.5 c 128,-1,39
 1014 622 1014 622 975 622 c 0,16,17
975 711 m 256,40,41
 1031 711 1031 711 1079.5 695 c 128,-1,42
 1128 679 1128 679 1164 648 c 128,-1,43
 1200 617 1200 617 1220.5 571.5 c 128,-1,44
 1241 526 1241 526 1241 467 c 0,45,46
 1241 400 1241 400 1214.5 338.5 c 128,-1,47
 1188 277 1188 277 1145.5 223 c 128,-1,48
 1103 169 1103 169 1049.5 125.5 c 128,-1,49
 996 82 996 82 942 51 c 0,50,51
 925 41 925 41 903 28.5 c 128,-1,52
 881 16 881 16 861 11 c 0,53,54
 855 9 855 9 845 8 c 128,-1,55
 835 7 835 7 823.5 6.5 c 128,-1,56
 812 6 812 6 801 5.5 c 128,-1,57
 790 5 790 5 784 5 c 0,58,59
 770 5 770 5 752 6 c 128,-1,60
 734 7 734 7 715 10 c 128,-1,61
 696 13 696 13 678.5 17.5 c 128,-1,62
 661 22 661 22 649 28 c 0,63,64
 619 43 619 43 594.5 72.5 c 128,-1,65
 570 102 570 102 553.5 138 c 128,-1,66
 537 174 537 174 528 212 c 128,-1,67
 519 250 519 250 519 282 c 0,68,69
 519 340 519 340 537 394.5 c 128,-1,70
 555 449 555 449 587 496.5 c 128,-1,71
 619 544 619 544 663 583.5 c 128,-1,72
 707 623 707 623 757.5 651.5 c 128,-1,73
 808 680 808 680 863.5 695.5 c 128,-1,74
 919 711 919 711 975 711 c 256,40,41
463 1412 m 0,75,76
 418 1412 418 1412 373 1399.5 c 128,-1,77
 328 1387 328 1387 287.5 1364 c 128,-1,78
 247 1341 247 1341 212 1309 c 128,-1,79
 177 1277 177 1277 151 1238.5 c 128,-1,80
 125 1200 125 1200 110.5 1156.5 c 128,-1,81
 96 1113 96 1113 96 1066 c 0,82,83
 96 1027 96 1027 107 994 c 128,-1,84
 118 961 118 961 139.5 937 c 128,-1,85
 161 913 161 913 192.5 899 c 128,-1,86
 224 885 224 885 264 885 c 0,87,88
 303 885 303 885 346.5 901.5 c 128,-1,89
 390 918 390 918 431.5 945.5 c 128,-1,90
 473 973 473 973 511 1010 c 128,-1,91
 549 1047 549 1047 577.5 1088 c 128,-1,92
 606 1129 606 1129 623 1172.5 c 128,-1,93
 640 1216 640 1216 640 1256 c 0,94,95
 640 1298 640 1298 627 1327.5 c 128,-1,96
 614 1357 614 1357 590.5 1376 c 128,-1,97
 567 1395 567 1395 534.5 1403.5 c 128,-1,98
 502 1412 502 1412 463 1412 c 0,75,76
463 1501 m 256,99,100
 519 1501 519 1501 567.5 1485 c 128,-1,101
 616 1469 616 1469 652 1438 c 128,-1,102
 688 1407 688 1407 708.5 1361.5 c 128,-1,103
 729 1316 729 1316 729 1257 c 0,104,105
 729 1190 729 1190 702.5 1128.5 c 128,-1,106
 676 1067 676 1067 633.5 1013 c 128,-1,107
 591 959 591 959 537.5 915.5 c 128,-1,108
 484 872 484 872 430 841 c 0,109,110
 413 831 413 831 391 818.5 c 128,-1,111
 369 806 369 806 349 801 c 0,112,113
 343 799 343 799 333 798 c 128,-1,114
 323 797 323 797 311.5 796.5 c 128,-1,115
 300 796 300 796 289 795.5 c 128,-1,116
 278 795 278 795 272 795 c 0,117,118
 258 795 258 795 240 796 c 128,-1,119
 222 797 222 797 203 800 c 128,-1,120
 184 803 184 803 166.5 807.5 c 128,-1,121
 149 812 149 812 137 818 c 0,122,123
 107 833 107 833 82.5 862.5 c 128,-1,124
 58 892 58 892 41.5 928 c 128,-1,125
 25 964 25 964 16 1002 c 128,-1,126
 7 1040 7 1040 7 1072 c 0,127,128
 7 1130 7 1130 25 1184.5 c 128,-1,129
 43 1239 43 1239 75 1286.5 c 128,-1,130
 107 1334 107 1334 151 1373.5 c 128,-1,131
 195 1413 195 1413 245.5 1441.5 c 128,-1,132
 296 1470 296 1470 351.5 1485.5 c 128,-1,133
 407 1501 407 1501 463 1501 c 256,99,100
EndSplineSet
EndChar

StartChar: ampersand
Encoding: 38 38 7
Width: 867
Flags: W
LayerCount: 2
Fore
SplineSet
748 153 m 0,0,1
 767 153 767 153 781 140 c 128,-1,2
 795 127 795 127 795 107 c 0,3,4
 795 86 795 86 777.5 64 c 128,-1,5
 760 42 760 42 735.5 24.5 c 128,-1,6
 711 7 711 7 683.5 -4.5 c 128,-1,7
 656 -16 656 -16 636 -16 c 0,8,9
 606 -16 606 -16 580.5 -4 c 128,-1,10
 555 8 555 8 533.5 27 c 128,-1,11
 512 46 512 46 494.5 70 c 128,-1,12
 477 94 477 94 462 117 c 1,13,14
 434 91 434 91 405 67 c 128,-1,15
 376 43 376 43 344.5 24.5 c 128,-1,16
 313 6 313 6 278 -5.5 c 128,-1,17
 243 -17 243 -17 203 -17 c 0,18,19
 159 -17 159 -17 122 -1 c 128,-1,20
 85 15 85 15 58 43 c 128,-1,21
 31 71 31 71 16 108.5 c 128,-1,22
 1 146 1 146 1 189 c 0,23,24
 1 255 1 255 29 309 c 128,-1,25
 57 363 57 363 99.5 408.5 c 128,-1,26
 142 454 142 454 193.5 492.5 c 128,-1,27
 245 531 245 531 292 567 c 1,28,29
 287 578 287 578 279 606 c 128,-1,30
 271 634 271 634 263 666 c 128,-1,31
 255 698 255 698 249 726.5 c 128,-1,32
 243 755 243 755 243 767 c 0,33,34
 243 822 243 822 265 875.5 c 128,-1,35
 287 929 287 929 325 971 c 128,-1,36
 363 1013 363 1013 413.5 1039 c 128,-1,37
 464 1065 464 1065 522 1065 c 0,38,39
 558 1065 558 1065 586 1051.5 c 128,-1,40
 614 1038 614 1038 633 1015 c 128,-1,41
 652 992 652 992 661.5 961.5 c 128,-1,42
 671 931 671 931 671 897 c 0,43,44
 671 828 671 828 645.5 776 c 128,-1,45
 620 724 620 724 580 682.5 c 128,-1,46
 540 641 540 641 491 606 c 128,-1,47
 442 571 442 571 394 534 c 1,48,49
 414 465 414 465 435 397 c 128,-1,50
 456 329 456 329 487 263 c 1,51,52
 499 276 499 276 521 298.5 c 128,-1,53
 543 321 543 321 569.5 347.5 c 128,-1,54
 596 374 596 374 626 400.5 c 128,-1,55
 656 427 656 427 684.5 449 c 128,-1,56
 713 471 713 471 737.5 485 c 128,-1,57
 762 499 762 499 779 499 c 0,58,59
 797 499 797 499 809.5 485 c 128,-1,60
 822 471 822 471 822 454 c 0,61,62
 822 440 822 440 808 426 c 128,-1,63
 794 412 794 412 775 399 c 128,-1,64
 756 386 756 386 736.5 374.5 c 128,-1,65
 717 363 717 363 707 354 c 0,66,67
 660 312 660 312 616 268 c 128,-1,68
 572 224 572 224 528 179 c 1,69,70
 535 166 535 166 546 148.5 c 128,-1,71
 557 131 557 131 571 114.5 c 128,-1,72
 585 98 585 98 601 86.5 c 128,-1,73
 617 75 617 75 634 75 c 0,74,75
 654 75 654 75 669 87 c 128,-1,76
 684 99 684 99 697 114 c 128,-1,77
 710 129 710 129 722 141 c 128,-1,78
 734 153 734 153 748 153 c 0,0,1
419 199 m 1,79,80
 386 265 386 265 362.5 335 c 128,-1,81
 339 405 339 405 318 475 c 1,82,83
 285 448 285 448 245 418.5 c 128,-1,84
 205 389 205 389 170.5 355 c 128,-1,85
 136 321 136 321 112.5 281 c 128,-1,86
 89 241 89 241 89 193 c 0,87,88
 89 168 89 168 96.5 146 c 128,-1,89
 104 124 104 124 118 107 c 128,-1,90
 132 90 132 90 153 80 c 128,-1,91
 174 70 174 70 200 70 c 0,92,93
 231 70 231 70 261.5 82.5 c 128,-1,94
 292 95 292 95 320 113.5 c 128,-1,95
 348 132 348 132 373 155 c 128,-1,96
 398 178 398 178 419 199 c 1,79,80
368 627 m 1,97,98
 403 654 403 654 441 680.5 c 128,-1,99
 479 707 479 707 510.5 738 c 128,-1,100
 542 769 542 769 562.5 807.5 c 128,-1,101
 583 846 583 846 583 897 c 0,102,103
 583 927 583 927 569.5 951.5 c 128,-1,104
 556 976 556 976 522 976 c 0,105,106
 482 976 482 976 447.5 957.5 c 128,-1,107
 413 939 413 939 387.5 909 c 128,-1,108
 362 879 362 879 347 841.5 c 128,-1,109
 332 804 332 804 332 767 c 0,110,111
 332 761 332 761 337 739.5 c 128,-1,112
 342 718 342 718 348.5 693.5 c 128,-1,113
 355 669 355 669 361 649 c 128,-1,114
 367 629 367 629 368 627 c 1,97,98
EndSplineSet
EndChar

StartChar: quotesingle
Encoding: 39 39 8
Width: 186
Flags: W
LayerCount: 2
Fore
SplineSet
130 1501 m 0,0,1
 152 1501 152 1501 163 1486 c 128,-1,2
 174 1471 174 1471 174 1451 c 0,3,4
 174 1448 174 1448 165 1422.5 c 128,-1,5
 156 1397 156 1397 145 1365.5 c 128,-1,6
 134 1334 134 1334 124 1306.5 c 128,-1,7
 114 1279 114 1279 112 1272 c 0,8,9
 107 1258 107 1258 94.5 1250 c 128,-1,10
 82 1242 82 1242 68 1242 c 0,11,12
 49 1242 49 1242 36.5 1255.5 c 128,-1,13
 24 1269 24 1269 24 1287 c 0,14,15
 24 1294 24 1294 32.5 1320 c 128,-1,16
 41 1346 41 1346 52.5 1376.5 c 128,-1,17
 64 1407 64 1407 74.5 1434.5 c 128,-1,18
 85 1462 85 1462 88 1472 c 0,19,20
 93 1486 93 1486 104.5 1493.5 c 128,-1,21
 116 1501 116 1501 130 1501 c 0,0,1
EndSplineSet
EndChar

StartChar: parenleft
Encoding: 40 40 9
Width: 672
Flags: W
LayerCount: 2
Fore
SplineSet
736 1659 m 256,0,1
 755 1659 755 1659 767.5 1646 c 128,-1,2
 780 1633 780 1633 780 1614 c 0,3,4
 780 1605 780 1605 776 1597 c 128,-1,5
 772 1589 772 1589 766 1582 c 0,6,7
 633 1445 633 1445 512 1301 c 128,-1,8
 391 1157 391 1157 299.5 998.5 c 128,-1,9
 208 840 208 840 154 664 c 128,-1,10
 100 488 100 488 100 288 c 0,11,12
 100 184 100 184 117 87.5 c 128,-1,13
 134 -9 134 -9 161 -109 c 0,14,15
 163 -117 163 -117 163 -122 c 0,16,17
 163 -140 163 -140 150.5 -153.5 c 128,-1,18
 138 -167 138 -167 119 -167 c 0,19,20
 104 -167 104 -167 92.5 -158.5 c 128,-1,21
 81 -150 81 -150 76 -136 c 0,22,23
 59 -93 59 -93 46.5 -38.5 c 128,-1,24
 34 16 34 16 26 73 c 128,-1,25
 18 130 18 130 14.5 185.5 c 128,-1,26
 11 241 11 241 11 288 c 0,27,28
 11 488 11 488 66.5 675.5 c 128,-1,29
 122 863 122 863 217 1034.5 c 128,-1,30
 312 1206 312 1206 437.5 1359.5 c 128,-1,31
 563 1513 563 1513 704 1646 c 0,32,33
 717 1659 717 1659 736 1659 c 256,0,1
EndSplineSet
EndChar

StartChar: parenright
Encoding: 41 41 10
Width: 819
Flags: W
LayerCount: 2
Fore
SplineSet
50 -170 m 256,0,1
 31 -170 31 -170 18.5 -157 c 128,-1,2
 6 -144 6 -144 6 -125 c 0,3,4
 6 -116 6 -116 10 -108 c 128,-1,5
 14 -100 14 -100 20 -93 c 0,6,7
 109 -2 109 -2 192.5 92 c 128,-1,8
 276 186 276 186 350 285.5 c 128,-1,9
 424 385 424 385 486 490.5 c 128,-1,10
 548 596 548 596 592.5 709.5 c 128,-1,11
 637 823 637 823 661.5 945 c 128,-1,12
 686 1067 686 1067 686 1201 c 0,13,14
 686 1304 686 1304 669 1401 c 128,-1,15
 652 1498 652 1498 625 1598 c 0,16,17
 623 1604 623 1604 623 1610 c 0,18,19
 623 1628 623 1628 635.5 1642 c 128,-1,20
 648 1656 648 1656 667 1656 c 0,21,22
 682 1656 682 1656 693.5 1647.5 c 128,-1,23
 705 1639 705 1639 710 1625 c 0,24,25
 727 1582 727 1582 739.5 1527.5 c 128,-1,26
 752 1473 752 1473 760 1416 c 128,-1,27
 768 1359 768 1359 771.5 1302.5 c 128,-1,28
 775 1246 775 1246 775 1200 c 0,29,30
 775 1000 775 1000 719.5 812.5 c 128,-1,31
 664 625 664 625 569 454 c 128,-1,32
 474 283 474 283 348.5 129 c 128,-1,33
 223 -25 223 -25 82 -157 c 0,34,35
 69 -170 69 -170 50 -170 c 256,0,1
EndSplineSet
EndChar

StartChar: asterisk
Encoding: 42 42 11
Width: 549
Flags: W
LayerCount: 2
Fore
SplineSet
493 1501 m 0,0,1
 516 1501 516 1501 526.5 1485 c 128,-1,2
 537 1469 537 1469 537 1449 c 0,3,4
 537 1447 537 1447 532 1432 c 128,-1,5
 527 1417 527 1417 521 1398 c 128,-1,6
 515 1379 515 1379 509.5 1362.5 c 128,-1,7
 504 1346 504 1346 503 1342 c 1,8,9
 529 1347 529 1347 559 1354.5 c 128,-1,10
 589 1362 589 1362 614 1362 c 0,11,12
 632 1362 632 1362 645.5 1348 c 128,-1,13
 659 1334 659 1334 659 1316 c 0,14,15
 659 1294 659 1294 642 1282.5 c 128,-1,16
 625 1271 625 1271 602.5 1266 c 128,-1,17
 580 1261 580 1261 556.5 1259 c 128,-1,18
 533 1257 533 1257 521 1255 c 1,19,20
 528 1246 528 1246 540 1233 c 128,-1,21
 552 1220 552 1220 564 1205 c 128,-1,22
 576 1190 576 1190 585 1174.5 c 128,-1,23
 594 1159 594 1159 594 1146 c 0,24,25
 594 1129 594 1129 580.5 1115.5 c 128,-1,26
 567 1102 567 1102 550 1102 c 0,27,28
 535 1102 535 1102 521 1113 c 128,-1,29
 507 1124 507 1124 494.5 1138.5 c 128,-1,30
 482 1153 482 1153 472 1168 c 128,-1,31
 462 1183 462 1183 455 1192 c 1,32,33
 451 1179 451 1179 446.5 1158.5 c 128,-1,34
 442 1138 442 1138 434.5 1118.5 c 128,-1,35
 427 1099 427 1099 415 1085 c 128,-1,36
 403 1071 403 1071 382 1071 c 0,37,38
 363 1071 363 1071 350.5 1084.5 c 128,-1,39
 338 1098 338 1098 338 1116 c 0,40,41
 338 1128 338 1128 342 1142.5 c 128,-1,42
 346 1157 346 1157 351.5 1172.5 c 128,-1,43
 357 1188 357 1188 362.5 1202.5 c 128,-1,44
 368 1217 368 1217 372 1228 c 1,45,46
 346 1223 346 1223 316.5 1216 c 128,-1,47
 287 1209 287 1209 261 1209 c 0,48,49
 242 1209 242 1209 229 1223 c 128,-1,50
 216 1237 216 1237 216 1254 c 0,51,52
 216 1276 216 1276 233 1288 c 128,-1,53
 250 1300 250 1300 273 1305 c 128,-1,54
 296 1310 296 1310 319.5 1311.5 c 128,-1,55
 343 1313 343 1313 357 1316 c 1,56,57
 351 1324 351 1324 338 1337.5 c 128,-1,58
 325 1351 325 1351 312.5 1366.5 c 128,-1,59
 300 1382 300 1382 290.5 1397.5 c 128,-1,60
 281 1413 281 1413 281 1425 c 0,61,62
 281 1443 281 1443 294 1457 c 128,-1,63
 307 1471 307 1471 326 1471 c 0,64,65
 341 1471 341 1471 355 1459.5 c 128,-1,66
 369 1448 369 1448 381.5 1433 c 128,-1,67
 394 1418 394 1418 404 1402.5 c 128,-1,68
 414 1387 414 1387 421 1379 c 1,69,70
 425 1392 425 1392 429 1412.5 c 128,-1,71
 433 1433 433 1433 440.5 1452.5 c 128,-1,72
 448 1472 448 1472 460.5 1486.5 c 128,-1,73
 473 1501 473 1501 493 1501 c 0,0,1
EndSplineSet
EndChar

StartChar: comma
Encoding: 44 44 13
Width: 153
Flags: W
LayerCount: 2
Fore
SplineSet
97 265 m 0,0,1
 118 265 118 265 130.5 250.5 c 128,-1,2
 143 236 143 236 143 216 c 0,3,4
 143 169 143 169 126.5 105.5 c 128,-1,5
 110 42 110 42 85 -23 c 128,-1,6
 60 -88 60 -88 31.5 -148.5 c 128,-1,7
 3 -209 3 -209 -22 -249 c 0,8,9
 -28 -259 -28 -259 -40.5 -279 c 128,-1,10
 -53 -299 -53 -299 -67.5 -319 c 128,-1,11
 -82 -339 -82 -339 -97.5 -354 c 128,-1,12
 -113 -369 -113 -369 -126 -369 c 0,13,14
 -144 -369 -144 -369 -158.5 -356.5 c 128,-1,15
 -173 -344 -173 -344 -173 -325 c 0,16,17
 -173 -315 -173 -315 -163.5 -298.5 c 128,-1,18
 -154 -282 -154 -282 -141.5 -264 c 128,-1,19
 -129 -246 -129 -246 -116.5 -229.5 c 128,-1,20
 -104 -213 -104 -213 -98 -203 c 0,21,22
 -50 -126 -50 -126 -16 -42 c 128,-1,23
 18 42 18 42 38 130 c 0,24,25
 43 154 43 154 46 179 c 128,-1,26
 49 204 49 204 54 227 c 0,27,28
 58 243 58 243 69 254 c 128,-1,29
 80 265 80 265 97 265 c 0,0,1
EndSplineSet
EndChar

StartChar: period
Encoding: 46 46 15
Width: 333
Flags: W
LayerCount: 2
Fore
SplineSet
129 212 m 0,0,1
 146 212 146 212 160 204 c 128,-1,2
 174 196 174 196 183.5 183 c 128,-1,3
 193 170 193 170 198.5 154.5 c 128,-1,4
 204 139 204 139 204 123 c 0,5,6
 204 102 204 102 197.5 81 c 128,-1,7
 191 60 191 60 178.5 43.5 c 128,-1,8
 166 27 166 27 148 17 c 128,-1,9
 130 7 130 7 107 7 c 0,10,11
 91 7 91 7 78 15 c 128,-1,12
 65 23 65 23 56 36 c 128,-1,13
 47 49 47 49 42.5 64.5 c 128,-1,14
 38 80 38 80 38 94 c 0,15,16
 38 112 38 112 44 133 c 128,-1,17
 50 154 50 154 62 171.5 c 128,-1,18
 74 189 74 189 91 200.5 c 128,-1,19
 108 212 108 212 129 212 c 0,0,1
EndSplineSet
EndChar

StartChar: slash
Encoding: 47 47 16
Width: 1005
Flags: W
LayerCount: 2
Fore
SplineSet
1248 1735 m 0,0,1
 1265 1735 1265 1735 1278.5 1722.5 c 128,-1,2
 1292 1710 1292 1710 1292 1693 c 0,3,4
 1292 1678 1292 1678 1284 1665 c 2,5,-1
 74 -88 l 2,6,7
 61 -107 61 -107 37 -107 c 0,8,9
 18 -107 18 -107 5 -94 c 128,-1,10
 -8 -81 -8 -81 -8 -62 c 0,11,12
 -8 -48 -8 -48 0 -37 c 2,13,-1
 1211 1716 l 2,14,15
 1224 1735 1224 1735 1248 1735 c 0,0,1
EndSplineSet
EndChar

StartChar: zero
Encoding: 48 48 17
Width: 1046
Flags: W
LayerCount: 2
Fore
SplineSet
729 1486 m 0,0,1
 792 1486 792 1486 839.5 1462 c 128,-1,2
 887 1438 887 1438 922 1398 c 128,-1,3
 957 1358 957 1358 980 1306 c 128,-1,4
 1003 1254 1003 1254 1017 1197.5 c 128,-1,5
 1031 1141 1031 1141 1036.5 1084.5 c 128,-1,6
 1042 1028 1042 1028 1042 980 c 0,7,8
 1042 893 1042 893 1026 785 c 128,-1,9
 1010 677 1010 677 977.5 566 c 128,-1,10
 945 455 945 455 894.5 350 c 128,-1,11
 844 245 844 245 774.5 163 c 128,-1,12
 705 81 705 81 616 31.5 c 128,-1,13
 527 -18 527 -18 417 -18 c 0,14,15
 325 -18 325 -18 263 20.5 c 128,-1,16
 201 59 201 59 163.5 121 c 128,-1,17
 126 183 126 183 110 260.5 c 128,-1,18
 94 338 94 338 94 417 c 1,19,-1
 93 417 l 1,20,21
 93 478 93 478 104 556.5 c 128,-1,22
 115 635 115 635 136 722 c 128,-1,23
 157 809 157 809 188 899 c 128,-1,24
 219 989 219 989 259.5 1074 c 128,-1,25
 300 1159 300 1159 350 1234 c 128,-1,26
 400 1309 400 1309 459 1365 c 128,-1,27
 518 1421 518 1421 585.5 1453.5 c 128,-1,28
 653 1486 653 1486 729 1486 c 0,0,1
729 1397 m 0,29,30
 659 1397 659 1397 597 1359 c 128,-1,31
 535 1321 535 1321 481.5 1259.5 c 128,-1,32
 428 1198 428 1198 384.5 1120 c 128,-1,33
 341 1042 341 1042 307 962.5 c 128,-1,34
 273 883 273 883 249.5 808.5 c 128,-1,35
 226 734 226 734 214 680 c 0,36,37
 199 614 199 614 191 549.5 c 128,-1,38
 183 485 183 485 183 417 c 1,39,-1
 182 417 l 1,40,41
 182 359 182 359 191.5 297.5 c 128,-1,42
 201 236 201 236 227.5 185.5 c 128,-1,43
 254 135 254 135 299.5 102.5 c 128,-1,44
 345 70 345 70 417 70 c 0,45,46
 501 70 501 70 571 108.5 c 128,-1,47
 641 147 641 147 697 210 c 128,-1,48
 753 273 753 273 796 354 c 128,-1,49
 839 435 839 435 869.5 520 c 128,-1,50
 900 605 900 605 918 687.5 c 128,-1,51
 936 770 936 770 944 836 c 0,52,53
 948 872 948 872 950.5 908 c 128,-1,54
 953 944 953 944 953 980 c 0,55,56
 953 1015 953 1015 949.5 1059.5 c 128,-1,57
 946 1104 946 1104 936.5 1150 c 128,-1,58
 927 1196 927 1196 911.5 1240.5 c 128,-1,59
 896 1285 896 1285 871 1320 c 128,-1,60
 846 1355 846 1355 811 1376 c 128,-1,61
 776 1397 776 1397 729 1397 c 0,29,30
EndSplineSet
EndChar

StartChar: one
Encoding: 49 49 18
Width: 608
Flags: W
LayerCount: 2
Fore
SplineSet
307 976 m 0,0,1
 288 976 288 976 276.5 989.5 c 128,-1,2
 265 1003 265 1003 265 1021 c 0,3,4
 265 1038 265 1038 277 1050 c 2,5,-1
 664 1472 l 2,6,7
 677 1486 677 1486 698 1486 c 0,8,9
 716 1486 716 1486 728.5 1472 c 128,-1,10
 741 1458 741 1458 741 1441 c 0,11,12
 741 1438 741 1438 727.5 1398.5 c 128,-1,13
 714 1359 714 1359 690 1294 c 128,-1,14
 666 1229 666 1229 634.5 1143 c 128,-1,15
 603 1057 603 1057 567 959.5 c 128,-1,16
 531 862 531 862 492.5 758.5 c 128,-1,17
 454 655 454 655 416.5 555.5 c 128,-1,18
 379 456 379 456 345 364.5 c 128,-1,19
 311 273 311 273 283.5 200 c 128,-1,20
 256 127 256 127 237 77 c 128,-1,21
 218 27 218 27 212 10 c 0,22,23
 207 -2 207 -2 196 -10 c 128,-1,24
 185 -18 185 -18 172 -18 c 0,25,26
 152 -18 152 -18 139.5 -6 c 128,-1,27
 127 6 127 6 127 26 c 0,28,29
 127 30 127 30 138.5 63.5 c 128,-1,30
 150 97 150 97 170 152.5 c 128,-1,31
 190 208 190 208 217 281 c 128,-1,32
 244 354 244 354 274.5 436.5 c 128,-1,33
 305 519 305 519 337.5 607 c 128,-1,34
 370 695 370 695 402 779.5 c 128,-1,35
 434 864 434 864 463 941.5 c 128,-1,36
 492 1019 492 1019 515 1081.5 c 128,-1,37
 538 1144 538 1144 554 1186.5 c 128,-1,38
 570 1229 570 1229 576 1244 c 1,39,-1
 342 990 l 2,40,41
 329 976 329 976 307 976 c 0,0,1
EndSplineSet
EndChar

StartChar: two
Encoding: 50 50 19
Width: 950
Flags: W
LayerCount: 2
Fore
SplineSet
391 1178 m 0,0,1
 371 1178 371 1178 358 1190.5 c 128,-1,2
 345 1203 345 1203 345 1223 c 0,3,4
 345 1239 345 1239 352 1256.5 c 128,-1,5
 359 1274 359 1274 369.5 1291 c 128,-1,6
 380 1308 380 1308 392.5 1323 c 128,-1,7
 405 1338 405 1338 415 1350 c 0,8,9
 443 1382 443 1382 480 1407.5 c 128,-1,10
 517 1433 517 1433 558 1451 c 128,-1,11
 599 1469 599 1469 643 1478.5 c 128,-1,12
 687 1488 687 1488 730 1488 c 0,13,14
 793 1488 793 1488 846.5 1471.5 c 128,-1,15
 900 1455 900 1455 939 1422.5 c 128,-1,16
 978 1390 978 1390 1000 1341 c 128,-1,17
 1022 1292 1022 1292 1022 1226 c 0,18,19
 1022 1153 1022 1153 994 1076 c 128,-1,20
 966 999 966 999 918 919.5 c 128,-1,21
 870 840 870 840 805.5 760.5 c 128,-1,22
 741 681 741 681 669 603.5 c 128,-1,23
 597 526 597 526 521.5 452 c 128,-1,24
 446 378 446 378 374 310 c 128,-1,25
 302 242 302 242 238.5 181 c 128,-1,26
 175 120 175 120 128 70 c 1,27,-1
 586 70 l 2,28,29
 604 70 604 70 617.5 57 c 128,-1,30
 631 44 631 44 631 26 c 0,31,32
 631 7 631 7 617.5 -5.5 c 128,-1,33
 604 -18 604 -18 586 -18 c 2,34,-1
 28 -18 l 2,35,36
 12 -18 12 -18 -2.5 -6.5 c 128,-1,37
 -17 5 -17 5 -17 22 c 0,38,39
 -17 45 -17 45 24 92 c 128,-1,40
 65 139 65 139 131.5 204 c 128,-1,41
 198 269 198 269 283.5 349 c 128,-1,42
 369 429 369 429 458 517 c 128,-1,43
 547 605 547 605 632.5 698.5 c 128,-1,44
 718 792 718 792 784.5 884 c 128,-1,45
 851 976 851 976 892 1064 c 128,-1,46
 933 1152 933 1152 933 1229 c 0,47,48
 933 1274 933 1274 916 1306 c 128,-1,49
 899 1338 899 1338 871 1359 c 128,-1,50
 843 1380 843 1380 805.5 1389.5 c 128,-1,51
 768 1399 768 1399 728 1399 c 0,52,53
 623 1399 623 1399 550 1348.5 c 128,-1,54
 477 1298 477 1298 432 1207 c 0,55,56
 425 1193 425 1193 416 1185.5 c 128,-1,57
 407 1178 407 1178 391 1178 c 0,0,1
EndSplineSet
EndChar

StartChar: three
Encoding: 51 51 20
Width: 962
Flags: W
LayerCount: 2
Fore
SplineSet
436 1149 m 0,0,1
 419 1149 419 1149 404.5 1162 c 128,-1,2
 390 1175 390 1175 390 1193 c 0,3,4
 390 1204 390 1204 395 1214 c 0,5,6
 422 1270 422 1270 463 1321 c 128,-1,7
 504 1372 504 1372 555.5 1410.5 c 128,-1,8
 607 1449 607 1449 667 1472 c 128,-1,9
 727 1495 727 1495 792 1495 c 0,10,11
 856 1495 856 1495 908 1473 c 128,-1,12
 960 1451 960 1451 996.5 1411.5 c 128,-1,13
 1033 1372 1033 1372 1052.5 1318.5 c 128,-1,14
 1072 1265 1072 1265 1072 1202 c 0,15,16
 1072 1128 1072 1128 1046.5 1057 c 128,-1,17
 1021 986 1021 986 976.5 925 c 128,-1,18
 932 864 932 864 872.5 816.5 c 128,-1,19
 813 769 813 769 746 742 c 1,20,21
 809 695 809 695 841.5 624.5 c 128,-1,22
 874 554 874 554 874 476 c 0,23,24
 874 371 874 371 832.5 280.5 c 128,-1,25
 791 190 791 190 720.5 124 c 128,-1,26
 650 58 650 58 557 20 c 128,-1,27
 464 -18 464 -18 361 -18 c 0,28,29
 306 -18 306 -18 253.5 -1.5 c 128,-1,30
 201 15 201 15 160 47 c 128,-1,31
 119 79 119 79 94 125.5 c 128,-1,32
 69 172 69 172 69 232 c 0,33,34
 69 245 69 245 72 266 c 128,-1,35
 75 287 75 287 82 306.5 c 128,-1,36
 89 326 89 326 101 340 c 128,-1,37
 113 354 113 354 131 354 c 0,38,39
 151 354 151 354 163.5 341.5 c 128,-1,40
 176 329 176 329 176 309 c 0,41,42
 176 290 176 290 167.5 271.5 c 128,-1,43
 159 253 159 253 159 232 c 0,44,45
 159 191 159 191 177 160.5 c 128,-1,46
 195 130 195 130 224 110 c 128,-1,47
 253 90 253 90 289 80 c 128,-1,48
 325 70 325 70 361 70 c 0,49,50
 445 70 445 70 522 99.5 c 128,-1,51
 599 129 599 129 657.5 182.5 c 128,-1,52
 716 236 716 236 750.5 309.5 c 128,-1,53
 785 383 785 383 785 470 c 0,54,55
 785 532 785 532 769.5 571.5 c 128,-1,56
 754 611 754 611 730.5 636.5 c 128,-1,57
 707 662 707 662 679.5 676.5 c 128,-1,58
 652 691 652 691 628.5 702 c 128,-1,59
 605 713 605 713 589.5 724.5 c 128,-1,60
 574 736 574 736 574 755 c 0,61,62
 574 772 574 772 585.5 782 c 128,-1,63
 597 792 597 792 612 797 c 0,64,65
 641 805 641 805 668 811 c 128,-1,66
 695 817 695 817 723 829 c 0,67,68
 779 854 779 854 826.5 893 c 128,-1,69
 874 932 874 932 909 981.5 c 128,-1,70
 944 1031 944 1031 963.5 1089 c 128,-1,71
 983 1147 983 1147 983 1209 c 0,72,73
 983 1252 983 1252 970 1288.5 c 128,-1,74
 957 1325 957 1325 932 1351 c 128,-1,75
 907 1377 907 1377 872 1392 c 128,-1,76
 837 1407 837 1407 793 1407 c 0,77,78
 751 1407 751 1407 711 1393.5 c 128,-1,79
 671 1380 671 1380 636 1357 c 128,-1,80
 601 1334 601 1334 571 1304.5 c 128,-1,81
 541 1275 541 1275 517 1242 c 0,82,83
 505 1225 505 1225 496 1208 c 128,-1,84
 487 1191 487 1191 476 1175 c 0,85,86
 469 1165 469 1165 459 1157 c 128,-1,87
 449 1149 449 1149 436 1149 c 0,0,1
EndSplineSet
EndChar

StartChar: four
Encoding: 52 52 21
Width: 1005
Flags: W
LayerCount: 2
Fore
SplineSet
489 -41 m 0,0,1
 472 -41 472 -41 457.5 -29.5 c 128,-1,2
 443 -18 443 -18 443 1 c 0,3,4
 443 5 443 5 449.5 25.5 c 128,-1,5
 456 46 456 46 465.5 74.5 c 128,-1,6
 475 103 475 103 487 135.5 c 128,-1,7
 499 168 499 168 509.5 198 c 128,-1,8
 520 228 520 228 528.5 251 c 128,-1,9
 537 274 537 274 540 282 c 1,10,-1
 85 282 l 2,11,12
 66 282 66 282 53.5 295.5 c 128,-1,13
 41 309 41 309 41 327 c 0,14,15
 41 343 41 343 50 355 c 2,16,-1
 954 1443 l 2,17,18
 962 1453 962 1453 969.5 1457.5 c 128,-1,19
 977 1462 977 1462 990 1462 c 0,20,21
 1013 1462 1013 1462 1023.5 1446.5 c 128,-1,22
 1034 1431 1034 1431 1034 1411 c 0,23,24
 1034 1409 1034 1409 1019.5 1366.5 c 128,-1,25
 1005 1324 1005 1324 980.5 1255 c 128,-1,26
 956 1186 956 1186 924.5 1097.5 c 128,-1,27
 893 1009 893 1009 860 915.5 c 128,-1,28
 827 822 827 822 794.5 730.5 c 128,-1,29
 762 639 762 639 735 564 c 128,-1,30
 708 489 708 489 689.5 437 c 128,-1,31
 671 385 671 385 666 371 c 1,32,-1
 788 371 l 2,33,34
 806 371 806 371 819 358 c 128,-1,35
 832 345 832 345 832 327 c 256,36,37
 832 309 832 309 819 295.5 c 128,-1,38
 806 282 806 282 788 282 c 2,39,-1
 634 282 l 1,40,-1
 530 -13 l 2,41,42
 525 -26 525 -26 514 -33.5 c 128,-1,43
 503 -41 503 -41 489 -41 c 0,0,1
572 371 m 1,44,-1
 876 1224 l 1,45,-1
 180 371 l 1,46,-1
 572 371 l 1,44,-1
EndSplineSet
EndChar

StartChar: five
Encoding: 53 53 22
Width: 1009
Flags: W
LayerCount: 2
Fore
SplineSet
1088 1486 m 2,0,1
 1106 1486 1106 1486 1119.5 1473 c 128,-1,2
 1133 1460 1133 1460 1133 1442 c 0,3,4
 1133 1423 1133 1423 1120 1410 c 128,-1,5
 1107 1397 1107 1397 1088 1397 c 2,6,-1
 542 1397 l 1,7,-1
 360 884 l 1,8,9
 436 900 436 900 517 900 c 0,10,11
 606 900 606 900 680 871.5 c 128,-1,12
 754 843 754 843 807 790.5 c 128,-1,13
 860 738 860 738 889.5 664.5 c 128,-1,14
 919 591 919 591 919 501 c 0,15,16
 919 394 919 394 874.5 300 c 128,-1,17
 830 206 830 206 755.5 135 c 128,-1,18
 681 64 681 64 584.5 23 c 128,-1,19
 488 -18 488 -18 383 -18 c 0,20,21
 329 -18 329 -18 273.5 -1.5 c 128,-1,22
 218 15 218 15 168 44.5 c 128,-1,23
 118 74 118 74 76 113.5 c 128,-1,24
 34 153 34 153 6 200 c 0,25,26
 1 207 1 207 1 220 c 0,27,28
 1 239 1 239 12 252.5 c 128,-1,29
 23 266 23 266 43 266 c 0,30,31
 54 266 54 266 69.5 251.5 c 128,-1,32
 85 237 85 237 105.5 215 c 128,-1,33
 126 193 126 193 152.5 168 c 128,-1,34
 179 143 179 143 213.5 121 c 128,-1,35
 248 99 248 99 291 84.5 c 128,-1,36
 334 70 334 70 387 70 c 0,37,38
 473 70 473 70 553 104.5 c 128,-1,39
 633 139 633 139 694.5 198 c 128,-1,40
 756 257 756 257 793 335 c 128,-1,41
 830 413 830 413 830 500 c 0,42,43
 830 573 830 573 807.5 631 c 128,-1,44
 785 689 785 689 743.5 729 c 128,-1,45
 702 769 702 769 643 790 c 128,-1,46
 584 811 584 811 511 811 c 0,47,48
 455 811 455 811 406 800 c 128,-1,49
 357 789 357 789 303 777 c 0,50,51
 295 775 295 775 289 775 c 0,52,53
 272 775 272 775 258.5 788.5 c 128,-1,54
 245 802 245 802 245 819 c 0,55,56
 245 826 245 826 248 834 c 2,57,-1
 468 1454 l 2,58,59
 473 1468 473 1468 484.5 1477 c 128,-1,60
 496 1486 496 1486 511 1486 c 2,61,-1
 1088 1486 l 2,0,1
EndSplineSet
EndChar

StartChar: six
Encoding: 54 54 23
Width: 929
Flags: W
LayerCount: 2
Fore
SplineSet
841 1487 m 0,0,1
 859 1487 859 1487 873 1473 c 128,-1,2
 887 1459 887 1459 887 1441 c 0,3,4
 887 1427 887 1427 878.5 1416.5 c 128,-1,5
 870 1406 870 1406 859 1400 c 0,6,7
 825 1382 825 1382 791.5 1366 c 128,-1,8
 758 1350 758 1350 725 1330 c 0,9,10
 578 1238 578 1238 462 1105.5 c 128,-1,11
 346 973 346 973 270 818 c 1,12,13
 321 853 321 853 381 871.5 c 128,-1,14
 441 890 441 890 502 890 c 0,15,16
 583 890 583 890 645 860 c 128,-1,17
 707 830 707 830 749.5 779 c 128,-1,18
 792 728 792 728 813.5 660 c 128,-1,19
 835 592 835 592 835 517 c 0,20,21
 835 454 835 454 821 390.5 c 128,-1,22
 807 327 807 327 781 267.5 c 128,-1,23
 755 208 755 208 716.5 156 c 128,-1,24
 678 104 678 104 628.5 65.5 c 128,-1,25
 579 27 579 27 519.5 4.5 c 128,-1,26
 460 -18 460 -18 391 -18 c 0,27,28
 302 -18 302 -18 242.5 22 c 128,-1,29
 183 62 183 62 147 125 c 128,-1,30
 111 188 111 188 96 265 c 128,-1,31
 81 342 81 342 81 416 c 0,32,33
 81 528 81 528 108.5 638 c 128,-1,34
 136 748 136 748 185.5 852 c 128,-1,35
 235 956 235 956 304 1051 c 128,-1,36
 373 1146 373 1146 455.5 1227.5 c 128,-1,37
 538 1309 538 1309 632 1374 c 128,-1,38
 726 1439 726 1439 825 1483 c 0,39,40
 833 1487 833 1487 841 1487 c 0,0,1
171 416 m 0,41,42
 171 363 171 363 180 302 c 128,-1,43
 189 241 189 241 213.5 189.5 c 128,-1,44
 238 138 238 138 281 104 c 128,-1,45
 324 70 324 70 391 70 c 0,46,47
 475 70 475 70 541 112 c 128,-1,48
 607 154 607 154 652.5 219 c 128,-1,49
 698 284 698 284 722 363 c 128,-1,50
 746 442 746 442 746 517 c 0,51,52
 746 576 746 576 730 628 c 128,-1,53
 714 680 714 680 682.5 718.5 c 128,-1,54
 651 757 651 757 603.5 779 c 128,-1,55
 556 801 556 801 493 801 c 0,56,57
 443 801 443 801 393.5 781.5 c 128,-1,58
 344 762 344 762 301.5 728.5 c 128,-1,59
 259 695 259 695 227.5 651.5 c 128,-1,60
 196 608 196 608 184 560 c 0,61,62
 175 525 175 525 173 488 c 128,-1,63
 171 451 171 451 171 416 c 0,41,42
EndSplineSet
EndChar

StartChar: seven
Encoding: 55 55 24
Width: 941
Flags: W
LayerCount: 2
Fore
SplineSet
198 557 m 0,0,1
 198 575 198 575 211 588 c 128,-1,2
 224 601 224 601 242 601 c 2,3,-1
 500 601 l 1,4,-1
 986 1400 l 1,5,-1
 343 1400 l 2,6,7
 325 1400 325 1400 312 1413.5 c 128,-1,8
 299 1427 299 1427 299 1445 c 256,9,10
 299 1463 299 1463 312 1476 c 128,-1,11
 325 1489 325 1489 343 1489 c 2,12,-1
 1066 1489 l 2,13,14
 1084 1489 1084 1489 1097.5 1476 c 128,-1,15
 1111 1463 1111 1463 1111 1445 c 0,16,17
 1111 1438 1111 1438 1091.5 1401.5 c 128,-1,18
 1072 1365 1072 1365 1039 1309 c 128,-1,19
 1006 1253 1006 1253 964 1183.5 c 128,-1,20
 922 1114 922 1114 877 1040.5 c 128,-1,21
 832 967 832 967 787 895 c 128,-1,22
 742 823 742 823 705 763 c 128,-1,23
 668 703 668 703 641 660 c 128,-1,24
 614 617 614 617 605 601 c 1,25,26
 618 601 618 601 644.5 603.5 c 128,-1,27
 671 606 671 606 697.5 604.5 c 128,-1,28
 724 603 724 603 744 592.5 c 128,-1,29
 764 582 764 582 764 557 c 0,30,31
 764 538 764 538 751 525 c 128,-1,32
 738 512 738 512 719 512 c 2,33,-1
 550 512 l 1,34,-1
 242 5 l 2,35,36
 237 -4 237 -4 226 -9.5 c 128,-1,37
 215 -15 215 -15 204 -15 c 0,38,39
 188 -15 188 -15 174 -3.5 c 128,-1,40
 160 8 160 8 160 25 c 0,41,42
 160 36 160 36 178.5 72 c 128,-1,43
 197 108 197 108 225.5 156.5 c 128,-1,44
 254 205 254 205 288.5 261 c 128,-1,45
 323 317 323 317 355 367.5 c 128,-1,46
 387 418 387 418 411.5 457 c 128,-1,47
 436 496 436 496 446 512 c 1,48,-1
 344 512 l 2,49,50
 330 512 330 512 305.5 509.5 c 128,-1,51
 281 507 281 507 257 509 c 128,-1,52
 233 511 233 511 215.5 521 c 128,-1,53
 198 531 198 531 198 557 c 0,0,1
EndSplineSet
EndChar

StartChar: eight
Encoding: 56 56 25
Width: 948
Flags: W
LayerCount: 2
Fore
SplineSet
808 1397 m 0,0,1
 763 1397 763 1397 718 1384.5 c 128,-1,2
 673 1372 673 1372 632.5 1349 c 128,-1,3
 592 1326 592 1326 557 1294 c 128,-1,4
 522 1262 522 1262 496 1223.5 c 128,-1,5
 470 1185 470 1185 455.5 1141.5 c 128,-1,6
 441 1098 441 1098 441 1051 c 0,7,8
 441 1014 441 1014 452 982.5 c 128,-1,9
 463 951 463 951 483 924.5 c 128,-1,10
 503 898 503 898 530.5 877.5 c 128,-1,11
 558 857 558 857 591 842 c 1,12,13
 631 855 631 855 676 876 c 128,-1,14
 721 897 721 897 764.5 925.5 c 128,-1,15
 808 954 808 954 848 989 c 128,-1,16
 888 1024 888 1024 918.5 1064 c 128,-1,17
 949 1104 949 1104 967 1148.5 c 128,-1,18
 985 1193 985 1193 985 1241 c 0,19,20
 985 1283 985 1283 972 1312.5 c 128,-1,21
 959 1342 959 1342 935.5 1361 c 128,-1,22
 912 1380 912 1380 879.5 1388.5 c 128,-1,23
 847 1397 847 1397 808 1397 c 0,0,1
808 1486 m 256,24,25
 864 1486 864 1486 912.5 1470 c 128,-1,26
 961 1454 961 1454 997 1423 c 128,-1,27
 1033 1392 1033 1392 1053.5 1346.5 c 128,-1,28
 1074 1301 1074 1301 1074 1242 c 0,29,30
 1074 1164 1074 1164 1039.5 1093.5 c 128,-1,31
 1005 1023 1005 1023 950 964 c 128,-1,32
 895 905 895 905 827.5 859.5 c 128,-1,33
 760 814 760 814 694 786 c 1,34,35
 769 729 769 729 807 647 c 128,-1,36
 845 565 845 565 845 471 c 0,37,38
 845 367 845 367 804 277.5 c 128,-1,39
 763 188 763 188 693.5 122.5 c 128,-1,40
 624 57 624 57 532 19.5 c 128,-1,41
 440 -18 440 -18 338 -18 c 0,42,43
 273 -18 273 -18 217.5 -3.5 c 128,-1,44
 162 11 162 11 120.5 42 c 128,-1,45
 79 73 79 73 55.5 122.5 c 128,-1,46
 32 172 32 172 32 243 c 0,47,48
 32 302 32 302 51.5 360.5 c 128,-1,49
 71 419 71 419 104.5 474 c 128,-1,50
 138 529 138 529 182 578.5 c 128,-1,51
 226 628 226 628 276 670.5 c 128,-1,52
 326 713 326 713 379 747 c 128,-1,53
 432 781 432 781 482 803 c 1,54,55
 419 846 419 846 385.5 914 c 128,-1,56
 352 982 352 982 352 1057 c 0,57,58
 352 1115 352 1115 370 1169.5 c 128,-1,59
 388 1224 388 1224 420 1271.5 c 128,-1,60
 452 1319 452 1319 496 1358.5 c 128,-1,61
 540 1398 540 1398 590.5 1426.5 c 128,-1,62
 641 1455 641 1455 696.5 1470.5 c 128,-1,63
 752 1486 752 1486 808 1486 c 256,24,25
586 747 m 1,64,65
 537 731 537 731 483.5 703 c 128,-1,66
 430 675 430 675 378.5 638 c 128,-1,67
 327 601 327 601 280.5 555.5 c 128,-1,68
 234 510 234 510 198.5 459 c 128,-1,69
 163 408 163 408 142 353 c 128,-1,70
 121 298 121 298 121 242 c 0,71,72
 121 212 121 212 127.5 186 c 128,-1,73
 134 160 134 160 153 136 c 0,74,75
 153 135 153 135 154.5 134.5 c 128,-1,76
 156 134 156 134 155 133 c 1,77,78
 171 114 171 114 193 101.5 c 128,-1,79
 215 89 215 89 239 82 c 128,-1,80
 263 75 263 75 288.5 72.5 c 128,-1,81
 314 70 314 70 338 70 c 0,82,83
 423 70 423 70 499 100 c 128,-1,84
 575 130 575 130 632 183 c 128,-1,85
 689 236 689 236 722.5 310 c 128,-1,86
 756 384 756 384 756 471 c 0,87,88
 756 563 756 563 712.5 635 c 128,-1,89
 669 707 669 707 586 747 c 1,64,65
EndSplineSet
EndChar

StartChar: nine
Encoding: 57 57 26
Width: 908
Flags: W
LayerCount: 2
Fore
SplineSet
964 885 m 1,0,1
 945 793 945 793 908.5 700 c 128,-1,2
 872 607 872 607 820.5 518.5 c 128,-1,3
 769 430 769 430 704.5 349 c 128,-1,4
 640 268 640 268 565.5 198.5 c 128,-1,5
 491 129 491 129 407.5 74.5 c 128,-1,6
 324 20 324 20 236 -15 c 0,7,8
 228 -18 228 -18 219 -18 c 0,9,10
 202 -18 202 -18 189 -6 c 128,-1,11
 176 6 176 6 176 23 c 256,12,13
 176 40 176 40 182.5 49.5 c 128,-1,14
 189 59 189 59 203 67 c 0,15,16
 236 85 236 85 269.5 100 c 128,-1,17
 303 115 303 115 336 135 c 0,18,19
 408 180 408 180 474.5 237 c 128,-1,20
 541 294 541 294 599.5 360 c 128,-1,21
 658 426 658 426 706.5 499 c 128,-1,22
 755 572 755 572 791 649 c 1,23,24
 742 615 742 615 685.5 596 c 128,-1,25
 629 577 629 577 569 577 c 0,26,27
 486 577 486 577 422.5 605.5 c 128,-1,28
 359 634 359 634 315.5 684 c 128,-1,29
 272 734 272 734 249.5 802 c 128,-1,30
 227 870 227 870 227 950 c 0,31,32
 227 1044 227 1044 257 1139.5 c 128,-1,33
 287 1235 287 1235 344 1312 c 128,-1,34
 401 1389 401 1389 483 1437.5 c 128,-1,35
 565 1486 565 1486 670 1486 c 0,36,37
 729 1486 729 1486 775 1467.5 c 128,-1,38
 821 1449 821 1449 855.5 1417 c 128,-1,39
 890 1385 890 1385 913.5 1342 c 128,-1,40
 937 1299 937 1299 952 1250.5 c 128,-1,41
 967 1202 967 1202 973.5 1150.5 c 128,-1,42
 980 1099 980 1099 980 1050 c 0,43,44
 980 1039 980 1039 979.5 1014.5 c 128,-1,45
 979 990 979 990 977 963.5 c 128,-1,46
 975 937 975 937 972 914.5 c 128,-1,47
 969 892 969 892 964 886 c 1,48,-1
 964 885 l 1,0,1
891 1050 m 256,49,50
 891 1085 891 1085 887 1124.5 c 128,-1,51
 883 1164 883 1164 873.5 1202.5 c 128,-1,52
 864 1241 864 1241 847.5 1276.5 c 128,-1,53
 831 1312 831 1312 806.5 1338.5 c 128,-1,54
 782 1365 782 1365 748.5 1381 c 128,-1,55
 715 1397 715 1397 670 1397 c 0,56,57
 614 1397 614 1397 566 1378 c 128,-1,58
 518 1359 518 1359 478.5 1326 c 128,-1,59
 439 1293 439 1293 408.5 1249 c 128,-1,60
 378 1205 378 1205 357.5 1155.5 c 128,-1,61
 337 1106 337 1106 326.5 1053.5 c 128,-1,62
 316 1001 316 1001 316 951 c 0,63,64
 316 897 316 897 330 845.5 c 128,-1,65
 344 794 344 794 373 754.5 c 128,-1,66
 402 715 402 715 446.5 690.5 c 128,-1,67
 491 666 491 666 552 666 c 0,68,69
 603 666 603 666 656 684 c 128,-1,70
 709 702 709 702 754 734.5 c 128,-1,71
 799 767 799 767 832.5 811 c 128,-1,72
 866 855 866 855 878 906 c 0,73,74
 886 941 886 941 888.5 978 c 128,-1,75
 891 1015 891 1015 891 1050 c 256,49,50
EndSplineSet
EndChar

StartChar: colon
Encoding: 58 58 27
Width: 295
Flags: W
LayerCount: 2
Fore
SplineSet
91 212 m 0,0,1
 108 212 108 212 122 204 c 128,-1,2
 136 196 136 196 145.5 183 c 128,-1,3
 155 170 155 170 160.5 154.5 c 128,-1,4
 166 139 166 139 166 123 c 0,5,6
 166 102 166 102 159.5 81 c 128,-1,7
 153 60 153 60 140.5 43.5 c 128,-1,8
 128 27 128 27 110 17 c 128,-1,9
 92 7 92 7 69 7 c 0,10,11
 53 7 53 7 40 15 c 128,-1,12
 27 23 27 23 18 36 c 128,-1,13
 9 49 9 49 4.5 64.5 c 128,-1,14
 0 80 0 80 0 94 c 0,15,16
 0 112 0 112 6 133 c 128,-1,17
 12 154 12 154 24 171.5 c 128,-1,18
 36 189 36 189 53 200.5 c 128,-1,19
 70 212 70 212 91 212 c 0,0,1
212 797 m 0,20,21
 238 797 238 797 255.5 777.5 c 128,-1,22
 273 758 273 758 278 735 c 1,23,-1
 277 734 l 1,24,-1
 281 719 l 1,25,-1
 281 701 l 2,26,27
 281 681 281 681 273.5 661.5 c 128,-1,28
 266 642 266 642 253.5 627 c 128,-1,29
 241 612 241 612 223.5 602.5 c 128,-1,30
 206 593 206 593 185 593 c 0,31,32
 165 593 165 593 151.5 602 c 128,-1,33
 138 611 138 611 130 625 c 128,-1,34
 122 639 122 639 119 656 c 128,-1,35
 116 673 116 673 116 690 c 0,36,37
 116 709 116 709 123.5 728.5 c 128,-1,38
 131 748 131 748 144 763 c 128,-1,39
 157 778 157 778 174.5 787.5 c 128,-1,40
 192 797 192 797 212 797 c 0,20,21
EndSplineSet
EndChar

StartChar: semicolon
Encoding: 59 59 28
Width: 295
Flags: W
LayerCount: 2
Fore
SplineSet
212 797 m 0,0,1
 238 797 238 797 255.5 777.5 c 128,-1,2
 273 758 273 758 278 735 c 1,3,-1
 277 734 l 1,4,-1
 281 719 l 1,5,-1
 281 701 l 2,6,7
 281 681 281 681 273.5 661.5 c 128,-1,8
 266 642 266 642 253.5 627 c 128,-1,9
 241 612 241 612 223.5 602.5 c 128,-1,10
 206 593 206 593 185 593 c 0,11,12
 165 593 165 593 151.5 602 c 128,-1,13
 138 611 138 611 130 625 c 128,-1,14
 122 639 122 639 119 656 c 128,-1,15
 116 673 116 673 116 690 c 0,16,17
 116 709 116 709 123.5 728.5 c 128,-1,18
 131 748 131 748 144 763 c 128,-1,19
 157 778 157 778 174.5 787.5 c 128,-1,20
 192 797 192 797 212 797 c 0,0,1
97 265 m 0,21,22
 118 265 118 265 130.5 250.5 c 128,-1,23
 143 236 143 236 143 216 c 0,24,25
 143 169 143 169 126.5 105.5 c 128,-1,26
 110 42 110 42 85 -23 c 128,-1,27
 60 -88 60 -88 31.5 -148.5 c 128,-1,28
 3 -209 3 -209 -22 -249 c 0,29,30
 -28 -259 -28 -259 -40.5 -279 c 128,-1,31
 -53 -299 -53 -299 -67.5 -319 c 128,-1,32
 -82 -339 -82 -339 -97.5 -354 c 128,-1,33
 -113 -369 -113 -369 -126 -369 c 0,34,35
 -144 -369 -144 -369 -158.5 -356.5 c 128,-1,36
 -173 -344 -173 -344 -173 -325 c 0,37,38
 -173 -315 -173 -315 -163.5 -298.5 c 128,-1,39
 -154 -282 -154 -282 -141.5 -264 c 128,-1,40
 -129 -246 -129 -246 -116.5 -229.5 c 128,-1,41
 -104 -213 -104 -213 -98 -203 c 0,42,43
 -50 -126 -50 -126 -16 -42 c 128,-1,44
 18 42 18 42 38 130 c 0,45,46
 43 154 43 154 46 179 c 128,-1,47
 49 204 49 204 54 227 c 0,48,49
 58 243 58 243 69 254 c 128,-1,50
 80 265 80 265 97 265 c 0,21,22
EndSplineSet
EndChar

StartChar: equal
Encoding: 61 61 30
Width: 878
Flags: W
LayerCount: 2
Fore
SplineSet
179 507 m 2,0,1
 161 507 161 507 147.5 520 c 128,-1,2
 134 533 134 533 134 551 c 0,3,4
 134 570 134 570 147 583 c 128,-1,5
 160 596 160 596 179 596 c 2,6,-1
 748 596 l 2,7,8
 767 596 767 596 779.5 582.5 c 128,-1,9
 792 569 792 569 792 551 c 256,10,11
 792 533 792 533 779 520 c 128,-1,12
 766 507 766 507 748 507 c 2,13,-1
 179 507 l 2,0,1
224 707 m 2,14,15
 206 707 206 707 192.5 720 c 128,-1,16
 179 733 179 733 179 751 c 0,17,18
 179 770 179 770 192 783 c 128,-1,19
 205 796 205 796 224 796 c 2,20,-1
 793 796 l 2,21,22
 812 796 812 796 824.5 782.5 c 128,-1,23
 837 769 837 769 837 751 c 256,24,25
 837 733 837 733 824 720 c 128,-1,26
 811 707 811 707 793 707 c 2,27,-1
 224 707 l 2,14,15
EndSplineSet
EndChar

StartChar: greater
Encoding: 62 62 31
Width: 603
Flags: W
LayerCount: 2
Fore
SplineSet
231 750 m 0,0,1
 231 770 231 770 244.5 783 c 128,-1,2
 258 796 258 796 278 796 c 0,3,4
 287 796 287 796 297.5 790.5 c 128,-1,5
 308 785 308 785 313 778 c 2,6,-1
 564 425 l 2,7,8
 573 413 573 413 573 399 c 0,9,10
 573 389 573 389 568 379 c 128,-1,11
 563 369 563 369 554 364 c 0,12,13
 553 364 553 364 553 363 c 256,14,15
 553 362 553 362 552.5 361.5 c 128,-1,16
 552 361 552 361 552 362 c 2,17,-1
 52 11 l 2,18,19
 41 3 41 3 28 3 c 0,20,21
 9 3 9 3 -4.5 15.5 c 128,-1,22
 -18 28 -18 28 -18 48 c 0,23,24
 -18 58 -18 58 -12.5 68 c 128,-1,25
 -7 78 -7 78 1 84 c 2,26,-1
 466 410 l 1,27,-1
 240 725 l 2,28,29
 236 730 236 730 233.5 736.5 c 128,-1,30
 231 743 231 743 231 750 c 0,0,1
EndSplineSet
EndChar

StartChar: question
Encoding: 63 63 32
Width: 876
Flags: W
LayerCount: 2
Fore
SplineSet
165 1171 m 0,0,1
 148 1171 148 1171 134 1183 c 128,-1,2
 120 1195 120 1195 120 1213 c 0,3,4
 120 1256 120 1256 138 1293 c 128,-1,5
 156 1330 156 1330 186.5 1361.5 c 128,-1,6
 217 1393 217 1393 256.5 1417.5 c 128,-1,7
 296 1442 296 1442 338.5 1458.5 c 128,-1,8
 381 1475 381 1475 423 1484 c 128,-1,9
 465 1493 465 1493 502 1493 c 0,10,11
 568 1493 568 1493 629.5 1472.5 c 128,-1,12
 691 1452 691 1452 737.5 1413.5 c 128,-1,13
 784 1375 784 1375 812 1319 c 128,-1,14
 840 1263 840 1263 840 1192 c 0,15,16
 840 1105 840 1105 805 1028.5 c 128,-1,17
 770 952 770 952 713.5 889.5 c 128,-1,18
 657 827 657 827 584.5 779 c 128,-1,19
 512 731 512 731 437 700 c 0,20,21
 406 687 406 687 364.5 666 c 128,-1,22
 323 645 323 645 286 617 c 128,-1,23
 249 589 249 589 223.5 554.5 c 128,-1,24
 198 520 198 520 198 480 c 256,25,26
 198 440 198 440 224.5 418 c 128,-1,27
 251 396 251 396 290 396 c 0,28,29
 326 396 326 396 352.5 404.5 c 128,-1,30
 379 413 379 413 398 423.5 c 128,-1,31
 417 434 417 434 431 443 c 128,-1,32
 445 452 445 452 457 452 c 0,33,34
 475 452 475 452 489 439.5 c 128,-1,35
 503 427 503 427 503 408 c 0,36,37
 503 384 503 384 478 365 c 128,-1,38
 453 346 453 346 419 333 c 128,-1,39
 385 320 385 320 350.5 313 c 128,-1,40
 316 306 316 306 297 306 c 0,41,42
 261 306 261 306 227 318 c 128,-1,43
 193 330 193 330 167 351.5 c 128,-1,44
 141 373 141 373 125.5 404 c 128,-1,45
 110 435 110 435 110 474 c 0,46,47
 110 533 110 533 138 581.5 c 128,-1,48
 166 630 166 630 209.5 668 c 128,-1,49
 253 706 253 706 304.5 734.5 c 128,-1,50
 356 763 356 763 404 783 c 0,51,52
 465 808 465 808 527 848 c 128,-1,53
 589 888 589 888 639 940 c 128,-1,54
 689 992 689 992 720 1055.5 c 128,-1,55
 751 1119 751 1119 751 1192 c 0,56,57
 751 1246 751 1246 730 1285.5 c 128,-1,58
 709 1325 709 1325 674.5 1351 c 128,-1,59
 640 1377 640 1377 595 1390 c 128,-1,60
 550 1403 550 1403 501 1403 c 0,61,62
 462 1403 462 1403 422 1394.5 c 128,-1,63
 382 1386 382 1386 346 1368 c 128,-1,64
 310 1350 310 1350 279.5 1323.5 c 128,-1,65
 249 1297 249 1297 230 1261 c 0,66,67
 222 1247 222 1247 218.5 1233.5 c 128,-1,68
 215 1220 215 1220 209 1206 c 0,69,70
 203 1191 203 1191 193 1181 c 128,-1,71
 183 1171 183 1171 165 1171 c 0,0,1
200 212 m 0,72,73
 217 212 217 212 231 204 c 128,-1,74
 245 196 245 196 254.5 183 c 128,-1,75
 264 170 264 170 269.5 154.5 c 128,-1,76
 275 139 275 139 275 123 c 0,77,78
 275 102 275 102 268.5 81 c 128,-1,79
 262 60 262 60 249.5 43.5 c 128,-1,80
 237 27 237 27 219 17 c 128,-1,81
 201 7 201 7 178 7 c 0,82,83
 162 7 162 7 149 15 c 128,-1,84
 136 23 136 23 127 36 c 128,-1,85
 118 49 118 49 113.5 64.5 c 128,-1,86
 109 80 109 80 109 94 c 0,87,88
 109 112 109 112 115 133 c 128,-1,89
 121 154 121 154 133 171.5 c 128,-1,90
 145 189 145 189 162 200.5 c 128,-1,91
 179 212 179 212 200 212 c 0,72,73
EndSplineSet
EndChar

StartChar: at
Encoding: 64 64 33
Width: 996
Flags: W
LayerCount: 2
Fore
SplineSet
652 475 m 1,0,1
 671 477 671 477 686.5 464.5 c 128,-1,2
 702 452 702 452 702 432 c 0,3,4
 702 422 702 422 690.5 393.5 c 128,-1,5
 679 365 679 365 664.5 327.5 c 128,-1,6
 650 290 650 290 638.5 249.5 c 128,-1,7
 627 209 627 209 627 175 c 0,8,9
 627 169 627 169 627.5 159.5 c 128,-1,10
 628 150 628 150 630.5 142 c 128,-1,11
 633 134 633 134 638 128 c 128,-1,12
 643 122 643 122 652 122 c 256,13,14
 661 122 661 122 668 125 c 128,-1,15
 675 128 675 128 683 132 c 0,16,17
 729 155 729 155 762.5 195.5 c 128,-1,18
 796 236 796 236 817.5 285.5 c 128,-1,19
 839 335 839 335 849 388.5 c 128,-1,20
 859 442 859 442 859 490 c 0,21,22
 859 618 859 618 789.5 684 c 128,-1,23
 720 750 720 750 593 750 c 0,24,25
 517 750 517 750 448 718.5 c 128,-1,26
 379 687 379 687 320.5 634 c 128,-1,27
 262 581 262 581 214 511.5 c 128,-1,28
 166 442 166 442 132.5 366 c 128,-1,29
 99 290 99 290 81 213.5 c 128,-1,30
 63 137 63 137 63 69 c 0,31,32
 63 7 63 7 76 -45 c 128,-1,33
 89 -97 89 -97 118 -134.5 c 128,-1,34
 147 -172 147 -172 193.5 -193.5 c 128,-1,35
 240 -215 240 -215 307 -215 c 0,36,37
 363 -215 363 -215 418.5 -202.5 c 128,-1,38
 474 -190 474 -190 525 -166.5 c 128,-1,39
 576 -143 576 -143 622 -110 c 128,-1,40
 668 -77 668 -77 704 -35 c 0,41,42
 711 -27 711 -27 718.5 -21.5 c 128,-1,43
 726 -16 726 -16 737 -16 c 0,44,45
 744 -16 744 -16 753 -20 c 128,-1,46
 762 -24 762 -24 769 -30.5 c 128,-1,47
 776 -37 776 -37 781 -45 c 128,-1,48
 786 -53 786 -53 786 -61 c 256,49,50
 786 -69 786 -69 782.5 -76 c 128,-1,51
 779 -83 779 -83 774 -90 c 0,52,53
 739 -139 739 -139 684 -178.5 c 128,-1,54
 629 -218 629 -218 565 -246 c 128,-1,55
 501 -274 501 -274 433.5 -289 c 128,-1,56
 366 -304 366 -304 308 -304 c 0,57,58
 222 -304 222 -304 159.5 -276.5 c 128,-1,59
 97 -249 97 -249 56 -199.5 c 128,-1,60
 15 -150 15 -150 -5 -82 c 128,-1,61
 -25 -14 -25 -14 -25 67 c 256,62,63
 -25 148 -25 148 -4 236.5 c 128,-1,64
 17 325 17 325 55.5 411 c 128,-1,65
 94 497 94 497 149 574.5 c 128,-1,66
 204 652 204 652 272.5 711 c 128,-1,67
 341 770 341 770 421.5 804.5 c 128,-1,68
 502 839 502 839 592 839 c 0,69,70
 673 839 673 839 738.5 815.5 c 128,-1,71
 804 792 804 792 850.5 747 c 128,-1,72
 897 702 897 702 922.5 637.5 c 128,-1,73
 948 573 948 573 948 491 c 0,74,75
 948 431 948 431 934.5 364.5 c 128,-1,76
 921 298 921 298 893.5 237.5 c 128,-1,77
 866 177 866 177 823 127.5 c 128,-1,78
 780 78 780 78 721 51 c 0,79,80
 704 43 704 43 687 38 c 128,-1,81
 670 33 670 33 651 33 c 0,82,83
 617 33 617 33 592 50 c 128,-1,84
 567 67 567 67 553 98 c 1,85,86
 511 56 511 56 457.5 41.5 c 128,-1,87
 404 27 404 27 347 27 c 0,88,89
 317 27 317 27 286 32.5 c 128,-1,90
 255 38 255 38 230 52 c 128,-1,91
 205 66 205 66 189 90 c 128,-1,92
 173 114 173 114 173 151 c 0,93,94
 173 192 173 192 193 232.5 c 128,-1,95
 213 273 213 273 236 305 c 0,96,97
 265 346 265 346 305 379.5 c 128,-1,98
 345 413 345 413 391.5 437 c 128,-1,99
 438 461 438 461 488.5 474 c 128,-1,100
 539 487 539 487 589 487 c 0,101,102
 603 487 603 487 622 486 c 128,-1,103
 641 485 641 485 652 475 c 1,0,1
588 398 m 1,104,105
 550 398 550 398 510 387.5 c 128,-1,106
 470 377 470 377 432.5 357.5 c 128,-1,107
 395 338 395 338 362.5 311.5 c 128,-1,108
 330 285 330 285 309 254 c 0,109,110
 302 243 302 243 294 230.5 c 128,-1,111
 286 218 286 218 279 204 c 128,-1,112
 272 190 272 190 267.5 175.5 c 128,-1,113
 263 161 263 161 263 148 c 0,114,115
 263 136 263 136 273 129.5 c 128,-1,116
 283 123 283 123 297 120 c 128,-1,117
 311 117 311 117 325.5 116.5 c 128,-1,118
 340 116 340 116 348 116 c 0,119,120
 398 116 398 116 431 127.5 c 128,-1,121
 464 139 464 139 485.5 159 c 128,-1,122
 507 179 507 179 520 206 c 128,-1,123
 533 233 533 233 542.5 264 c 128,-1,124
 552 295 552 295 562 329.5 c 128,-1,125
 572 364 572 364 588 398 c 1,104,105
EndSplineSet
EndChar

StartChar: A
Encoding: 65 65 34
Width: 1498
Flags: W
LayerCount: 2
Fore
SplineSet
985 120 m 0,0,1
 985 111 985 111 986 102.5 c 128,-1,2
 987 94 987 94 990 86.5 c 128,-1,3
 993 79 993 79 999.5 74.5 c 128,-1,4
 1006 70 1006 70 1017 70 c 0,5,6
 1057 70 1057 70 1102.5 95.5 c 128,-1,7
 1148 121 1148 121 1193.5 159.5 c 128,-1,8
 1239 198 1239 198 1282 243 c 128,-1,9
 1325 288 1325 288 1361.5 326.5 c 128,-1,10
 1398 365 1398 365 1425 390.5 c 128,-1,11
 1452 416 1452 416 1465 416 c 0,12,13
 1482 416 1482 416 1496.5 403.5 c 128,-1,14
 1511 391 1511 391 1511 373 c 0,15,16
 1511 354 1511 354 1499 341 c 1,17,18
 1477 314 1477 314 1443.5 277.5 c 128,-1,19
 1410 241 1410 241 1369 201 c 128,-1,20
 1328 161 1328 161 1282.5 122 c 128,-1,21
 1237 83 1237 83 1191 51.5 c 128,-1,22
 1145 20 1145 20 1100.5 1 c 128,-1,23
 1056 -18 1056 -18 1017 -18 c 0,24,25
 953 -18 953 -18 924 15 c 128,-1,26
 895 48 895 48 895 111 c 0,27,28
 895 159 895 159 907 202 c 128,-1,29
 919 245 919 245 928 291 c 1,30,31
 878 235 878 235 814 180 c 128,-1,32
 750 125 750 125 677.5 81 c 128,-1,33
 605 37 605 37 526.5 9.5 c 128,-1,34
 448 -18 448 -18 370 -18 c 0,35,36
 280 -18 280 -18 211.5 2 c 128,-1,37
 143 22 143 22 96 64.5 c 128,-1,38
 49 107 49 107 25 172.5 c 128,-1,39
 1 238 1 238 1 329 c 0,40,41
 1 418 1 418 28.5 510 c 128,-1,42
 56 602 56 602 103.5 692 c 128,-1,43
 151 782 151 782 213.5 867 c 128,-1,44
 276 952 276 952 347 1027 c 128,-1,45
 418 1102 418 1102 493 1165.5 c 128,-1,46
 568 1229 568 1229 639 1276 c 0,47,48
 808 1387 808 1387 993.5 1436.5 c 128,-1,49
 1179 1486 1179 1486 1380 1486 c 0,50,51
 1398 1486 1398 1486 1411.5 1474.5 c 128,-1,52
 1425 1463 1425 1463 1425 1444 c 0,53,54
 1425 1435 1425 1435 1422 1426 c 0,55,56
 1417 1412 1417 1412 1401.5 1370.5 c 128,-1,57
 1386 1329 1386 1329 1363.5 1267 c 128,-1,58
 1341 1205 1341 1205 1313 1127 c 128,-1,59
 1285 1049 1285 1049 1254 963 c 128,-1,60
 1223 877 1223 877 1191 786.5 c 128,-1,61
 1159 696 1159 696 1129 608.5 c 128,-1,62
 1099 521 1099 521 1073 441 c 128,-1,63
 1047 361 1047 361 1027.5 296 c 128,-1,64
 1008 231 1008 231 996.5 185 c 128,-1,65
 985 139 985 139 985 120 c 0,0,1
1316 1396 m 1,66,67
 1137 1388 1137 1388 988.5 1342 c 128,-1,68
 840 1296 840 1296 712 1215.5 c 128,-1,69
 584 1135 584 1135 472 1023.5 c 128,-1,70
 360 912 360 912 255 774 c 0,71,72
 220 727 220 727 189.5 671.5 c 128,-1,73
 159 616 159 616 136.5 556 c 128,-1,74
 114 496 114 496 101.5 434 c 128,-1,75
 89 372 89 372 89 314 c 0,76,77
 89 247 89 247 110 200.5 c 128,-1,78
 131 154 131 154 168 125 c 128,-1,79
 205 96 205 96 256.5 83 c 128,-1,80
 308 70 308 70 370 70 c 0,81,82
 430 70 430 70 497.5 94.5 c 128,-1,83
 565 119 565 119 632.5 160 c 128,-1,84
 700 201 700 201 764 254.5 c 128,-1,85
 828 308 828 308 881.5 367 c 128,-1,86
 935 426 935 426 975 486 c 128,-1,87
 1015 546 1015 546 1034 600 c 2,88,-1
 1316 1396 l 1,66,67
EndSplineSet
EndChar

StartChar: B
Encoding: 66 66 35
Width: 1358
Flags: W
LayerCount: 2
Fore
SplineSet
416 1187 m 0,0,1
 397 1187 397 1187 384.5 1199.5 c 128,-1,2
 372 1212 372 1212 372 1231 c 0,3,4
 372 1242 372 1242 376 1249.5 c 128,-1,5
 380 1257 380 1257 387 1265 c 0,6,7
 482 1376 482 1376 610 1432 c 128,-1,8
 738 1488 738 1488 884 1488 c 0,9,10
 933 1488 933 1488 985 1480 c 128,-1,11
 1037 1472 1037 1472 1086.5 1455.5 c 128,-1,12
 1136 1439 1136 1439 1180 1413.5 c 128,-1,13
 1224 1388 1224 1388 1257 1352 c 128,-1,14
 1290 1316 1290 1316 1309.5 1269 c 128,-1,15
 1329 1222 1329 1222 1329 1164 c 0,16,17
 1329 1093 1329 1093 1300.5 1032.5 c 128,-1,18
 1272 972 1272 972 1226 923 c 128,-1,19
 1180 874 1180 874 1121.5 836.5 c 128,-1,20
 1063 799 1063 799 1003 775 c 1,21,22
 1051 752 1051 752 1090.5 717 c 128,-1,23
 1130 682 1130 682 1158.5 638.5 c 128,-1,24
 1187 595 1187 595 1203 544.5 c 128,-1,25
 1219 494 1219 494 1219 441 c 0,26,27
 1219 405 1219 405 1212 370.5 c 128,-1,28
 1205 336 1205 336 1191 302 c 1,29,30
 1200 310 1200 310 1218 329 c 128,-1,31
 1236 348 1236 348 1256 367.5 c 128,-1,32
 1276 387 1276 387 1294.5 401.5 c 128,-1,33
 1313 416 1313 416 1322 416 c 0,34,35
 1339 416 1339 416 1354 404 c 128,-1,36
 1369 392 1369 392 1369 373 c 256,37,38
 1369 354 1369 354 1357 341 c 0,39,40
 1302 278 1302 278 1230 215.5 c 128,-1,41
 1158 153 1158 153 1076.5 102.5 c 128,-1,42
 995 52 995 52 907 20.5 c 128,-1,43
 819 -11 819 -11 732 -11 c 0,44,45
 632 -11 632 -11 575.5 45.5 c 128,-1,46
 519 102 519 102 519 202 c 0,47,48
 519 215 519 215 520 235 c 128,-1,49
 521 255 521 255 526.5 273 c 128,-1,50
 532 291 532 291 542.5 304 c 128,-1,51
 553 317 553 317 572 317 c 256,52,53
 591 317 591 317 604 304.5 c 128,-1,54
 617 292 617 292 617 273 c 0,55,56
 617 256 617 256 613 238.5 c 128,-1,57
 609 221 609 221 609 204 c 0,58,59
 609 77 609 77 735 77 c 0,60,61
 779 77 779 77 825.5 91 c 128,-1,62
 872 105 872 105 916 130.5 c 128,-1,63
 960 156 960 156 999 190 c 128,-1,64
 1038 224 1038 224 1067 264.5 c 128,-1,65
 1096 305 1096 305 1113 350 c 128,-1,66
 1130 395 1130 395 1130 441 c 0,67,68
 1130 503 1130 503 1106 554.5 c 128,-1,69
 1082 606 1082 606 1041 642.5 c 128,-1,70
 1000 679 1000 679 946 699.5 c 128,-1,71
 892 720 892 720 832 720 c 0,72,73
 809 720 809 720 787 714 c 128,-1,74
 765 708 765 708 741 708 c 0,75,76
 721 708 721 708 709 722 c 128,-1,77
 697 736 697 736 697 755 c 0,78,79
 697 773 697 773 708.5 783 c 128,-1,80
 720 793 720 793 736 798 c 128,-1,81
 752 803 752 803 770 804.5 c 128,-1,82
 788 806 788 806 800 808 c 0,83,84
 842 814 842 814 891.5 829 c 128,-1,85
 941 844 941 844 990 866.5 c 128,-1,86
 1039 889 1039 889 1084 919.5 c 128,-1,87
 1129 950 1129 950 1163.5 987.5 c 128,-1,88
 1198 1025 1198 1025 1219 1069 c 128,-1,89
 1240 1113 1240 1113 1240 1164 c 0,90,91
 1240 1233 1240 1233 1203.5 1278.5 c 128,-1,92
 1167 1324 1167 1324 1112.5 1350.5 c 128,-1,93
 1058 1377 1058 1377 994.5 1388 c 128,-1,94
 931 1399 931 1399 876 1399 c 1,95,-1
 488 312 l 2,96,97
 487 311 487 311 487 310 c 0,98,99
 470 264 470 264 447.5 217 c 128,-1,100
 425 170 425 170 395 128 c 128,-1,101
 365 86 365 86 326.5 52.5 c 128,-1,102
 288 19 288 19 240 0 c 0,103,104
 235 -2 235 -2 226.5 -5 c 128,-1,105
 218 -8 218 -8 209 -10.5 c 128,-1,106
 200 -13 200 -13 191.5 -15 c 128,-1,107
 183 -17 183 -17 178 -17 c 0,108,109
 98 -17 98 -17 49.5 27 c 128,-1,110
 1 71 1 71 1 153 c 0,111,112
 1 166 1 166 2 181.5 c 128,-1,113
 3 197 3 197 8 210 c 128,-1,114
 13 223 13 223 23 231.5 c 128,-1,115
 33 240 33 240 51 240 c 0,116,117
 70 240 70 240 82.5 227 c 128,-1,118
 95 214 95 214 95 195 c 0,119,120
 95 184 95 184 91.5 174 c 128,-1,121
 88 164 88 164 88 153 c 0,122,123
 88 112 88 112 111.5 91.5 c 128,-1,124
 135 71 135 71 174 71 c 0,125,126
 216 71 216 71 253 101 c 128,-1,127
 290 131 290 131 319.5 174 c 128,-1,128
 349 217 349 217 370.5 263.5 c 128,-1,129
 392 310 392 310 404 342 c 2,130,-1
 778 1390 l 1,131,132
 684 1371 684 1371 600 1327.5 c 128,-1,133
 516 1284 516 1284 455 1209 c 0,134,135
 447 1198 447 1198 439.5 1192.5 c 128,-1,136
 432 1187 432 1187 416 1187 c 0,0,1
EndSplineSet
EndChar

StartChar: F
Encoding: 70 70 39
Width: 848
Flags: W
LayerCount: 2
Fore
SplineSet
340 1176 m 0,0,1
 314 1176 314 1176 304 1191.5 c 128,-1,2
 294 1207 294 1207 294 1230 c 0,3,4
 294 1298 294 1298 330 1347 c 128,-1,5
 366 1396 366 1396 420 1427.5 c 128,-1,6
 474 1459 474 1459 538 1473.5 c 128,-1,7
 602 1488 602 1488 659 1488 c 0,8,9
 811 1488 811 1488 962.5 1487 c 128,-1,10
 1114 1486 1114 1486 1266 1486 c 0,11,12
 1284 1486 1284 1486 1297.5 1473 c 128,-1,13
 1311 1460 1311 1460 1311 1442 c 0,14,15
 1311 1423 1311 1423 1298 1410 c 128,-1,16
 1285 1397 1285 1397 1266 1397 c 2,17,-1
 876 1397 l 1,18,-1
 661 797 l 1,19,-1
 809 797 l 2,20,21
 827 797 827 797 840.5 784.5 c 128,-1,22
 854 772 854 772 854 753 c 256,23,24
 854 734 854 734 841 721 c 128,-1,25
 828 708 828 708 809 708 c 2,26,-1
 630 708 l 1,27,-1
 488 312 l 2,28,29
 487 311 487 311 487 310 c 0,30,31
 470 262 470 262 447 214.5 c 128,-1,32
 424 167 424 167 394 125 c 1,33,34
 454 150 454 150 505 179.5 c 128,-1,35
 556 209 556 209 602.5 243.5 c 128,-1,36
 649 278 649 278 693 317.5 c 128,-1,37
 737 357 737 357 782 402 c 0,38,39
 796 416 796 416 813 416 c 0,40,41
 833 416 833 416 846 403 c 128,-1,42
 859 390 859 390 859 370 c 0,43,44
 859 354 859 354 848 341 c 0,45,46
 814 300 814 300 766.5 257 c 128,-1,47
 719 214 719 214 663 174.5 c 128,-1,48
 607 135 607 135 544.5 100 c 128,-1,49
 482 65 482 65 419 38.5 c 128,-1,50
 356 12 356 12 294 -3 c 128,-1,51
 232 -18 232 -18 176 -18 c 0,52,53
 137 -18 137 -18 105 -6 c 128,-1,54
 73 6 73 6 50 28 c 128,-1,55
 27 50 27 50 14 81.5 c 128,-1,56
 1 113 1 113 1 153 c 0,57,58
 1 166 1 166 2 181.5 c 128,-1,59
 3 197 3 197 8 210 c 128,-1,60
 13 223 13 223 23 231.5 c 128,-1,61
 33 240 33 240 51 240 c 0,62,63
 70 240 70 240 82.5 227 c 128,-1,64
 95 214 95 214 95 195 c 0,65,66
 95 184 95 184 91.5 174 c 128,-1,67
 88 164 88 164 88 153 c 0,68,69
 88 114 88 114 112 92.5 c 128,-1,70
 136 71 136 71 174 71 c 0,71,72
 216 71 216 71 253 101 c 128,-1,73
 290 131 290 131 319.5 174 c 128,-1,74
 349 217 349 217 370.5 263.5 c 128,-1,75
 392 310 392 310 404 342 c 2,76,-1
 535 708 l 1,77,78
 520 708 520 708 497.5 706 c 128,-1,79
 475 704 475 704 453.5 706.5 c 128,-1,80
 432 709 432 709 416.5 719 c 128,-1,81
 401 729 401 729 401 753 c 0,82,83
 401 778 401 778 421.5 788.5 c 128,-1,84
 442 799 442 799 469.5 800.5 c 128,-1,85
 497 802 497 802 524.5 799.5 c 128,-1,86
 552 797 552 797 567 797 c 1,87,-1
 780 1397 l 1,88,89
 745 1397 745 1397 711 1398 c 128,-1,90
 677 1399 677 1399 642 1399 c 0,91,92
 604 1399 604 1399 560.5 1389 c 128,-1,93
 517 1379 517 1379 478.5 1358.5 c 128,-1,94
 440 1338 440 1338 413.5 1306 c 128,-1,95
 387 1274 387 1274 383 1230 c 0,96,97
 381 1210 381 1210 373 1193 c 128,-1,98
 365 1176 365 1176 340 1176 c 0,0,1
EndSplineSet
EndChar

StartChar: H
Encoding: 72 72 41
Width: 1403
Flags: W
LayerCount: 2
Fore
SplineSet
1367 416 m 0,0,1
 1387 416 1387 416 1400 403 c 128,-1,2
 1413 390 1413 390 1413 370 c 0,3,4
 1413 354 1413 354 1402 341 c 0,5,6
 1378 313 1378 313 1344 276 c 128,-1,7
 1310 239 1310 239 1269 200.5 c 128,-1,8
 1228 162 1228 162 1183 125 c 128,-1,9
 1138 88 1138 88 1091.5 59 c 128,-1,10
 1045 30 1045 30 999.5 12 c 128,-1,11
 954 -6 954 -6 913 -6 c 0,12,13
 882 -6 882 -6 860 5.5 c 128,-1,14
 838 17 838 17 823.5 36.5 c 128,-1,15
 809 56 809 56 802 81.5 c 128,-1,16
 795 107 795 107 795 135 c 0,17,18
 795 178 795 178 807.5 232.5 c 128,-1,19
 820 287 820 287 840 346.5 c 128,-1,20
 860 406 860 406 885 466.5 c 128,-1,21
 910 527 910 527 934.5 583 c 128,-1,22
 959 639 959 639 981 687 c 128,-1,23
 1003 735 1003 735 1017 768 c 1,24,-1
 547 509 l 1,25,26
 532 467 532 467 513 411 c 128,-1,27
 494 355 494 355 469 296 c 128,-1,28
 444 237 444 237 412.5 179.5 c 128,-1,29
 381 122 381 122 341.5 77 c 128,-1,30
 302 32 302 32 253.5 4.5 c 128,-1,31
 205 -23 205 -23 147 -23 c 0,32,33
 112 -23 112 -23 84.5 -10.5 c 128,-1,34
 57 2 57 2 38 23.5 c 128,-1,35
 19 45 19 45 9.5 74 c 128,-1,36
 0 103 0 103 0 137 c 0,37,38
 0 187 0 187 17 229.5 c 128,-1,39
 34 272 34 272 63 308 c 128,-1,40
 92 344 92 344 129.5 373 c 128,-1,41
 167 402 167 402 208 425 c 2,42,-1
 474 571 l 1,43,-1
 767 1397 l 1,44,-1
 537 1397 l 2,45,46
 516 1397 516 1397 489.5 1390.5 c 128,-1,47
 463 1384 463 1384 439.5 1370.5 c 128,-1,48
 416 1357 416 1357 399.5 1337.5 c 128,-1,49
 383 1318 383 1318 383 1292 c 0,50,51
 383 1276 383 1276 390.5 1266.5 c 128,-1,52
 398 1257 398 1257 398 1242 c 0,53,54
 398 1224 398 1224 385 1210.5 c 128,-1,55
 372 1197 372 1197 354 1197 c 0,56,57
 337 1197 337 1197 325.5 1207 c 128,-1,58
 314 1217 314 1217 307 1231 c 128,-1,59
 300 1245 300 1245 297 1261.5 c 128,-1,60
 294 1278 294 1278 294 1292 c 0,61,62
 294 1338 294 1338 316.5 1374 c 128,-1,63
 339 1410 339 1410 374.5 1435 c 128,-1,64
 410 1460 410 1460 453 1473 c 128,-1,65
 496 1486 496 1486 537 1486 c 2,66,-1
 830 1486 l 2,67,68
 849 1486 849 1486 861.5 1473.5 c 128,-1,69
 874 1461 874 1461 874 1442 c 0,70,71
 874 1437 874 1437 863 1403 c 128,-1,72
 852 1369 852 1369 833.5 1315.5 c 128,-1,73
 815 1262 815 1262 791.5 1195 c 128,-1,74
 768 1128 768 1128 743 1057 c 128,-1,75
 718 986 718 986 693 916.5 c 128,-1,76
 668 847 668 847 647 789.5 c 128,-1,77
 626 732 626 732 611.5 691 c 128,-1,78
 597 650 597 650 592 636 c 1,79,-1
 1074 901 l 1,80,81
 1093 947 1093 947 1118 1008 c 128,-1,82
 1143 1069 1143 1069 1174 1133.5 c 128,-1,83
 1205 1198 1205 1198 1243 1261 c 128,-1,84
 1281 1324 1281 1324 1327 1373.5 c 128,-1,85
 1373 1423 1373 1423 1428 1453.5 c 128,-1,86
 1483 1484 1483 1484 1548 1484 c 0,87,88
 1577 1484 1577 1484 1601.5 1472.5 c 128,-1,89
 1626 1461 1626 1461 1644 1442 c 128,-1,90
 1662 1423 1662 1423 1672.5 1397.5 c 128,-1,91
 1683 1372 1683 1372 1683 1344 c 0,92,93
 1683 1282 1683 1282 1655 1226.5 c 128,-1,94
 1627 1171 1627 1171 1581.5 1123 c 128,-1,95
 1536 1075 1536 1075 1478.5 1033 c 128,-1,96
 1421 991 1421 991 1361 955.5 c 128,-1,97
 1301 920 1301 920 1244 890.5 c 128,-1,98
 1187 861 1187 861 1144 838 c 1,99,-1
 964 414 l 1,100,-1
 963 413 l 1,101,102
 951 386 951 386 937 351.5 c 128,-1,103
 923 317 923 317 911.5 280.5 c 128,-1,104
 900 244 900 244 892 208.5 c 128,-1,105
 884 173 884 173 884 143 c 0,106,107
 884 134 884 134 884.5 123 c 128,-1,108
 885 112 885 112 888 103 c 128,-1,109
 891 94 891 94 898 87.5 c 128,-1,110
 905 81 905 81 917 81 c 0,111,112
 957 81 957 81 1002.5 106 c 128,-1,113
 1048 131 1048 131 1094.5 168 c 128,-1,114
 1141 205 1141 205 1185 248.5 c 128,-1,115
 1229 292 1229 292 1266 329 c 128,-1,116
 1303 366 1303 366 1329.5 391 c 128,-1,117
 1356 416 1356 416 1367 416 c 0,0,1
1201 970 m 1,118,119
 1230 986 1230 986 1271 1008 c 128,-1,120
 1312 1030 1312 1030 1355.5 1057.5 c 128,-1,121
 1399 1085 1399 1085 1441.5 1116.5 c 128,-1,122
 1484 1148 1484 1148 1518 1183.5 c 128,-1,123
 1552 1219 1552 1219 1573 1258 c 128,-1,124
 1594 1297 1594 1297 1594 1338 c 0,125,126
 1594 1361 1594 1361 1581 1378.5 c 128,-1,127
 1568 1396 1568 1396 1543 1396 c 0,128,129
 1501 1396 1501 1396 1462.5 1373 c 128,-1,130
 1424 1350 1424 1350 1390.5 1313 c 128,-1,131
 1357 1276 1357 1276 1328 1229 c 128,-1,132
 1299 1182 1299 1182 1275 1135 c 128,-1,133
 1251 1088 1251 1088 1232.5 1044.5 c 128,-1,134
 1214 1001 1214 1001 1201 970 c 1,118,119
429 445 m 1,135,136
 402 430 402 430 366.5 412.5 c 128,-1,137
 331 395 331 395 293 374 c 128,-1,138
 255 353 255 353 218.5 328 c 128,-1,139
 182 303 182 303 153 273.5 c 128,-1,140
 124 244 124 244 106.5 210 c 128,-1,141
 89 176 89 176 89 137 c 0,142,143
 89 126 89 126 91 113.5 c 128,-1,144
 93 101 93 101 98.5 90.5 c 128,-1,145
 104 80 104 80 112.5 72.5 c 128,-1,146
 121 65 121 65 135 65 c 2,147,-1
 139 65 l 2,148,149
 179 65 179 65 213 85 c 128,-1,150
 247 105 247 105 276 137 c 128,-1,151
 305 169 305 169 328.5 210 c 128,-1,152
 352 251 352 251 371 293.5 c 128,-1,153
 390 336 390 336 404.5 375.5 c 128,-1,154
 419 415 419 415 429 445 c 1,135,136
EndSplineSet
EndChar

StartChar: I
Encoding: 73 73 42
Width: 846
Flags: W
LayerCount: 2
Fore
SplineSet
340 1176 m 0,0,1
 314 1176 314 1176 304 1191.5 c 128,-1,2
 294 1207 294 1207 294 1230 c 0,3,4
 294 1299 294 1299 330 1348 c 128,-1,5
 366 1397 366 1397 421 1428 c 128,-1,6
 476 1459 476 1459 540.5 1473.5 c 128,-1,7
 605 1488 605 1488 662 1488 c 0,8,9
 707 1488 707 1488 752.5 1486.5 c 128,-1,10
 798 1485 798 1485 843 1484 c 0,11,12
 862 1484 862 1484 875 1471 c 128,-1,13
 888 1458 888 1458 888 1439 c 0,14,15
 888 1437 888 1437 877.5 1406.5 c 128,-1,16
 867 1376 867 1376 849 1324.5 c 128,-1,17
 831 1273 831 1273 807 1205.5 c 128,-1,18
 783 1138 783 1138 755.5 1061 c 128,-1,19
 728 984 728 984 699 902 c 128,-1,20
 670 820 670 820 642 741 c 128,-1,21
 614 662 614 662 588 590 c 128,-1,22
 562 518 562 518 541 460.5 c 128,-1,23
 520 403 520 403 506 364 c 128,-1,24
 492 325 492 325 488 312 c 0,25,26
 487 311 487 311 487 310 c 0,27,28
 470 262 470 262 447 214.5 c 128,-1,29
 424 167 424 167 394 125 c 1,30,31
 454 150 454 150 505 179.5 c 128,-1,32
 556 209 556 209 602 243.5 c 128,-1,33
 648 278 648 278 691.5 317.5 c 128,-1,34
 735 357 735 357 780 402 c 0,35,36
 794 416 794 416 811 416 c 0,37,38
 831 416 831 416 844 403 c 128,-1,39
 857 390 857 390 857 370 c 0,40,41
 857 354 857 354 846 341 c 0,42,43
 812 299 812 299 764.5 256 c 128,-1,44
 717 213 717 213 661 173 c 128,-1,45
 605 133 605 133 542.5 98 c 128,-1,46
 480 63 480 63 417 37.5 c 128,-1,47
 354 12 354 12 291.5 -3 c 128,-1,48
 229 -18 229 -18 173 -18 c 0,49,50
 135 -18 135 -18 103.5 -5.5 c 128,-1,51
 72 7 72 7 49 29.5 c 128,-1,52
 26 52 26 52 13.5 83.5 c 128,-1,53
 1 115 1 115 1 153 c 0,54,55
 1 166 1 166 2 181.5 c 128,-1,56
 3 197 3 197 8 210 c 128,-1,57
 13 223 13 223 23 231.5 c 128,-1,58
 33 240 33 240 51 240 c 0,59,60
 70 240 70 240 82.5 227 c 128,-1,61
 95 214 95 214 95 195 c 0,62,63
 95 184 95 184 91.5 174 c 128,-1,64
 88 164 88 164 88 153 c 0,65,66
 88 112 88 112 111.5 91.5 c 128,-1,67
 135 71 135 71 174 71 c 0,68,69
 216 71 216 71 253 101 c 128,-1,70
 290 131 290 131 319.5 174 c 128,-1,71
 349 217 349 217 370.5 263.5 c 128,-1,72
 392 310 392 310 404 342 c 2,73,-1
 780 1396 l 1,74,75
 745 1396 745 1396 711 1397.5 c 128,-1,76
 677 1399 677 1399 642 1399 c 0,77,78
 604 1399 604 1399 560.5 1389 c 128,-1,79
 517 1379 517 1379 479 1358.5 c 128,-1,80
 441 1338 441 1338 414 1306 c 128,-1,81
 387 1274 387 1274 383 1230 c 0,82,83
 381 1210 381 1210 373 1193 c 128,-1,84
 365 1176 365 1176 340 1176 c 0,0,1
EndSplineSet
EndChar

StartChar: M
Encoding: 77 77 46
Width: 2032
Flags: W
LayerCount: 2
Fore
SplineSet
1998 416 m 0,0,1
 2015 416 2015 416 2029.5 403.5 c 128,-1,2
 2044 391 2044 391 2044 373 c 0,3,4
 2044 354 2044 354 2032 341 c 0,5,6
 2009 314 2009 314 1974.5 277.5 c 128,-1,7
 1940 241 1940 241 1898 202.5 c 128,-1,8
 1856 164 1856 164 1810 126.5 c 128,-1,9
 1764 89 1764 89 1717 59.5 c 128,-1,10
 1670 30 1670 30 1624.5 12 c 128,-1,11
 1579 -6 1579 -6 1540 -6 c 0,12,13
 1509 -6 1509 -6 1487 5.5 c 128,-1,14
 1465 17 1465 17 1450.5 36.5 c 128,-1,15
 1436 56 1436 56 1429.5 81.5 c 128,-1,16
 1423 107 1423 107 1423 135 c 0,17,18
 1423 177 1423 177 1431 216.5 c 128,-1,19
 1439 256 1439 256 1451.5 294.5 c 128,-1,20
 1464 333 1464 333 1479 371 c 128,-1,21
 1494 409 1494 409 1508 447 c 2,22,-1
 1775 1172 l 1,23,-1
 894 0 l 2,24,25
 888 -8 888 -8 879 -13 c 128,-1,26
 870 -18 870 -18 860 -18 c 0,27,28
 843 -18 843 -18 828.5 -5.5 c 128,-1,29
 814 7 814 7 814 25 c 0,30,31
 814 28 814 28 830.5 76 c 128,-1,32
 847 124 847 124 874 201 c 128,-1,33
 901 278 901 278 935.5 376 c 128,-1,34
 970 474 970 474 1007.5 577.5 c 128,-1,35
 1045 681 1045 681 1081 782.5 c 128,-1,36
 1117 884 1117 884 1147 968 c 128,-1,37
 1177 1052 1177 1052 1198 1110 c 128,-1,38
 1219 1168 1219 1168 1225 1185 c 1,39,-1
 550 300 l 2,40,41
 517 257 517 257 469 202.5 c 128,-1,42
 421 148 421 148 364.5 99.5 c 128,-1,43
 308 51 308 51 246.5 18 c 128,-1,44
 185 -15 185 -15 125 -15 c 0,45,46
 63 -15 63 -15 32 19.5 c 128,-1,47
 1 54 1 54 1 114 c 0,48,49
 1 128 1 128 3 149.5 c 128,-1,50
 5 171 5 171 11 191.5 c 128,-1,51
 17 212 17 212 28.5 226.5 c 128,-1,52
 40 241 40 241 60 241 c 0,53,54
 77 241 77 241 91.5 228 c 128,-1,55
 106 215 106 215 106 197 c 0,56,57
 106 175 106 175 97.5 154.5 c 128,-1,58
 89 134 89 134 89 113 c 0,59,60
 89 96 89 96 96.5 84 c 128,-1,61
 104 72 104 72 124 72 c 0,62,63
 155 72 155 72 189 86.5 c 128,-1,64
 223 101 223 101 257 125 c 128,-1,65
 291 149 291 149 323.5 179.5 c 128,-1,66
 356 210 356 210 385 241 c 128,-1,67
 414 272 414 272 438.5 301.5 c 128,-1,68
 463 331 463 331 480 354 c 2,69,-1
 1326 1464 l 2,70,71
 1334 1474 1334 1474 1341.5 1479 c 128,-1,72
 1349 1484 1349 1484 1363 1484 c 0,73,74
 1380 1484 1380 1484 1394 1472 c 128,-1,75
 1408 1460 1408 1460 1408 1442 c 0,76,77
 1408 1439 1408 1439 1397.5 1407 c 128,-1,78
 1387 1375 1387 1375 1368.5 1322.5 c 128,-1,79
 1350 1270 1350 1270 1325.5 1200.5 c 128,-1,80
 1301 1131 1301 1131 1273.5 1053 c 128,-1,81
 1246 975 1246 975 1216 891.5 c 128,-1,82
 1186 808 1186 808 1157 727.5 c 128,-1,83
 1128 647 1128 647 1101.5 573.5 c 128,-1,84
 1075 500 1075 500 1054 441 c 128,-1,85
 1033 382 1033 382 1018.5 341.5 c 128,-1,86
 1004 301 1004 301 999 287 c 1,87,-1
 1884 1466 l 2,88,89
 1890 1474 1890 1474 1900 1480 c 128,-1,90
 1910 1486 1910 1486 1921 1486 c 0,91,92
 1938 1486 1938 1486 1952 1473 c 128,-1,93
 1966 1460 1966 1460 1966 1443 c 0,94,95
 1966 1433 1966 1433 1963 1426 c 2,96,-1
 1777 921 l 2,97,98
 1768 898 1768 898 1752 857 c 128,-1,99
 1736 816 1736 816 1716 764 c 128,-1,100
 1696 712 1696 712 1673 652 c 128,-1,101
 1650 592 1650 592 1627 530.5 c 128,-1,102
 1604 469 1604 469 1583 409 c 128,-1,103
 1562 349 1562 349 1546 297 c 128,-1,104
 1530 245 1530 245 1520.5 204 c 128,-1,105
 1511 163 1511 163 1511 140 c 0,106,107
 1511 131 1511 131 1511.5 121 c 128,-1,108
 1512 111 1512 111 1515.5 102 c 128,-1,109
 1519 93 1519 93 1525.5 87 c 128,-1,110
 1532 81 1532 81 1544 81 c 0,111,112
 1583 81 1583 81 1628.5 106 c 128,-1,113
 1674 131 1674 131 1720.5 168 c 128,-1,114
 1767 205 1767 205 1811.5 248.5 c 128,-1,115
 1856 292 1856 292 1893.5 329 c 128,-1,116
 1931 366 1931 366 1958.5 391 c 128,-1,117
 1986 416 1986 416 1998 416 c 0,0,1
EndSplineSet
EndChar

StartChar: O
Encoding: 79 79 48
Width: 1336
Flags: W
LayerCount: 2
Fore
SplineSet
805 1486 m 0,0,1
 860 1486 860 1486 912 1472 c 128,-1,2
 964 1458 964 1458 1008.5 1431 c 128,-1,3
 1053 1404 1053 1404 1088 1364.5 c 128,-1,4
 1123 1325 1123 1325 1146 1273 c 1,5,6
 1191 1273 1191 1273 1234.5 1280 c 128,-1,7
 1278 1287 1278 1287 1320 1302 c 0,8,9
 1327 1305 1327 1305 1346 1315 c 128,-1,10
 1365 1325 1365 1325 1386 1336 c 128,-1,11
 1407 1347 1407 1347 1424 1356 c 128,-1,12
 1441 1365 1441 1365 1444 1365 c 0,13,14
 1462 1365 1462 1365 1475 1351.5 c 128,-1,15
 1488 1338 1488 1338 1488 1320 c 0,16,17
 1488 1299 1488 1299 1469.5 1281 c 128,-1,18
 1451 1263 1451 1263 1422 1248.5 c 128,-1,19
 1393 1234 1393 1234 1357.5 1223 c 128,-1,20
 1322 1212 1322 1212 1288 1204 c 128,-1,21
 1254 1196 1254 1196 1224.5 1191.5 c 128,-1,22
 1195 1187 1195 1187 1179 1186 c 1,23,24
 1187 1137 1187 1137 1194.5 1092.5 c 128,-1,25
 1202 1048 1202 1048 1202 997 c 0,26,27
 1202 926 1202 926 1189 844 c 128,-1,28
 1176 762 1176 762 1153.5 679 c 128,-1,29
 1131 596 1131 596 1101 518.5 c 128,-1,30
 1071 441 1071 441 1036 380 c 0,31,32
 1004 323 1004 323 963.5 269 c 128,-1,33
 923 215 923 215 875 170 c 0,34,35
 872 167 872 167 869 165 c 128,-1,36
 866 163 866 163 864 159 c 1,37,38
 933 183 933 183 985.5 205.5 c 128,-1,39
 1038 228 1038 228 1083.5 255.5 c 128,-1,40
 1129 283 1129 283 1173.5 318.5 c 128,-1,41
 1218 354 1218 354 1271 403 c 0,42,43
 1278 409 1278 409 1285.5 413 c 128,-1,44
 1293 417 1293 417 1303 417 c 0,45,46
 1320 417 1320 417 1334.5 404.5 c 128,-1,47
 1349 392 1349 392 1349 374 c 0,48,49
 1349 355 1349 355 1336 341 c 0,50,51
 1279 276 1279 276 1211.5 227.5 c 128,-1,52
 1144 179 1144 179 1069 143 c 128,-1,53
 994 107 994 107 914 81.5 c 128,-1,54
 834 56 834 56 753 36 c 0,55,56
 668 16 668 16 584 -1 c 128,-1,57
 500 -18 500 -18 412 -18 c 0,58,59
 312 -18 312 -18 235 11 c 128,-1,60
 158 40 158 40 106 94.5 c 128,-1,61
 54 149 54 149 27 227.5 c 128,-1,62
 0 306 0 306 0 405 c 0,63,64
 0 482 0 482 15 569 c 128,-1,65
 30 656 30 656 58.5 746.5 c 128,-1,66
 87 837 87 837 128.5 927 c 128,-1,67
 170 1017 170 1017 222.5 1099 c 128,-1,68
 275 1181 275 1181 339 1252 c 128,-1,69
 403 1323 403 1323 476.5 1375 c 128,-1,70
 550 1427 550 1427 632.5 1456.5 c 128,-1,71
 715 1486 715 1486 805 1486 c 0,0,1
1086 1185 m 1,72,73
 1060 1186 1060 1186 1036.5 1192 c 128,-1,74
 1013 1198 1013 1198 995.5 1210.5 c 128,-1,75
 978 1223 978 1223 968 1243.5 c 128,-1,76
 958 1264 958 1264 958 1294 c 0,77,78
 958 1303 958 1303 964.5 1320 c 128,-1,79
 971 1337 971 1337 976 1345 c 1,80,81
 935 1374 935 1374 895 1385.5 c 128,-1,82
 855 1397 855 1397 805 1397 c 0,83,84
 699 1397 699 1397 604.5 1349 c 128,-1,85
 510 1301 510 1301 430.5 1221 c 128,-1,86
 351 1141 351 1141 288 1038 c 128,-1,87
 225 935 225 935 181 824.5 c 128,-1,88
 137 714 137 714 113.5 605 c 128,-1,89
 90 496 90 496 90 405 c 0,90,91
 90 243 90 243 167.5 156.5 c 128,-1,92
 245 70 245 70 412 70 c 0,93,94
 527 70 527 70 623.5 111 c 128,-1,95
 720 152 720 152 798 222 c 128,-1,96
 876 292 876 292 935 384.5 c 128,-1,97
 994 477 994 477 1033.5 580 c 128,-1,98
 1073 683 1073 683 1093 790 c 128,-1,99
 1113 897 1113 897 1113 997 c 0,100,101
 1113 1045 1113 1045 1107 1092 c 128,-1,102
 1101 1139 1101 1139 1086 1185 c 1,72,73
EndSplineSet
EndChar

StartChar: P
Encoding: 80 80 49
Width: 1038
Flags: W
LayerCount: 2
Fore
SplineSet
874 1394 m 1,0,-1
 689 877 l 1,1,2
 707 861 707 861 730 848 c 128,-1,3
 753 835 753 835 778 826 c 128,-1,4
 803 817 803 817 829 812 c 128,-1,5
 855 807 855 807 879 807 c 0,6,7
 942 807 942 807 997 825 c 128,-1,8
 1052 843 1052 843 1093 878 c 128,-1,9
 1134 913 1134 913 1157.5 964.5 c 128,-1,10
 1181 1016 1181 1016 1181 1082 c 0,11,12
 1181 1146 1181 1146 1156.5 1201.5 c 128,-1,13
 1132 1257 1132 1257 1090.5 1299 c 128,-1,14
 1049 1341 1049 1341 993 1366 c 128,-1,15
 937 1391 937 1391 874 1394 c 1,0,-1
658 789 m 1,16,-1
 505 361 l 2,17,18
 481 294 481 294 454 232 c 128,-1,19
 427 170 427 170 389 110 c 1,20,21
 458 128 458 128 538 158 c 128,-1,22
 618 188 618 188 696.5 226.5 c 128,-1,23
 775 265 775 265 847 309.5 c 128,-1,24
 919 354 919 354 972 402 c 0,25,26
 979 408 979 408 986.5 412 c 128,-1,27
 994 416 994 416 1003 416 c 0,28,29
 1023 416 1023 416 1036 403 c 128,-1,30
 1049 390 1049 390 1049 370 c 0,31,32
 1049 348 1049 348 1023 322 c 128,-1,33
 997 296 997 296 953 267 c 128,-1,34
 909 238 909 238 852.5 208 c 128,-1,35
 796 178 796 178 734 150 c 128,-1,36
 672 122 672 122 609.5 96.5 c 128,-1,37
 547 71 547 71 493 51 c 128,-1,38
 439 31 439 31 396.5 18 c 128,-1,39
 354 5 354 5 333 1 c 0,40,41
 294 -7 294 -7 253.5 -12 c 128,-1,42
 213 -17 213 -17 173 -17 c 0,43,44
 95 -17 95 -17 48 28.5 c 128,-1,45
 1 74 1 74 1 153 c 0,46,47
 1 166 1 166 2 181.5 c 128,-1,48
 3 197 3 197 8 210 c 128,-1,49
 13 223 13 223 23 231.5 c 128,-1,50
 33 240 33 240 51 240 c 0,51,52
 70 240 70 240 82.5 227 c 128,-1,53
 95 214 95 214 95 195 c 0,54,55
 95 184 95 184 91.5 174 c 128,-1,56
 88 164 88 164 88 153 c 0,57,58
 88 112 88 112 111.5 91.5 c 128,-1,59
 135 71 135 71 174 71 c 0,60,61
 219 71 219 71 257.5 105.5 c 128,-1,62
 296 140 296 140 327 188.5 c 128,-1,63
 358 237 358 237 380.5 288.5 c 128,-1,64
 403 340 403 340 415 375 c 2,65,-1
 778 1390 l 1,66,67
 710 1370 710 1370 665 1347.5 c 128,-1,68
 620 1325 620 1325 584.5 1295.5 c 128,-1,69
 549 1266 549 1266 516.5 1227.5 c 128,-1,70
 484 1189 484 1189 441 1138 c 0,71,72
 425 1119 425 1119 402 1119 c 0,73,74
 384 1119 384 1119 372 1133.5 c 128,-1,75
 360 1148 360 1148 360 1165 c 0,76,77
 360 1171 360 1171 362.5 1177.5 c 128,-1,78
 365 1184 365 1184 368 1189 c 0,79,80
 409 1252 409 1252 461.5 1306 c 128,-1,81
 514 1360 514 1360 575.5 1399.5 c 128,-1,82
 637 1439 637 1439 707 1462 c 128,-1,83
 777 1485 777 1485 854 1485 c 0,84,85
 938 1485 938 1485 1013.5 1454.5 c 128,-1,86
 1089 1424 1089 1424 1146 1370 c 128,-1,87
 1203 1316 1203 1316 1236.5 1242.5 c 128,-1,88
 1270 1169 1270 1169 1270 1084 c 0,89,90
 1270 1002 1270 1002 1239.5 935 c 128,-1,91
 1209 868 1209 868 1156.5 820 c 128,-1,92
 1104 772 1104 772 1033.5 745.5 c 128,-1,93
 963 719 963 719 884 719 c 0,94,95
 823 719 823 719 766 738 c 128,-1,96
 709 757 709 757 658 789 c 1,16,-1
EndSplineSet
EndChar

StartChar: Q
Encoding: 81 81 50
Width: 1296
Flags: W
LayerCount: 2
Fore
SplineSet
1262 418 m 0,0,1
 1279 418 1279 418 1292.5 405.5 c 128,-1,2
 1306 393 1306 393 1306 376 c 0,3,4
 1306 357 1306 357 1294 344 c 2,5,-1
 896 -85 l 1,6,-1
 665 -740 l 2,7,8
 660 -754 660 -754 648.5 -761.5 c 128,-1,9
 637 -769 637 -769 623 -769 c 0,10,11
 604 -769 604 -769 591 -757 c 128,-1,12
 578 -745 578 -745 578 -725 c 0,13,14
 578 -722 578 -722 592.5 -679.5 c 128,-1,15
 607 -637 607 -637 630.5 -569 c 128,-1,16
 654 -501 654 -501 684.5 -414.5 c 128,-1,17
 715 -328 715 -328 747.5 -236 c 128,-1,18
 780 -144 780 -144 812 -54.5 c 128,-1,19
 844 35 844 35 870.5 109.5 c 128,-1,20
 897 184 897 184 915.5 235.5 c 128,-1,21
 934 287 934 287 939 302 c 1,22,23
 886 245 886 245 821.5 187.5 c 128,-1,24
 757 130 757 130 684 84.5 c 128,-1,25
 611 39 611 39 531.5 10.5 c 128,-1,26
 452 -18 452 -18 370 -18 c 0,27,28
 280 -18 280 -18 211.5 2 c 128,-1,29
 143 22 143 22 96 64.5 c 128,-1,30
 49 107 49 107 25 172.5 c 128,-1,31
 1 238 1 238 1 329 c 0,32,33
 1 419 1 419 28.5 511 c 128,-1,34
 56 603 56 603 103.5 693 c 128,-1,35
 151 783 151 783 213.5 867.5 c 128,-1,36
 276 952 276 952 347 1027.5 c 128,-1,37
 418 1103 418 1103 493 1166 c 128,-1,38
 568 1229 568 1229 639 1276 c 0,39,40
 810 1388 810 1388 995.5 1437 c 128,-1,41
 1181 1486 1181 1486 1384 1486 c 0,42,43
 1404 1486 1404 1486 1418 1472 c 128,-1,44
 1432 1458 1432 1458 1432 1437 c 0,45,46
 1432 1435 1432 1435 1420 1400 c 128,-1,47
 1408 1365 1408 1365 1387.5 1305.5 c 128,-1,48
 1367 1246 1367 1246 1339 1167 c 128,-1,49
 1311 1088 1311 1088 1279.5 998.5 c 128,-1,50
 1248 909 1248 909 1214.5 814 c 128,-1,51
 1181 719 1181 719 1148.5 627 c 128,-1,52
 1116 535 1116 535 1086.5 451 c 128,-1,53
 1057 367 1057 367 1033 300 c 128,-1,54
 1009 233 1009 233 993 188 c 128,-1,55
 977 143 977 143 972 128 c 1,56,-1
 1228 404 l 2,57,58
 1241 418 1241 418 1262 418 c 0,0,1
1324 1396 m 1,59,60
 1143 1388 1143 1388 993.5 1342.5 c 128,-1,61
 844 1297 844 1297 715 1217.5 c 128,-1,62
 586 1138 586 1138 473.5 1026.5 c 128,-1,63
 361 915 361 915 255 774 c 0,64,65
 220 727 220 727 189.5 671.5 c 128,-1,66
 159 616 159 616 136.5 556 c 128,-1,67
 114 496 114 496 101.5 434.5 c 128,-1,68
 89 373 89 373 89 314 c 0,69,70
 89 247 89 247 110 200.5 c 128,-1,71
 131 154 131 154 168 125 c 128,-1,72
 205 96 205 96 256.5 83 c 128,-1,73
 308 70 308 70 370 70 c 0,74,75
 443 70 443 70 518 98.5 c 128,-1,76
 593 127 593 127 664 175 c 128,-1,77
 735 223 735 223 800 286.5 c 128,-1,78
 865 350 865 350 919 419 c 128,-1,79
 973 488 973 488 1013.5 559 c 128,-1,80
 1054 630 1054 630 1077 694 c 0,81,82
 1140 871 1140 871 1201 1045 c 128,-1,83
 1262 1219 1262 1219 1324 1396 c 1,59,60
EndSplineSet
EndChar

StartChar: S
Encoding: 83 83 52
Width: 846
Flags: W
LayerCount: 2
Fore
SplineSet
51 240 m 0,0,1
 70 240 70 240 82.5 227 c 128,-1,2
 95 214 95 214 95 195 c 0,3,4
 95 184 95 184 91.5 174 c 128,-1,5
 88 164 88 164 88 153 c 0,6,7
 88 116 88 116 109 93.5 c 128,-1,8
 130 71 130 71 168 71 c 0,9,10
 198 71 198 71 224.5 84.5 c 128,-1,11
 251 98 251 98 274.5 120.5 c 128,-1,12
 298 143 298 143 317.5 171.5 c 128,-1,13
 337 200 337 200 353.5 230 c 128,-1,14
 370 260 370 260 382.5 289 c 128,-1,15
 395 318 395 318 404 341 c 1,16,-1
 404 344 l 1,17,-1
 539 713 l 1,18,19
 476 696 476 696 412 684.5 c 128,-1,20
 348 673 348 673 282 673 c 0,21,22
 264 673 264 673 250.5 685 c 128,-1,23
 237 697 237 697 237 716 c 0,24,25
 237 737 237 737 248.5 748 c 128,-1,26
 260 759 260 759 280 762 c 0,27,28
 328 768 328 768 362 771.5 c 128,-1,29
 396 775 396 775 428 780 c 128,-1,30
 460 785 460 785 494.5 794 c 128,-1,31
 529 803 529 803 578 821 c 1,32,-1
 695 1143 l 2,33,34
 706 1174 706 1174 723 1212 c 128,-1,35
 740 1250 740 1250 761 1288.5 c 128,-1,36
 782 1327 782 1327 808.5 1363 c 128,-1,37
 835 1399 835 1399 866 1427 c 128,-1,38
 897 1455 897 1455 932.5 1472 c 128,-1,39
 968 1489 968 1489 1008 1489 c 0,40,41
 1042 1489 1042 1489 1069.5 1477 c 128,-1,42
 1097 1465 1097 1465 1116 1444 c 128,-1,43
 1135 1423 1135 1423 1145 1394.5 c 128,-1,44
 1155 1366 1155 1366 1155 1333 c 0,45,46
 1155 1273 1155 1273 1131.5 1212.5 c 128,-1,47
 1108 1152 1108 1152 1069 1095 c 128,-1,48
 1030 1038 1030 1038 978.5 985.5 c 128,-1,49
 927 933 927 933 870.5 889 c 128,-1,50
 814 845 814 845 756.5 810 c 128,-1,51
 699 775 699 775 648 754 c 1,52,-1
 488 314 l 1,53,-1
 488 312 l 1,54,55
 470 261 470 261 447 215.5 c 128,-1,56
 424 170 424 170 394 125 c 1,57,58
 452 148 452 148 503.5 178 c 128,-1,59
 555 208 555 208 602 243.5 c 128,-1,60
 649 279 649 279 692.5 319 c 128,-1,61
 736 359 736 359 780 402 c 0,62,63
 794 416 794 416 811 416 c 0,64,65
 831 416 831 416 844 403 c 128,-1,66
 857 390 857 390 857 370 c 0,67,68
 857 354 857 354 846 341 c 0,69,70
 811 298 811 298 764 255 c 128,-1,71
 717 212 717 212 661 172.5 c 128,-1,72
 605 133 605 133 543.5 98.5 c 128,-1,73
 482 64 482 64 419 38 c 128,-1,74
 356 12 356 12 294 -2.5 c 128,-1,75
 232 -17 232 -17 176 -17 c 0,76,77
 137 -17 137 -17 105 -5.5 c 128,-1,78
 73 6 73 6 49.5 28 c 128,-1,79
 26 50 26 50 13.5 81.5 c 128,-1,80
 1 113 1 113 1 153 c 0,81,82
 1 166 1 166 2.5 181 c 128,-1,83
 4 196 4 196 9 209 c 128,-1,84
 14 222 14 222 24 231 c 128,-1,85
 34 240 34 240 51 240 c 0,0,1
692 875 m 1,86,87
 748 907 748 907 807 952.5 c 128,-1,88
 866 998 866 998 917.5 1052.5 c 128,-1,89
 969 1107 969 1107 1007.5 1169.5 c 128,-1,90
 1046 1232 1046 1232 1061 1298 c 0,91,92
 1066 1318 1066 1318 1066 1334 c 0,93,94
 1066 1360 1066 1360 1053.5 1380.5 c 128,-1,95
 1041 1401 1041 1401 1012 1401 c 0,96,97
 970 1401 970 1401 932.5 1368.5 c 128,-1,98
 895 1336 895 1336 862 1285 c 128,-1,99
 829 1234 829 1234 801.5 1172 c 128,-1,100
 774 1110 774 1110 752.5 1051.5 c 128,-1,101
 731 993 731 993 715.5 945.5 c 128,-1,102
 700 898 700 898 692 875 c 1,86,87
EndSplineSet
EndChar

StartChar: V
Encoding: 86 86 55
Width: 1025
Flags: W
LayerCount: 2
Fore
SplineSet
130 1058 m 0,0,1
 110 1058 110 1058 96.5 1070.5 c 128,-1,2
 83 1083 83 1083 83 1103 c 0,3,4
 83 1121 83 1121 96 1134 c 2,5,-1
 440 1473 l 1,6,7
 455 1486 455 1486 471 1486 c 0,8,9
 490 1486 490 1486 502.5 1472 c 128,-1,10
 515 1458 515 1458 515 1439 c 0,11,12
 515 1434 515 1434 513 1426 c 2,13,-1
 124 336 l 2,14,15
 111 300 111 300 100.5 266 c 128,-1,16
 90 232 90 232 90 192 c 0,17,18
 90 154 90 154 101.5 130.5 c 128,-1,19
 113 107 113 107 133.5 93.5 c 128,-1,20
 154 80 154 80 182 75 c 128,-1,21
 210 70 210 70 243 70 c 0,22,23
 320 70 320 70 388.5 102 c 128,-1,24
 457 134 457 134 518 188.5 c 128,-1,25
 579 243 579 243 632 316 c 128,-1,26
 685 389 685 389 730.5 471 c 128,-1,27
 776 553 776 553 813 640.5 c 128,-1,28
 850 728 850 728 879.5 811.5 c 128,-1,29
 909 895 909 895 930.5 970 c 128,-1,30
 952 1045 952 1045 966 1103 c 1,31,32
 943 1123 943 1123 934.5 1153 c 128,-1,33
 926 1183 926 1183 926 1212 c 0,34,35
 926 1228 926 1228 931.5 1254.5 c 128,-1,36
 937 1281 937 1281 947 1311.5 c 128,-1,37
 957 1342 957 1342 971 1373 c 128,-1,38
 985 1404 985 1404 1001.5 1429 c 128,-1,39
 1018 1454 1018 1454 1036.5 1470 c 128,-1,40
 1055 1486 1055 1486 1075 1486 c 0,41,42
 1098 1486 1098 1486 1109.5 1471 c 128,-1,43
 1121 1456 1121 1456 1121 1435 c 0,44,45
 1121 1413 1121 1413 1115 1376 c 128,-1,46
 1109 1339 1109 1339 1100.5 1297.5 c 128,-1,47
 1092 1256 1092 1256 1083.5 1217.5 c 128,-1,48
 1075 1179 1075 1179 1070 1154 c 1,49,50
 1105 1154 1105 1154 1143 1167 c 128,-1,51
 1181 1180 1181 1180 1214.5 1196 c 128,-1,52
 1248 1212 1248 1212 1274 1225 c 128,-1,53
 1300 1238 1300 1238 1311 1238 c 0,54,55
 1331 1238 1331 1238 1343 1225.5 c 128,-1,56
 1355 1213 1355 1213 1355 1193 c 0,57,58
 1355 1176 1355 1176 1336.5 1159.5 c 128,-1,59
 1318 1143 1318 1143 1289 1128 c 128,-1,60
 1260 1113 1260 1113 1224.5 1101 c 128,-1,61
 1189 1089 1189 1089 1155 1080.5 c 128,-1,62
 1121 1072 1121 1072 1092.5 1068 c 128,-1,63
 1064 1064 1064 1064 1049 1066 c 1,64,65
 1020 949 1020 949 980 823.5 c 128,-1,66
 940 698 940 698 885.5 576.5 c 128,-1,67
 831 455 831 455 761 344.5 c 128,-1,68
 691 234 691 234 603 149 c 1,69,70
 665 180 665 180 710 205 c 128,-1,71
 755 230 755 230 793.5 257.5 c 128,-1,72
 832 285 832 285 870.5 319 c 128,-1,73
 909 353 909 353 959 402 c 0,74,75
 973 416 973 416 991 416 c 0,76,77
 1008 416 1008 416 1022.5 403.5 c 128,-1,78
 1037 391 1037 391 1037 373 c 0,79,80
 1037 354 1037 354 1025 341 c 0,81,82
 953 258 953 258 863 191.5 c 128,-1,83
 773 125 773 125 672 78.5 c 128,-1,84
 571 32 571 32 462 7 c 128,-1,85
 353 -18 353 -18 243 -18 c 0,86,87
 192 -18 192 -18 148 -6 c 128,-1,88
 104 6 104 6 71 31.5 c 128,-1,89
 38 57 38 57 19 97 c 128,-1,90
 0 137 0 137 0 192 c 0,91,92
 0 240 0 240 12 280.5 c 128,-1,93
 24 321 24 321 40 366 c 2,94,-1
 364 1273 l 1,95,96
 356 1265 356 1265 337.5 1245.5 c 128,-1,97
 319 1226 319 1226 295.5 1202.5 c 128,-1,98
 272 1179 272 1179 246.5 1153.5 c 128,-1,99
 221 1128 221 1128 197.5 1106.5 c 128,-1,100
 174 1085 174 1085 156 1071.5 c 128,-1,101
 138 1058 138 1058 130 1058 c 0,0,1
EndSplineSet
EndChar

StartChar: X
Encoding: 88 88 57
Width: 1068
Flags: W
LayerCount: 2
Fore
SplineSet
782 848 m 1,0,1
 823 866 823 866 873 894 c 128,-1,2
 923 922 923 922 974.5 956.5 c 128,-1,3
 1026 991 1026 991 1074 1032.5 c 128,-1,4
 1122 1074 1122 1074 1159.5 1120 c 128,-1,5
 1197 1166 1197 1166 1220 1216 c 128,-1,6
 1243 1266 1243 1266 1243 1318 c 0,7,8
 1243 1328 1243 1328 1241.5 1342 c 128,-1,9
 1240 1356 1240 1356 1235 1368 c 128,-1,10
 1230 1380 1230 1380 1221 1388.5 c 128,-1,11
 1212 1397 1212 1397 1197 1397 c 0,12,13
 1153 1397 1153 1397 1110.5 1371 c 128,-1,14
 1068 1345 1068 1345 1028.5 1303 c 128,-1,15
 989 1261 989 1261 954 1208 c 128,-1,16
 919 1155 919 1155 890 1102 c 128,-1,17
 861 1049 861 1049 839 1000 c 128,-1,18
 817 951 817 951 805 917 c 0,19,20
 805 916 805 916 802 906.5 c 128,-1,21
 799 897 799 897 794.5 885 c 128,-1,22
 790 873 790 873 786.5 862 c 128,-1,23
 783 851 783 851 782 848 c 1,0,1
742 734 m 1,24,25
 728 696 728 696 712.5 656 c 128,-1,26
 697 616 697 616 682 575.5 c 128,-1,27
 667 535 667 535 653.5 494.5 c 128,-1,28
 640 454 640 454 630 415 c 1,29,-1
 629 413 l 1,30,31
 616 384 616 384 602 350 c 128,-1,32
 588 316 588 316 576 280 c 128,-1,33
 564 244 564 244 556.5 208 c 128,-1,34
 549 172 549 172 549 140 c 0,35,36
 549 131 549 131 549.5 120.5 c 128,-1,37
 550 110 550 110 553.5 101 c 128,-1,38
 557 92 557 92 563.5 86.5 c 128,-1,39
 570 81 570 81 582 81 c 0,40,41
 622 81 622 81 667.5 106 c 128,-1,42
 713 131 713 131 759.5 168 c 128,-1,43
 806 205 806 205 850 248.5 c 128,-1,44
 894 292 894 292 931 329 c 128,-1,45
 968 366 968 366 995 391 c 128,-1,46
 1022 416 1022 416 1034 416 c 0,47,48
 1051 416 1051 416 1065.5 403.5 c 128,-1,49
 1080 391 1080 391 1080 373 c 0,50,51
 1080 354 1080 354 1068 341 c 0,52,53
 1045 314 1045 314 1010.5 278 c 128,-1,54
 976 242 976 242 935 203 c 128,-1,55
 894 164 894 164 847.5 127 c 128,-1,56
 801 90 801 90 754.5 60 c 128,-1,57
 708 30 708 30 663 12 c 128,-1,58
 618 -6 618 -6 579 -6 c 0,59,60
 547 -6 547 -6 524.5 6 c 128,-1,61
 502 18 502 18 488 37.5 c 128,-1,62
 474 57 474 57 467.5 83 c 128,-1,63
 461 109 461 109 461 138 c 0,64,65
 461 169 461 169 466 199.5 c 128,-1,66
 471 230 471 230 479 260 c 1,67,68
 454 217 454 217 417.5 170 c 128,-1,69
 381 123 381 123 336.5 84 c 128,-1,70
 292 45 292 45 241 19.5 c 128,-1,71
 190 -6 190 -6 136 -6 c 0,72,73
 99 -6 99 -6 73 8 c 128,-1,74
 47 22 47 22 31 45.5 c 128,-1,75
 15 69 15 69 7.5 99.5 c 128,-1,76
 0 130 0 130 0 163 c 0,77,78
 0 231 0 231 28.5 294.5 c 128,-1,79
 57 358 57 358 104.5 415.5 c 128,-1,80
 152 473 152 473 213.5 523.5 c 128,-1,81
 275 574 275 574 340.5 616 c 128,-1,82
 406 658 406 658 471 690 c 128,-1,83
 536 722 536 722 590 744 c 1,84,85
 604 784 604 784 617 819.5 c 128,-1,86
 630 855 630 855 643.5 890 c 128,-1,87
 657 925 657 925 671 960 c 128,-1,88
 685 995 685 995 701 1034 c 0,89,90
 714 1065 714 1065 728 1104 c 128,-1,91
 742 1143 742 1143 754 1184.5 c 128,-1,92
 766 1226 766 1226 774 1267 c 128,-1,93
 782 1308 782 1308 782 1342 c 0,94,95
 782 1348 782 1348 781 1357 c 128,-1,96
 780 1366 780 1366 777.5 1375 c 128,-1,97
 775 1384 775 1384 769.5 1390.5 c 128,-1,98
 764 1397 764 1397 755 1397 c 0,99,100
 719 1397 719 1397 681 1377 c 128,-1,101
 643 1357 643 1357 609 1332.5 c 128,-1,102
 575 1308 575 1308 547.5 1288 c 128,-1,103
 520 1268 520 1268 506 1268 c 0,104,105
 488 1268 488 1268 474.5 1280 c 128,-1,106
 461 1292 461 1292 461 1311 c 0,107,108
 461 1328 461 1328 478 1347.5 c 128,-1,109
 495 1367 495 1367 522 1386.5 c 128,-1,110
 549 1406 549 1406 582 1424 c 128,-1,111
 615 1442 615 1442 647 1456 c 128,-1,112
 679 1470 679 1470 706.5 1478 c 128,-1,113
 734 1486 734 1486 750 1486 c 0,114,115
 783 1486 783 1486 806 1473 c 128,-1,116
 829 1460 829 1460 843.5 1439 c 128,-1,117
 858 1418 858 1418 864.5 1391 c 128,-1,118
 871 1364 871 1364 871 1335 c 256,119,120
 871 1306 871 1306 865 1276.5 c 128,-1,121
 859 1247 859 1247 853 1218 c 1,122,123
 874 1260 874 1260 911 1307.5 c 128,-1,124
 948 1355 948 1355 994.5 1394.5 c 128,-1,125
 1041 1434 1041 1434 1093.5 1460 c 128,-1,126
 1146 1486 1146 1486 1197 1486 c 0,127,128
 1231 1486 1231 1486 1256 1472 c 128,-1,129
 1281 1458 1281 1458 1298 1435.5 c 128,-1,130
 1315 1413 1315 1413 1323.5 1384 c 128,-1,131
 1332 1355 1332 1355 1332 1324 c 0,132,133
 1332 1252 1332 1252 1304 1187 c 128,-1,134
 1276 1122 1276 1122 1229.5 1064 c 128,-1,135
 1183 1006 1183 1006 1122.5 956 c 128,-1,136
 1062 906 1062 906 996.5 864.5 c 128,-1,137
 931 823 931 823 865 790 c 128,-1,138
 799 757 799 757 742 734 c 1,24,25
551 631 m 1,139,140
 509 612 509 612 459 584.5 c 128,-1,141
 409 557 409 557 357.5 522.5 c 128,-1,142
 306 488 306 488 257.5 447 c 128,-1,143
 209 406 209 406 171.5 360 c 128,-1,144
 134 314 134 314 111.5 264 c 128,-1,145
 89 214 89 214 89 161 c 0,146,147
 89 150 89 150 90.5 136 c 128,-1,148
 92 122 92 122 97 110 c 128,-1,149
 102 98 102 98 111 90 c 128,-1,150
 120 82 120 82 136 82 c 0,151,152
 180 82 180 82 222.5 108.5 c 128,-1,153
 265 135 265 135 304.5 177 c 128,-1,154
 344 219 344 219 379.5 272.5 c 128,-1,155
 415 326 415 326 443.5 379 c 128,-1,156
 472 432 472 432 493.5 480.5 c 128,-1,157
 515 529 515 529 527 562 c 0,158,159
 527 563 527 563 530 573 c 128,-1,160
 533 583 533 583 537.5 595 c 128,-1,161
 542 607 542 607 546 617.5 c 128,-1,162
 550 628 550 628 551 631 c 1,139,140
EndSplineSet
EndChar

StartChar: bracketleft
Encoding: 91 91 60
Width: 764
Flags: W
LayerCount: 2
Fore
SplineSet
1005 1815 m 0,0,1
 1005 1797 1005 1797 992 1784 c 128,-1,2
 979 1771 979 1771 961 1771 c 2,3,-1
 743 1771 l 1,4,-1
 63 -145 l 1,5,-1
 255 -145 l 2,6,7
 274 -145 274 -145 286.5 -158.5 c 128,-1,8
 299 -172 299 -172 299 -190 c 256,9,10
 299 -208 299 -208 286 -221 c 128,-1,11
 273 -234 273 -234 255 -234 c 2,12,-1
 -8 -234 l 1,13,-1
 -8 -233 l 1,14,15
 -23 -231 -23 -231 -34.5 -217.5 c 128,-1,16
 -46 -204 -46 -204 -46 -189 c 0,17,18
 -46 -186 -46 -186 -27.5 -132 c 128,-1,19
 -9 -78 -9 -78 23.5 14 c 128,-1,20
 56 106 56 106 99 228 c 128,-1,21
 142 350 142 350 191.5 488 c 128,-1,22
 241 626 241 626 293 773.5 c 128,-1,23
 345 921 345 921 396 1063 c 128,-1,24
 447 1205 447 1205 493.5 1335 c 128,-1,25
 540 1465 540 1465 576.5 1568.5 c 128,-1,26
 613 1672 613 1672 638 1741.5 c 128,-1,27
 663 1811 663 1811 671 1833 c 0,28,29
 676 1846 676 1846 687.5 1854 c 128,-1,30
 699 1862 699 1862 713 1862 c 2,31,-1
 961 1860 l 2,32,33
 980 1860 980 1860 992.5 1847 c 128,-1,34
 1005 1834 1005 1834 1005 1815 c 0,0,1
EndSplineSet
EndChar

StartChar: backslash
Encoding: 92 92 61
Width: 597
Flags: W
LayerCount: 2
Fore
SplineSet
24 1841 m 0,0,1
 24 1859 24 1859 37.5 1872 c 128,-1,2
 51 1885 51 1885 69 1885 c 0,3,4
 83 1885 83 1885 95.5 1876 c 128,-1,5
 108 1867 108 1867 112 1853 c 0,6,7
 119 1829 119 1829 139 1757.5 c 128,-1,8
 159 1686 159 1686 188.5 1581 c 128,-1,9
 218 1476 218 1476 255.5 1344 c 128,-1,10
 293 1212 293 1212 333.5 1067.5 c 128,-1,11
 374 923 374 923 416 773.5 c 128,-1,12
 458 624 458 624 497.5 483.5 c 128,-1,13
 537 343 537 343 571.5 219 c 128,-1,14
 606 95 606 95 631.5 1 c 128,-1,15
 657 -93 657 -93 672 -149.5 c 128,-1,16
 687 -206 687 -206 687 -210 c 0,17,18
 687 -229 687 -229 674.5 -242.5 c 128,-1,19
 662 -256 662 -256 642 -256 c 0,20,21
 627 -256 627 -256 615 -246.5 c 128,-1,22
 603 -237 603 -237 599 -223 c 0,23,24
 593 -200 593 -200 573 -129 c 128,-1,25
 553 -58 553 -58 523 47.5 c 128,-1,26
 493 153 493 153 456 285 c 128,-1,27
 419 417 419 417 378.5 562 c 128,-1,28
 338 707 338 707 296 857 c 128,-1,29
 254 1007 254 1007 214.5 1148 c 128,-1,30
 175 1289 175 1289 140.5 1413.5 c 128,-1,31
 106 1538 106 1538 80 1632 c 128,-1,32
 54 1726 54 1726 39 1782 c 128,-1,33
 24 1838 24 1838 24 1841 c 0,0,1
EndSplineSet
EndChar

StartChar: bracketright
Encoding: 93 93 62
Width: 746
Flags: W
LayerCount: 2
Fore
SplineSet
-46 -187 m 0,0,1
 -46 -169 -46 -169 -33 -156 c 128,-1,2
 -20 -143 -20 -143 -2 -143 c 2,3,-1
 216 -143 l 1,4,-1
 896 1773 l 1,5,-1
 704 1773 l 2,6,7
 685 1773 685 1773 672.5 1786.5 c 128,-1,8
 660 1800 660 1800 660 1818 c 256,9,10
 660 1836 660 1836 673 1849 c 128,-1,11
 686 1862 686 1862 704 1862 c 2,12,-1
 967 1862 l 1,13,-1
 967 1861 l 1,14,15
 982 1859 982 1859 993.5 1845.5 c 128,-1,16
 1005 1832 1005 1832 1005 1817 c 0,17,18
 1005 1814 1005 1814 986.5 1760 c 128,-1,19
 968 1706 968 1706 935.5 1614 c 128,-1,20
 903 1522 903 1522 860 1400 c 128,-1,21
 817 1278 817 1278 767.5 1140 c 128,-1,22
 718 1002 718 1002 666 854.5 c 128,-1,23
 614 707 614 707 563 565 c 128,-1,24
 512 423 512 423 465.5 293 c 128,-1,25
 419 163 419 163 382.5 59.5 c 128,-1,26
 346 -44 346 -44 321 -113.5 c 128,-1,27
 296 -183 296 -183 288 -205 c 0,28,29
 283 -218 283 -218 271.5 -226 c 128,-1,30
 260 -234 260 -234 246 -234 c 2,31,-1
 -2 -232 l 2,32,33
 -21 -232 -21 -232 -33.5 -219 c 128,-1,34
 -46 -206 -46 -206 -46 -187 c 0,0,1
EndSplineSet
EndChar

StartChar: asciicircum
Encoding: 94 94 63
Width: 996
Flags: W
LayerCount: 2
Fore
SplineSet
750 1380 m 1,0,-1
 299 1035 l 2,1,2
 287 1026 287 1026 272 1026 c 0,3,4
 256 1026 256 1026 242 1038.5 c 128,-1,5
 228 1051 228 1051 228 1067 c 0,6,7
 228 1092 228 1092 245 1105 c 2,8,-1
 730 1477 l 1,9,-1
 730 1478 l 1,10,-1
 733 1478 l 1,11,12
 743 1487 743 1487 760 1487 c 0,13,14
 782 1487 782 1487 794 1470 c 2,15,-1
 1055 1124 l 2,16,17
 1060 1119 1060 1119 1061.5 1111.5 c 128,-1,18
 1063 1104 1063 1104 1063 1097 c 0,19,20
 1063 1078 1063 1078 1050.5 1065 c 128,-1,21
 1038 1052 1038 1052 1019 1052 c 0,22,23
 995 1052 995 1052 982 1070 c 2,24,-1
 750 1380 l 1,0,-1
EndSplineSet
EndChar

StartChar: underscore
Encoding: 95 95 64
Width: 878
Flags: W
LayerCount: 2
Fore
SplineSet
-1 -294 m 2,0,1
 -19 -294 -19 -294 -32.5 -281 c 128,-1,2
 -46 -268 -46 -268 -46 -250 c 0,3,4
 -46 -231 -46 -231 -33 -218 c 128,-1,5
 -20 -205 -20 -205 -1 -205 c 2,6,-1
 874 -205 l 2,7,8
 893 -205 893 -205 905.5 -218.5 c 128,-1,9
 918 -232 918 -232 918 -250 c 256,10,11
 918 -268 918 -268 905 -281 c 128,-1,12
 892 -294 892 -294 874 -294 c 2,13,-1
 -1 -294 l 2,0,1
EndSplineSet
EndChar

StartChar: grave
Encoding: 96 96 65
Width: 1189
Flags: W
LayerCount: 2
Fore
SplineSet
600 918 m 0,0,1
 600 898 600 898 588 884.5 c 128,-1,2
 576 871 576 871 556 871 c 0,3,4
 537 871 537 871 508.5 891 c 128,-1,5
 480 911 480 911 448 942 c 128,-1,6
 416 973 416 973 383.5 1011 c 128,-1,7
 351 1049 351 1049 325.5 1085.5 c 128,-1,8
 300 1122 300 1122 283.5 1152.5 c 128,-1,9
 267 1183 267 1183 267 1199 c 0,10,11
 267 1218 267 1218 280 1231.5 c 128,-1,12
 293 1245 293 1245 312 1245 c 0,13,14
 339 1245 339 1245 352 1222 c 0,15,16
 378 1175 378 1175 400.5 1138.5 c 128,-1,17
 423 1102 423 1102 448 1070.5 c 128,-1,18
 473 1039 473 1039 504.5 1011 c 128,-1,19
 536 983 536 983 581 953 c 0,20,21
 600 940 600 940 600 918 c 0,0,1
EndSplineSet
EndChar

StartChar: f
Encoding: 102 102 71
Width: 671
Flags: W
LayerCount: 2
Fore
SplineSet
97 395 m 0,0,1
 114 395 114 395 128.5 382.5 c 128,-1,2
 143 370 143 370 143 352 c 0,3,4
 143 338 143 338 133 322.5 c 128,-1,5
 123 307 123 307 110.5 289 c 128,-1,6
 98 271 98 271 88 250.5 c 128,-1,7
 78 230 78 230 78 207 c 0,8,9
 78 193 78 193 85.5 180.5 c 128,-1,10
 93 168 93 168 108 168 c 1,11,-1
 270 634 l 1,12,-1
 -19 320 l 2,13,14
 -26 313 -26 313 -32.5 309.5 c 128,-1,15
 -39 306 -39 306 -49 306 c 0,16,17
 -66 306 -66 306 -81 318 c 128,-1,18
 -96 330 -96 330 -96 349 c 0,19,20
 -96 367 -96 367 -84 381 c 2,21,-1
 344 846 l 1,22,23
 360 893 360 893 380.5 960.5 c 128,-1,24
 401 1028 401 1028 428 1100.5 c 128,-1,25
 455 1173 455 1173 489.5 1245 c 128,-1,26
 524 1317 524 1317 569 1374 c 128,-1,27
 614 1431 614 1431 670 1466.5 c 128,-1,28
 726 1502 726 1502 796 1502 c 0,29,30
 835 1502 835 1502 863 1479 c 128,-1,31
 891 1456 891 1456 891 1414 c 0,32,33
 891 1378 891 1378 860 1322.5 c 128,-1,34
 829 1267 829 1267 781.5 1203.5 c 128,-1,35
 734 1140 734 1140 677 1074.5 c 128,-1,36
 620 1009 620 1009 568 953 c 128,-1,37
 516 897 516 897 476 855.5 c 128,-1,38
 436 814 436 814 422 799 c 1,39,-1
 200 162 l 1,40,41
 262 168 262 168 317.5 189.5 c 128,-1,42
 373 211 373 211 422.5 243 c 128,-1,43
 472 275 472 275 517 314.5 c 128,-1,44
 562 354 562 354 603 398 c 0,45,46
 611 406 611 406 618.5 410 c 128,-1,47
 626 414 626 414 637 414 c 0,48,49
 657 414 657 414 669 401.5 c 128,-1,50
 681 389 681 389 681 369 c 0,51,52
 681 354 681 354 671 341 c 0,53,54
 631 290 631 290 572 241.5 c 128,-1,55
 513 193 513 193 445.5 155 c 128,-1,56
 378 117 378 117 306.5 93.5 c 128,-1,57
 235 70 235 70 169 70 c 1,58,-1
 -113 -740 l 2,59,60
 -118 -753 -118 -753 -130 -761.5 c 128,-1,61
 -142 -770 -142 -770 -156 -770 c 0,62,63
 -175 -770 -175 -770 -187 -758 c 128,-1,64
 -199 -746 -199 -746 -199 -727 c 0,65,66
 -199 -722 -199 -722 -188 -688 c 128,-1,67
 -177 -654 -177 -654 -159 -600.5 c 128,-1,68
 -141 -547 -141 -547 -118 -479 c 128,-1,69
 -95 -411 -95 -411 -70 -339.5 c 128,-1,70
 -45 -268 -45 -268 -20.5 -198.5 c 128,-1,71
 4 -129 4 -129 24.5 -70.5 c 128,-1,72
 45 -12 45 -12 59.5 29 c 128,-1,73
 74 70 74 70 79 84 c 1,74,75
 36 95 36 95 13 129 c 128,-1,76
 -10 163 -10 163 -10 205 c 0,77,78
 -10 223 -10 223 -0.5 255 c 128,-1,79
 9 287 9 287 24 318 c 128,-1,80
 39 349 39 349 58 372 c 128,-1,81
 77 395 77 395 97 395 c 0,0,1
495 1011 m 1,82,83
 513 1031 513 1031 541 1061 c 128,-1,84
 569 1091 569 1091 601 1126.5 c 128,-1,85
 633 1162 633 1162 665.5 1201.5 c 128,-1,86
 698 1241 698 1241 726 1279 c 128,-1,87
 754 1317 754 1317 774.5 1351.5 c 128,-1,88
 795 1386 795 1386 802 1413 c 1,89,-1
 793 1413 l 2,90,91
 752 1413 752 1413 717 1392 c 128,-1,92
 682 1371 682 1371 652.5 1336.5 c 128,-1,93
 623 1302 623 1302 599 1258.5 c 128,-1,94
 575 1215 575 1215 555.5 1170.5 c 128,-1,95
 536 1126 536 1126 521 1084 c 128,-1,96
 506 1042 506 1042 495 1011 c 1,82,83
EndSplineSet
EndChar

StartChar: h
Encoding: 104 104 73
Width: 1218
Flags: W
LayerCount: 2
Fore
SplineSet
-51 306 m 0,0,1
 -68 306 -68 306 -83 318 c 128,-1,2
 -98 330 -98 330 -98 349 c 0,3,4
 -98 367 -98 367 -86 381 c 2,5,-1
 338 842 l 1,6,-1
 437 1121 l 2,7,8
 451 1161 451 1161 469.5 1205 c 128,-1,9
 488 1249 488 1249 511 1291.5 c 128,-1,10
 534 1334 534 1334 562 1372 c 128,-1,11
 590 1410 590 1410 625 1439 c 128,-1,12
 660 1468 660 1468 702 1485 c 128,-1,13
 744 1502 744 1502 794 1502 c 0,14,15
 836 1502 836 1502 862 1479.5 c 128,-1,16
 888 1457 888 1457 888 1414 c 0,17,18
 888 1388 888 1388 875.5 1357 c 128,-1,19
 863 1326 863 1326 843.5 1293 c 128,-1,20
 824 1260 824 1260 799 1226.5 c 128,-1,21
 774 1193 774 1193 749 1162.5 c 128,-1,22
 724 1132 724 1132 700.5 1106 c 128,-1,23
 677 1080 677 1080 661 1062 c 2,24,-1
 416 795 l 1,25,-1
 377 684 l 1,26,27
 405 702 405 702 441 722 c 128,-1,28
 477 742 477 742 516.5 759.5 c 128,-1,29
 556 777 556 777 595 788.5 c 128,-1,30
 634 800 634 800 668 800 c 0,31,32
 707 800 707 800 736 786 c 128,-1,33
 765 772 765 772 784 748 c 128,-1,34
 803 724 803 724 812.5 691.5 c 128,-1,35
 822 659 822 659 822 623 c 0,36,37
 822 559 822 559 802.5 499 c 128,-1,38
 783 439 783 439 759.5 380 c 128,-1,39
 736 321 736 321 716.5 261.5 c 128,-1,40
 697 202 697 202 697 139 c 0,41,42
 697 130 697 130 697.5 120 c 128,-1,43
 698 110 698 110 701.5 101 c 128,-1,44
 705 92 705 92 711.5 86.5 c 128,-1,45
 718 81 718 81 730 81 c 0,46,47
 762 81 762 81 800.5 99 c 128,-1,48
 839 117 839 117 878.5 145.5 c 128,-1,49
 918 174 918 174 958 209.5 c 128,-1,50
 998 245 998 245 1033.5 281 c 128,-1,51
 1069 317 1069 317 1099 349 c 128,-1,52
 1129 381 1129 381 1150 402 c 0,53,54
 1164 416 1164 416 1181 416 c 0,55,56
 1201 416 1201 416 1214 403 c 128,-1,57
 1227 390 1227 390 1227 370 c 0,58,59
 1227 354 1227 354 1216 341 c 0,60,61
 1192 313 1192 313 1158 276.5 c 128,-1,62
 1124 240 1124 240 1083 201.5 c 128,-1,63
 1042 163 1042 163 996 125.5 c 128,-1,64
 950 88 950 88 903.5 59 c 128,-1,65
 857 30 857 30 812 12 c 128,-1,66
 767 -6 767 -6 726 -6 c 0,67,68
 694 -6 694 -6 672 6 c 128,-1,69
 650 18 650 18 635.5 38 c 128,-1,70
 621 58 621 58 614.5 84 c 128,-1,71
 608 110 608 110 608 138 c 0,72,73
 608 202 608 202 627.5 262 c 128,-1,74
 647 322 647 322 670.5 381.5 c 128,-1,75
 694 441 694 441 713.5 500 c 128,-1,76
 733 559 733 559 733 622 c 0,77,78
 733 638 733 638 730.5 654 c 128,-1,79
 728 670 728 670 720.5 683 c 128,-1,80
 713 696 713 696 700.5 703.5 c 128,-1,81
 688 711 688 711 669 711 c 0,82,83
 639 711 639 711 594 695 c 128,-1,84
 549 679 549 679 502.5 655 c 128,-1,85
 456 631 456 631 416 603.5 c 128,-1,86
 376 576 376 576 356 554 c 0,87,88
 343 539 343 539 331.5 520.5 c 128,-1,89
 320 502 320 502 310 482 c 128,-1,90
 300 462 300 462 292 441.5 c 128,-1,91
 284 421 284 421 277 403 c 2,92,-1
 137 11 l 2,93,94
 132 -3 132 -3 121 -10 c 128,-1,95
 110 -17 110 -17 96 -17 c 0,96,97
 78 -17 78 -17 64 -5 c 128,-1,98
 50 7 50 7 50 26 c 0,99,100
 50 28 50 28 58.5 53.5 c 128,-1,101
 67 79 67 79 80.5 118.5 c 128,-1,102
 94 158 94 158 112 208.5 c 128,-1,103
 130 259 130 259 149 312.5 c 128,-1,104
 168 366 168 366 187 418.5 c 128,-1,105
 206 471 206 471 221.5 514.5 c 128,-1,106
 237 558 237 558 248 588 c 128,-1,107
 259 618 259 618 262 628 c 1,108,-1
 -20 320 l 2,109,110
 -32 306 -32 306 -51 306 c 0,0,1
492 1010 m 1,111,112
 506 1025 506 1025 534 1055 c 128,-1,113
 562 1085 562 1085 595.5 1123 c 128,-1,114
 629 1161 629 1161 664.5 1203.5 c 128,-1,115
 700 1246 700 1246 729.5 1286 c 128,-1,116
 759 1326 759 1326 778 1359.5 c 128,-1,117
 797 1393 797 1393 799 1413 c 1,118,-1
 791 1413 l 2,119,120
 748 1413 748 1413 713 1392 c 128,-1,121
 678 1371 678 1371 649 1336.5 c 128,-1,122
 620 1302 620 1302 596.5 1258 c 128,-1,123
 573 1214 573 1214 553.5 1169.5 c 128,-1,124
 534 1125 534 1125 519 1083 c 128,-1,125
 504 1041 504 1041 492 1010 c 1,111,112
EndSplineSet
EndChar

StartChar: i
Encoding: 105 105 74
Width: 681
Flags: W
LayerCount: 2
Fore
SplineSet
-49 306 m 0,0,1
 -66 306 -66 306 -81 318 c 128,-1,2
 -96 330 -96 330 -96 349 c 0,3,4
 -96 367 -96 367 -84 381 c 2,5,-1
 286 782 l 2,6,7
 300 796 300 796 320 796 c 0,8,9
 338 796 338 796 350.5 782 c 128,-1,10
 363 768 363 768 363 751 c 0,11,12
 363 746 363 746 362 742.5 c 128,-1,13
 361 739 361 739 359 734 c 0,14,15
 348 705 348 705 329 658.5 c 128,-1,16
 310 612 310 612 288 556.5 c 128,-1,17
 266 501 266 501 243.5 441 c 128,-1,18
 221 381 221 381 202.5 324.5 c 128,-1,19
 184 268 184 268 172.5 219.5 c 128,-1,20
 161 171 161 171 161 139 c 0,21,22
 161 130 161 130 161.5 119.5 c 128,-1,23
 162 109 162 109 165 100.5 c 128,-1,24
 168 92 168 92 175 86.5 c 128,-1,25
 182 81 182 81 194 81 c 0,26,27
 234 81 234 81 279.5 106 c 128,-1,28
 325 131 325 131 371.5 168 c 128,-1,29
 418 205 418 205 462.5 248.5 c 128,-1,30
 507 292 507 292 544 329 c 128,-1,31
 581 366 581 366 608 391 c 128,-1,32
 635 416 635 416 646 416 c 0,33,34
 666 416 666 416 679 403 c 128,-1,35
 692 390 692 390 692 370 c 0,36,37
 692 354 692 354 681 341 c 0,38,39
 657 313 657 313 623 276 c 128,-1,40
 589 239 589 239 548 200.5 c 128,-1,41
 507 162 507 162 461 125 c 128,-1,42
 415 88 415 88 368.5 59 c 128,-1,43
 322 30 322 30 276.5 12 c 128,-1,44
 231 -6 231 -6 190 -6 c 0,45,46
 159 -6 159 -6 137 5.5 c 128,-1,47
 115 17 115 17 100.5 36.5 c 128,-1,48
 86 56 86 56 79 81.5 c 128,-1,49
 72 107 72 107 72 135 c 0,50,51
 72 189 72 189 85 243 c 128,-1,52
 98 297 98 297 117 349.5 c 128,-1,53
 136 402 136 402 158 453.5 c 128,-1,54
 180 505 180 505 198 555 c 1,55,56
 189 546 189 546 169.5 524 c 128,-1,57
 150 502 150 502 125.5 474 c 128,-1,58
 101 446 101 446 73.5 416.5 c 128,-1,59
 46 387 46 387 21.5 362.5 c 128,-1,60
 -3 338 -3 338 -22 322 c 128,-1,61
 -41 306 -41 306 -49 306 c 0,0,1
457 1239 m 0,62,63
 476 1239 476 1239 489 1226 c 128,-1,64
 502 1213 502 1213 502 1194 c 0,65,66
 502 1184 502 1184 494 1159 c 128,-1,67
 486 1134 486 1134 475.5 1105.5 c 128,-1,68
 465 1077 465 1077 455 1050.5 c 128,-1,69
 445 1024 445 1024 441 1012 c 0,70,71
 436 998 436 998 424 990 c 128,-1,72
 412 982 412 982 398 982 c 0,73,74
 380 982 380 982 367 995.5 c 128,-1,75
 354 1009 354 1009 354 1027 c 0,76,77
 354 1034 354 1034 362.5 1059.5 c 128,-1,78
 371 1085 371 1085 381.5 1115 c 128,-1,79
 392 1145 392 1145 402.5 1172 c 128,-1,80
 413 1199 413 1199 416 1209 c 0,81,82
 421 1222 421 1222 432 1230.5 c 128,-1,83
 443 1239 443 1239 457 1239 c 0,62,63
EndSplineSet
EndChar

StartChar: j
Encoding: 106 106 75
Width: 404
Flags: W
LayerCount: 2
Fore
SplineSet
202 561 m 1,0,1
 193 551 193 551 173 528.5 c 128,-1,2
 153 506 153 506 128 478 c 128,-1,3
 103 450 103 450 75 419.5 c 128,-1,4
 47 389 47 389 22 363.5 c 128,-1,5
 -3 338 -3 338 -22.5 322 c 128,-1,6
 -42 306 -42 306 -51 306 c 0,7,8
 -71 306 -71 306 -83.5 319 c 128,-1,9
 -96 332 -96 332 -96 352 c 0,10,11
 -96 358 -96 358 -93 367 c 128,-1,12
 -90 376 -90 376 -86 381 c 2,13,-1
 285 783 l 2,14,15
 299 797 299 797 315 797 c 0,16,17
 339 797 339 797 350 782.5 c 128,-1,18
 361 768 361 768 361 746 c 0,19,20
 361 745 361 745 354 724 c 128,-1,21
 347 703 347 703 335 668.5 c 128,-1,22
 323 634 323 634 307.5 590.5 c 128,-1,23
 292 547 292 547 275.5 501 c 128,-1,24
 259 455 259 455 243 409.5 c 128,-1,25
 227 364 227 364 214 327 c 128,-1,26
 201 290 201 290 192 264 c 128,-1,27
 183 238 183 238 180 231 c 1,28,29
 188 240 188 240 203 258 c 128,-1,30
 218 276 218 276 236.5 297.5 c 128,-1,31
 255 319 255 319 275.5 341.5 c 128,-1,32
 296 364 296 364 315.5 382.5 c 128,-1,33
 335 401 335 401 351.5 413 c 128,-1,34
 368 425 368 425 379 425 c 0,35,36
 398 425 398 425 410 411 c 128,-1,37
 422 397 422 397 422 379 c 0,38,39
 422 370 422 370 401 342.5 c 128,-1,40
 380 315 380 315 348 278.5 c 128,-1,41
 316 242 316 242 277.5 200.5 c 128,-1,42
 239 159 239 159 203.5 121.5 c 128,-1,43
 168 84 168 84 140.5 55.5 c 128,-1,44
 113 27 113 27 103 16 c 1,45,-1
 -40 -388 l 2,46,47
 -54 -427 -54 -427 -72.5 -470 c 128,-1,48
 -91 -513 -91 -513 -114.5 -555.5 c 128,-1,49
 -138 -598 -138 -598 -167 -637 c 128,-1,50
 -196 -676 -196 -676 -231 -705.5 c 128,-1,51
 -266 -735 -266 -735 -307.5 -752.5 c 128,-1,52
 -349 -770 -349 -770 -397 -770 c 0,53,54
 -456 -770 -456 -770 -484.5 -737.5 c 128,-1,55
 -513 -705 -513 -705 -513 -651 c 0,56,57
 -513 -609 -513 -609 -495.5 -564.5 c 128,-1,58
 -478 -520 -478 -520 -451 -477.5 c 128,-1,59
 -424 -435 -424 -435 -393 -397 c 128,-1,60
 -362 -359 -362 -359 -335 -330 c 2,61,-1
 25 64 l 1,62,-1
 202 561 l 1,0,1
-51 -150 m 1,63,64
 -66 -167 -66 -167 -99.5 -201 c 128,-1,65
 -133 -235 -133 -235 -174.5 -279.5 c 128,-1,66
 -216 -324 -216 -324 -260 -375.5 c 128,-1,67
 -304 -427 -304 -427 -340.5 -477 c 128,-1,68
 -377 -527 -377 -527 -400.5 -573 c 128,-1,69
 -424 -619 -424 -619 -424 -652 c 0,70,71
 -424 -681 -424 -681 -394 -681 c 0,72,73
 -345 -681 -345 -681 -303.5 -650.5 c 128,-1,74
 -262 -620 -262 -620 -227.5 -571.5 c 128,-1,75
 -193 -523 -193 -523 -165.5 -463 c 128,-1,76
 -138 -403 -138 -403 -116 -344 c 128,-1,77
 -94 -285 -94 -285 -78 -233 c 128,-1,78
 -62 -181 -62 -181 -51 -150 c 1,63,64
456 1238 m 0,79,80
 475 1238 475 1238 488 1225.5 c 128,-1,81
 501 1213 501 1213 501 1194 c 0,82,83
 501 1184 501 1184 493 1159 c 128,-1,84
 485 1134 485 1134 474.5 1105.5 c 128,-1,85
 464 1077 464 1077 453.5 1050.5 c 128,-1,86
 443 1024 443 1024 439 1012 c 0,87,88
 434 999 434 999 423 990.5 c 128,-1,89
 412 982 412 982 398 982 c 0,90,91
 380 982 380 982 366.5 994.5 c 128,-1,92
 353 1007 353 1007 353 1025 c 0,93,94
 353 1034 353 1034 361 1059.5 c 128,-1,95
 369 1085 369 1085 379.5 1114.5 c 128,-1,96
 390 1144 390 1144 400.5 1171 c 128,-1,97
 411 1198 411 1198 415 1209 c 0,98,99
 426 1238 426 1238 456 1238 c 0,79,80
EndSplineSet
EndChar

StartChar: n
Encoding: 110 110 79
Width: 1189
Flags: W
LayerCount: 2
Fore
SplineSet
-50 306 m 0,0,1
 -67 306 -67 306 -82 318 c 128,-1,2
 -97 330 -97 330 -97 349 c 0,3,4
 -97 367 -97 367 -85 381 c 2,5,-1
 285 783 l 2,6,7
 297 797 297 797 316 797 c 0,8,9
 334 797 334 797 348 784.5 c 128,-1,10
 362 772 362 772 362 753 c 0,11,12
 362 745 362 745 359 735 c 128,-1,13
 356 725 356 725 352 714 c 128,-1,14
 348 703 348 703 344 692.5 c 128,-1,15
 340 682 340 682 337 675 c 1,16,17
 370 695 370 695 405.5 716 c 128,-1,18
 441 737 441 737 478.5 754 c 128,-1,19
 516 771 516 771 555 782 c 128,-1,20
 594 793 594 793 635 793 c 0,21,22
 674 793 674 793 702.5 779 c 128,-1,23
 731 765 731 765 749.5 741 c 128,-1,24
 768 717 768 717 777.5 685 c 128,-1,25
 787 653 787 653 787 617 c 0,26,27
 787 553 787 553 767.5 492.5 c 128,-1,28
 748 432 748 432 724.5 373 c 128,-1,29
 701 314 701 314 681.5 255 c 128,-1,30
 662 196 662 196 662 135 c 0,31,32
 662 127 662 127 662.5 116.5 c 128,-1,33
 663 106 663 106 666 96.5 c 128,-1,34
 669 87 669 87 675 80.5 c 128,-1,35
 681 74 681 74 692 74 c 0,36,37
 725 74 725 74 764 92.5 c 128,-1,38
 803 111 803 111 843.5 140.5 c 128,-1,39
 884 170 884 170 925 206.5 c 128,-1,40
 966 243 966 243 1002.5 279.5 c 128,-1,41
 1039 316 1039 316 1070 348.5 c 128,-1,42
 1101 381 1101 381 1122 402 c 0,43,44
 1135 416 1135 416 1156 416 c 0,45,46
 1175 416 1175 416 1187 401.5 c 128,-1,47
 1199 387 1199 387 1199 369 c 0,48,49
 1199 354 1199 354 1188 341 c 0,50,51
 1164 313 1164 313 1129.5 276 c 128,-1,52
 1095 239 1095 239 1054 199.5 c 128,-1,53
 1013 160 1013 160 967 122 c 128,-1,54
 921 84 921 84 874.5 53.5 c 128,-1,55
 828 23 828 23 782 4.5 c 128,-1,56
 736 -14 736 -14 696 -14 c 0,57,58
 663 -14 663 -14 640 -2.5 c 128,-1,59
 617 9 617 9 602 28.5 c 128,-1,60
 587 48 587 48 580 74.5 c 128,-1,61
 573 101 573 101 573 131 c 0,62,63
 573 195 573 195 592.5 255.5 c 128,-1,64
 612 316 612 316 635.5 375 c 128,-1,65
 659 434 659 434 678.5 493.5 c 128,-1,66
 698 553 698 553 698 616 c 0,67,68
 698 634 698 634 695.5 649.5 c 128,-1,69
 693 665 693 665 685.5 677 c 128,-1,70
 678 689 678 689 665 696 c 128,-1,71
 652 703 652 703 631 703 c 0,72,73
 599 703 599 703 553 686.5 c 128,-1,74
 507 670 507 670 460.5 645 c 128,-1,75
 414 620 414 620 374 591 c 128,-1,76
 334 562 334 562 313 538 c 0,77,78
 285 505 285 505 265 459.5 c 128,-1,79
 245 414 245 414 231 374 c 2,80,-1
 102 11 l 2,81,82
 97 -2 97 -2 85.5 -9.5 c 128,-1,83
 74 -17 74 -17 61 -17 c 0,84,85
 43 -17 43 -17 29 -6 c 128,-1,86
 15 5 15 5 15 24 c 0,87,88
 15 27 15 27 22.5 50 c 128,-1,89
 30 73 30 73 42 108.5 c 128,-1,90
 54 144 54 144 69.5 188.5 c 128,-1,91
 85 233 85 233 101.5 280 c 128,-1,92
 118 327 118 327 134.5 373.5 c 128,-1,93
 151 420 151 420 165 458.5 c 128,-1,94
 179 497 179 497 189 524 c 128,-1,95
 199 551 199 551 202 561 c 1,96,97
 193 551 193 551 173.5 528.5 c 128,-1,98
 154 506 154 506 129 478 c 128,-1,99
 104 450 104 450 76 419.5 c 128,-1,100
 48 389 48 389 23 363.5 c 128,-1,101
 -2 338 -2 338 -22 322 c 128,-1,102
 -42 306 -42 306 -50 306 c 0,0,1
EndSplineSet
EndChar

StartChar: p
Encoding: 112 112 81
Width: 1112
Flags: W
LayerCount: 2
Fore
SplineSet
-50 306 m 0,0,1
 -68 306 -68 306 -82 318.5 c 128,-1,2
 -96 331 -96 331 -96 349 c 256,3,4
 -96 367 -96 367 -84 381 c 2,5,-1
 286 783 l 2,6,7
 298 797 298 797 317 797 c 0,8,9
 337 797 337 797 350 784 c 128,-1,10
 363 771 363 771 363 751 c 0,11,12
 363 746 363 746 361 738 c 1,13,-1
 360 737 l 1,14,-1
 338 673 l 1,15,16
 371 694 371 694 412.5 715 c 128,-1,17
 454 736 454 736 499 753.5 c 128,-1,18
 544 771 544 771 588.5 782 c 128,-1,19
 633 793 633 793 672 793 c 0,20,21
 723 793 723 793 765 777.5 c 128,-1,22
 807 762 807 762 836 733.5 c 128,-1,23
 865 705 865 705 881 664 c 128,-1,24
 897 623 897 623 897 571 c 0,25,26
 897 529 897 529 888 488.5 c 128,-1,27
 879 448 879 448 865 409 c 1,28,-1
 864 408 l 1,29,30
 852 375 852 375 831.5 334 c 128,-1,31
 811 293 811 293 785.5 252 c 128,-1,32
 760 211 760 211 733.5 173.5 c 128,-1,33
 707 136 707 136 683 109 c 1,34,35
 741 134 741 134 789 166 c 128,-1,36
 837 198 837 198 880 236 c 128,-1,37
 923 274 923 274 963.5 316 c 128,-1,38
 1004 358 1004 358 1047 402 c 0,39,40
 1061 416 1061 416 1078 416 c 0,41,42
 1098 416 1098 416 1111 403 c 128,-1,43
 1124 390 1124 390 1124 370 c 0,44,45
 1124 355 1124 355 1112 341 c 0,46,47
 1044 262 1044 262 975.5 196 c 128,-1,48
 907 130 907 130 830.5 82.5 c 128,-1,49
 754 35 754 35 665.5 8.5 c 128,-1,50
 577 -18 577 -18 470 -18 c 0,51,52
 422 -18 422 -18 386 0 c 128,-1,53
 350 18 350 18 326 48 c 128,-1,54
 302 78 302 78 289.5 118 c 128,-1,55
 277 158 277 158 277 203 c 0,56,57
 277 220 277 220 289.5 234.5 c 128,-1,58
 302 249 302 249 320 249 c 0,59,60
 341 249 341 249 350.5 235.5 c 128,-1,61
 360 222 360 222 364.5 202.5 c 128,-1,62
 369 183 369 183 373 159.5 c 128,-1,63
 377 136 377 136 386.5 116.5 c 128,-1,64
 396 97 396 97 415.5 83.5 c 128,-1,65
 435 70 435 70 470 70 c 0,66,67
 506 70 506 70 545 98 c 128,-1,68
 584 126 584 126 621.5 170.5 c 128,-1,69
 659 215 659 215 693 271 c 128,-1,70
 727 327 727 327 753 382 c 128,-1,71
 779 437 779 437 794 486.5 c 128,-1,72
 809 536 809 536 809 568 c 0,73,74
 809 637 809 637 774.5 670 c 128,-1,75
 740 703 740 703 670 703 c 0,76,77
 624 703 624 703 571.5 686 c 128,-1,78
 519 669 519 669 467.5 643.5 c 128,-1,79
 416 618 416 618 369 587 c 128,-1,80
 322 556 322 556 287 529 c 1,81,-1
 -163 -740 l 2,82,83
 -168 -754 -168 -754 -180 -762 c 128,-1,84
 -192 -770 -192 -770 -206 -770 c 0,85,86
 -224 -770 -224 -770 -236.5 -757 c 128,-1,87
 -249 -744 -249 -744 -249 -726 c 0,88,89
 -249 -722 -249 -722 -237.5 -686.5 c 128,-1,90
 -226 -651 -226 -651 -205.5 -592.5 c 128,-1,91
 -185 -534 -185 -534 -158 -456.5 c 128,-1,92
 -131 -379 -131 -379 -100 -291.5 c 128,-1,93
 -69 -204 -69 -204 -36 -111.5 c 128,-1,94
 -3 -19 -3 -19 29 71 c 128,-1,95
 61 161 61 161 90 243 c 128,-1,96
 119 325 119 325 142.5 390.5 c 128,-1,97
 166 456 166 456 182 501 c 128,-1,98
 198 546 198 546 204 562 c 1,99,100
 195 552 195 552 175.5 529.5 c 128,-1,101
 156 507 156 507 130.5 478.5 c 128,-1,102
 105 450 105 450 76.5 419.5 c 128,-1,103
 48 389 48 389 23 364 c 128,-1,104
 -2 339 -2 339 -22 322.5 c 128,-1,105
 -42 306 -42 306 -50 306 c 0,0,1
EndSplineSet
EndChar

StartChar: t
Encoding: 116 116 85
Width: 818
Flags: W
LayerCount: 2
Fore
SplineSet
242 395 m 0,0,1
 259 395 259 395 273.5 382.5 c 128,-1,2
 288 370 288 370 288 352 c 0,3,4
 288 339 288 339 278 323 c 128,-1,5
 268 307 268 307 255.5 288 c 128,-1,6
 243 269 243 269 233 248.5 c 128,-1,7
 223 228 223 228 223 207 c 0,8,9
 223 193 223 193 230.5 182 c 128,-1,10
 238 171 238 171 253 168 c 1,11,-1
 522 944 l 1,12,13
 465 876 465 876 410 805 c 128,-1,14
 355 734 355 734 295 668 c 2,15,-1
 -24 320 l 2,16,17
 -30 314 -30 314 -38.5 310 c 128,-1,18
 -47 306 -47 306 -55 306 c 0,19,20
 -72 306 -72 306 -87 318 c 128,-1,21
 -102 330 -102 330 -102 349 c 0,22,23
 -102 367 -102 367 -90 381 c 0,24,25
 -17 460 -17 460 56.5 539.5 c 128,-1,26
 130 619 130 619 202 700 c 128,-1,27
 274 781 274 781 342 865.5 c 128,-1,28
 410 950 410 950 471 1039 c 0,29,30
 501 1083 501 1083 524.5 1117 c 128,-1,31
 548 1151 548 1151 567 1180.5 c 128,-1,32
 586 1210 586 1210 602 1238 c 128,-1,33
 618 1266 618 1266 633.5 1297.5 c 128,-1,34
 649 1329 649 1329 665 1367 c 128,-1,35
 681 1405 681 1405 701 1456 c 0,36,37
 706 1470 706 1470 716.5 1478 c 128,-1,38
 727 1486 727 1486 742 1486 c 0,39,40
 761 1486 761 1486 774 1472.5 c 128,-1,41
 787 1459 787 1459 787 1440 c 0,42,43
 787 1437 787 1437 775.5 1402.5 c 128,-1,44
 764 1368 764 1368 744.5 1309.5 c 128,-1,45
 725 1251 725 1251 698 1174.5 c 128,-1,46
 671 1098 671 1098 641 1011 c 128,-1,47
 611 924 611 924 578.5 831 c 128,-1,48
 546 738 546 738 515 649 c 128,-1,49
 484 560 484 560 455.5 478 c 128,-1,50
 427 396 427 396 404 331 c 128,-1,51
 381 266 381 266 365.5 221.5 c 128,-1,52
 350 177 350 177 345 162 c 1,53,54
 405 167 405 167 461 188.5 c 128,-1,55
 517 210 517 210 568 242.5 c 128,-1,56
 619 275 619 275 664.5 315 c 128,-1,57
 710 355 710 355 750 398 c 0,58,59
 764 414 764 414 784 414 c 0,60,61
 803 414 803 414 815.5 400.5 c 128,-1,62
 828 387 828 387 828 369 c 0,63,64
 828 354 828 354 818 341 c 0,65,66
 781 294 781 294 720.5 245 c 128,-1,67
 660 196 660 196 590 156 c 128,-1,68
 520 116 520 116 447.5 91.5 c 128,-1,69
 375 67 375 67 313 70 c 1,70,71
 309 58 309 58 305 42.5 c 128,-1,72
 301 27 301 27 294 13.5 c 128,-1,73
 287 0 287 0 276.5 -9 c 128,-1,74
 266 -18 266 -18 250 -18 c 0,75,76
 233 -18 233 -18 219.5 -5.5 c 128,-1,77
 206 7 206 7 206 25 c 0,78,79
 206 35 206 35 213.5 54.5 c 128,-1,80
 221 74 221 74 224 84 c 1,81,82
 203 84 203 84 186.5 96.5 c 128,-1,83
 170 109 170 109 158.5 127.5 c 128,-1,84
 147 146 147 146 141 167.5 c 128,-1,85
 135 189 135 189 135 207 c 256,86,87
 135 225 135 225 144.5 256.5 c 128,-1,88
 154 288 154 288 169 319 c 128,-1,89
 184 350 184 350 203 372.5 c 128,-1,90
 222 395 222 395 242 395 c 0,0,1
EndSplineSet
EndChar

StartChar: v
Encoding: 118 118 87
Width: 1206
Flags: W
LayerCount: 2
Fore
SplineSet
810 753 m 0,0,1
 810 773 810 773 824 785 c 128,-1,2
 838 797 838 797 857 797 c 0,3,4
 873 797 873 797 882.5 785.5 c 128,-1,5
 892 774 892 774 896.5 757.5 c 128,-1,6
 901 741 901 741 902 723.5 c 128,-1,7
 903 706 903 706 903 694 c 0,8,9
 903 639 903 639 894 585 c 128,-1,10
 885 531 885 531 885 477 c 0,11,12
 885 451 885 451 890 422 c 128,-1,13
 895 393 895 393 907.5 368.5 c 128,-1,14
 920 344 920 344 941 328 c 128,-1,15
 962 312 962 312 994 312 c 0,16,17
 1031 312 1031 312 1057 328 c 128,-1,18
 1083 344 1083 344 1102.5 363 c 128,-1,19
 1122 382 1122 382 1138 398 c 128,-1,20
 1154 414 1154 414 1171 414 c 0,21,22
 1190 414 1190 414 1203 401 c 128,-1,23
 1216 388 1216 388 1216 369 c 0,24,25
 1216 351 1216 351 1204 333.5 c 128,-1,26
 1192 316 1192 316 1173.5 299.5 c 128,-1,27
 1155 283 1155 283 1131 269 c 128,-1,28
 1107 255 1107 255 1082.5 245 c 128,-1,29
 1058 235 1058 235 1036 229 c 128,-1,30
 1014 223 1014 223 998 223 c 0,31,32
 975 223 975 223 946.5 231 c 128,-1,33
 918 239 918 239 892.5 253.5 c 128,-1,34
 867 268 867 268 847.5 288.5 c 128,-1,35
 828 309 828 309 824 335 c 1,36,37
 794 272 794 272 743 208.5 c 128,-1,38
 692 145 692 145 628.5 95 c 128,-1,39
 565 45 565 45 492.5 13.5 c 128,-1,40
 420 -18 420 -18 346 -18 c 0,41,42
 288 -18 288 -18 244.5 6 c 128,-1,43
 201 30 201 30 172 69 c 128,-1,44
 143 108 143 108 128.5 158 c 128,-1,45
 114 208 114 208 114 261 c 0,46,47
 114 300 114 300 122.5 338 c 128,-1,48
 131 376 131 376 144 413.5 c 128,-1,49
 157 451 157 451 172 488 c 128,-1,50
 187 525 187 525 200 561 c 1,51,52
 191 552 191 552 172.5 530 c 128,-1,53
 154 508 154 508 130 480.5 c 128,-1,54
 106 453 106 453 79 424 c 128,-1,55
 52 395 52 395 28 370.5 c 128,-1,56
 4 346 4 346 -15.5 330.5 c 128,-1,57
 -35 315 -35 315 -44 315 c 0,58,59
 -61 315 -61 315 -76 327 c 128,-1,60
 -91 339 -91 339 -91 358 c 0,61,62
 -91 376 -91 376 -79 390 c 2,63,-1
 282 782 l 2,64,65
 295 797 295 797 314 797 c 0,66,67
 334 797 334 797 347 784.5 c 128,-1,68
 360 772 360 772 360 752 c 0,69,70
 360 729 360 729 348.5 693.5 c 128,-1,71
 337 658 337 658 319.5 615.5 c 128,-1,72
 302 573 302 573 281.5 525.5 c 128,-1,73
 261 478 261 478 243.5 431 c 128,-1,74
 226 384 226 384 214.5 340.5 c 128,-1,75
 203 297 203 297 203 261 c 256,76,77
 203 225 203 225 211.5 190.5 c 128,-1,78
 220 156 220 156 239 129 c 128,-1,79
 258 102 258 102 286.5 86 c 128,-1,80
 315 70 315 70 356 70 c 0,81,82
 414 70 414 70 472.5 99 c 128,-1,83
 531 128 531 128 582.5 172 c 128,-1,84
 634 216 634 216 676 269 c 128,-1,85
 718 322 718 322 742 370 c 0,86,87
 768 421 768 421 782.5 472 c 128,-1,88
 797 523 797 523 805 580 c 1,89,-1
 807 589 l 1,90,-1
 808 590 l 1,91,92
 814 632 814 632 812 671.5 c 128,-1,93
 810 711 810 711 810 753 c 0,0,1
EndSplineSet
EndChar

StartChar: w
Encoding: 119 119 88
Width: 1511
Flags: W
LayerCount: 2
Fore
SplineSet
-40 318 m 0,0,1
 -58 318 -58 318 -72.5 330 c 128,-1,2
 -87 342 -87 342 -87 361 c 0,3,4
 -87 379 -87 379 -75 393 c 2,5,-1
 272 769 l 2,6,7
 286 783 286 783 306 783 c 0,8,9
 323 783 323 783 336 769.5 c 128,-1,10
 349 756 349 756 349 739 c 0,11,12
 349 731 349 731 342 709 c 128,-1,13
 335 687 335 687 326 661.5 c 128,-1,14
 317 636 317 636 308 613 c 128,-1,15
 299 590 299 590 296 580 c 1,16,17
 330 619 330 619 364 650.5 c 128,-1,18
 398 682 398 682 435.5 708 c 128,-1,19
 473 734 473 734 515 755 c 128,-1,20
 557 776 557 776 605 793 c 0,21,22
 609 795 609 795 612 796 c 128,-1,23
 615 797 615 797 620 797 c 0,24,25
 639 797 639 797 652.5 784.5 c 128,-1,26
 666 772 666 772 666 752 c 0,27,28
 666 731 666 731 654.5 695.5 c 128,-1,29
 643 660 643 660 625.5 616.5 c 128,-1,30
 608 573 608 573 588 525 c 128,-1,31
 568 477 568 477 550.5 431.5 c 128,-1,32
 533 386 533 386 521.5 346 c 128,-1,33
 510 306 510 306 510 279 c 0,34,35
 510 240 510 240 516.5 202.5 c 128,-1,36
 523 165 523 165 540 135.5 c 128,-1,37
 557 106 557 106 586.5 88 c 128,-1,38
 616 70 616 70 662 70 c 0,39,40
 715 70 715 70 766 91 c 128,-1,41
 817 112 817 112 863 147.5 c 128,-1,42
 909 183 909 183 949 230 c 128,-1,43
 989 277 989 277 1020.5 328.5 c 128,-1,44
 1052 380 1052 380 1074 433.5 c 128,-1,45
 1096 487 1096 487 1105 535 c 1,46,-1
 1104 536 l 1,47,48
 1106 571 1106 571 1113 606 c 128,-1,49
 1120 641 1120 641 1120 677 c 0,50,51
 1120 695 1120 695 1118 713 c 128,-1,52
 1116 731 1116 731 1116 749 c 0,53,54
 1116 769 1116 769 1128 783 c 128,-1,55
 1140 797 1140 797 1161 797 c 0,56,57
 1178 797 1178 797 1187.5 787.5 c 128,-1,58
 1197 778 1197 778 1202 764.5 c 128,-1,59
 1207 751 1207 751 1208.5 735 c 128,-1,60
 1210 719 1210 719 1210 707 c 0,61,62
 1210 649 1210 649 1200.5 592 c 128,-1,63
 1191 535 1191 535 1191 478 c 0,64,65
 1191 452 1191 452 1196 423 c 128,-1,66
 1201 394 1201 394 1213.5 369 c 128,-1,67
 1226 344 1226 344 1247.5 328 c 128,-1,68
 1269 312 1269 312 1301 312 c 0,69,70
 1338 312 1338 312 1363.5 328 c 128,-1,71
 1389 344 1389 344 1408.5 363 c 128,-1,72
 1428 382 1428 382 1443 398 c 128,-1,73
 1458 414 1458 414 1475 414 c 0,74,75
 1491 414 1491 414 1506 402 c 128,-1,76
 1521 390 1521 390 1521 373 c 0,77,78
 1521 345 1521 345 1496.5 318 c 128,-1,79
 1472 291 1472 291 1437.5 270 c 128,-1,80
 1403 249 1403 249 1366.5 236 c 128,-1,81
 1330 223 1330 223 1305 223 c 0,82,83
 1245 223 1245 223 1200 251.5 c 128,-1,84
 1155 280 1155 280 1130 335 c 1,85,86
 1100 272 1100 272 1049 208.5 c 128,-1,87
 998 145 998 145 934.5 95 c 128,-1,88
 871 45 871 45 798.5 13.5 c 128,-1,89
 726 -18 726 -18 652 -18 c 0,90,91
 593 -18 593 -18 549.5 5.5 c 128,-1,92
 506 29 506 29 477 68 c 128,-1,93
 448 107 448 107 434 157.5 c 128,-1,94
 420 208 420 208 420 261 c 0,95,96
 420 285 420 285 424.5 313.5 c 128,-1,97
 429 342 429 342 437 365 c 2,98,-1
 546 671 l 1,99,100
 475 635 475 635 412.5 574 c 128,-1,101
 350 513 350 513 298 440.5 c 128,-1,102
 246 368 246 368 205.5 289 c 128,-1,103
 165 210 165 210 139 137 c 0,104,105
 134 122 134 122 127 96.5 c 128,-1,106
 120 71 120 71 110.5 45.5 c 128,-1,107
 101 20 101 20 87 1.5 c 128,-1,108
 73 -17 73 -17 53 -17 c 0,109,110
 36 -17 36 -17 21.5 -5 c 128,-1,111
 7 7 7 7 7 25 c 0,112,113
 7 31 7 31 13.5 51 c 128,-1,114
 20 71 20 71 28.5 94.5 c 128,-1,115
 37 118 37 118 45 139.5 c 128,-1,116
 53 161 53 161 56 170 c 2,117,-1
 190 548 l 1,118,119
 183 540 183 540 165 520 c 128,-1,120
 147 500 147 500 124.5 474.5 c 128,-1,121
 102 449 102 449 76.5 421.5 c 128,-1,122
 51 394 51 394 27.5 371 c 128,-1,123
 4 348 4 348 -14 333 c 128,-1,124
 -32 318 -32 318 -40 318 c 0,0,1
EndSplineSet
EndChar

StartChar: x
Encoding: 120 120 89
Width: 1136
Flags: W
LayerCount: 2
Fore
SplineSet
-33 327 m 0,0,1
 -50 327 -50 327 -65 339 c 128,-1,2
 -80 351 -80 351 -80 370 c 0,3,4
 -80 383 -80 383 -67.5 400.5 c 128,-1,5
 -55 418 -55 418 -38 435 c 128,-1,6
 -21 452 -21 452 -4 467 c 128,-1,7
 13 482 13 482 23 491 c 0,8,9
 49 515 49 515 82 547 c 128,-1,10
 115 579 115 579 153 613.5 c 128,-1,11
 191 648 191 648 231.5 681 c 128,-1,12
 272 714 272 714 313.5 740.5 c 128,-1,13
 355 767 355 767 395.5 783 c 128,-1,14
 436 799 436 799 473 799 c 0,15,16
 511 799 511 799 532.5 778 c 128,-1,17
 554 757 554 757 564.5 727 c 128,-1,18
 575 697 575 697 577 662.5 c 128,-1,19
 579 628 579 628 577 601 c 1,20,21
 600 636 600 636 629.5 671 c 128,-1,22
 659 706 659 706 693.5 734 c 128,-1,23
 728 762 728 762 768.5 779.5 c 128,-1,24
 809 797 809 797 854 797 c 0,25,26
 884 797 884 797 917.5 791 c 128,-1,27
 951 785 951 785 978.5 770.5 c 128,-1,28
 1006 756 1006 756 1024 731.5 c 128,-1,29
 1042 707 1042 707 1042 670 c 0,30,31
 1042 619 1042 619 1016.5 576 c 128,-1,32
 991 533 991 533 950 498 c 128,-1,33
 909 463 909 463 856.5 436 c 128,-1,34
 804 409 804 409 749 389.5 c 128,-1,35
 694 370 694 370 642 359 c 128,-1,36
 590 348 590 348 550 345 c 1,37,38
 533 294 533 294 521.5 243 c 128,-1,39
 510 192 510 192 510 137 c 0,40,41
 510 131 510 131 510.5 119.5 c 128,-1,42
 511 108 511 108 514 97 c 128,-1,43
 517 86 517 86 523 78 c 128,-1,44
 529 70 529 70 539 70 c 0,45,46
 556 70 556 70 570.5 75 c 128,-1,47
 585 80 585 80 599 87 c 0,48,49
 674 123 674 123 733.5 155.5 c 128,-1,50
 793 188 793 188 847.5 224 c 128,-1,51
 902 260 902 260 956.5 303 c 128,-1,52
 1011 346 1011 346 1075 402 c 0,53,54
 1082 408 1082 408 1089.5 412 c 128,-1,55
 1097 416 1097 416 1107 416 c 0,56,57
 1124 416 1124 416 1138.5 403.5 c 128,-1,58
 1153 391 1153 391 1153 373 c 0,59,60
 1153 365 1153 365 1150 356 c 128,-1,61
 1147 347 1147 347 1141 341 c 0,62,63
 1116 312 1116 312 1071 274.5 c 128,-1,64
 1026 237 1026 237 970.5 197 c 128,-1,65
 915 157 915 157 852.5 118.5 c 128,-1,66
 790 80 790 80 730.5 49.5 c 128,-1,67
 671 19 671 19 618 0.5 c 128,-1,68
 565 -18 565 -18 528 -18 c 0,69,70
 489 -18 489 -18 466 5.5 c 128,-1,71
 443 29 443 29 432 63 c 128,-1,72
 421 97 421 97 420 134.5 c 128,-1,73
 419 172 419 172 424 200 c 1,74,75
 399 163 399 163 367 124.5 c 128,-1,76
 335 86 335 86 297.5 54.5 c 128,-1,77
 260 23 260 23 216.5 2.5 c 128,-1,78
 173 -18 173 -18 124 -18 c 0,79,80
 94 -18 94 -18 61.5 -12 c 128,-1,81
 29 -6 29 -6 3 9 c 128,-1,82
 -23 24 -23 24 -40 48.5 c 128,-1,83
 -57 73 -57 73 -57 110 c 0,84,85
 -57 161 -57 161 -31 203.5 c 128,-1,86
 -5 246 -5 246 37 281 c 128,-1,87
 79 316 79 316 132.5 342.5 c 128,-1,88
 186 369 186 369 241.5 388 c 128,-1,89
 297 407 297 407 349.5 418 c 128,-1,90
 402 429 402 429 442 432 c 1,91,92
 451 455 451 455 459.5 483.5 c 128,-1,93
 468 512 468 512 474.5 542 c 128,-1,94
 481 572 481 572 485.5 601.5 c 128,-1,95
 490 631 490 631 490 656 c 0,96,97
 490 662 490 662 489.5 671.5 c 128,-1,98
 489 681 489 681 486 689.5 c 128,-1,99
 483 698 483 698 477.5 704 c 128,-1,100
 472 710 472 710 463 710 c 0,101,102
 428 710 428 710 381.5 681.5 c 128,-1,103
 335 653 335 653 284.5 610.5 c 128,-1,104
 234 568 234 568 183 518.5 c 128,-1,105
 132 469 132 469 88.5 426.5 c 128,-1,106
 45 384 45 384 13 355.5 c 128,-1,107
 -19 327 -19 327 -33 327 c 0,0,1
125 70 m 0,108,109
 155 70 155 70 184 83.5 c 128,-1,110
 213 97 213 97 240 119 c 128,-1,111
 267 141 267 141 291 169.5 c 128,-1,112
 315 198 315 198 336 228 c 128,-1,113
 357 258 357 258 373.5 287 c 128,-1,114
 390 316 390 316 402 339 c 1,115,116
 377 335 377 335 340 325.5 c 128,-1,117
 303 316 303 316 262 301 c 128,-1,118
 221 286 221 286 180 266 c 128,-1,119
 139 246 139 246 106.5 221.5 c 128,-1,120
 74 197 74 197 53.5 169 c 128,-1,121
 33 141 33 141 33 110 c 0,122,123
 33 96 33 96 44 88 c 128,-1,124
 55 80 55 80 70 76 c 128,-1,125
 85 72 85 72 100.5 71 c 128,-1,126
 116 70 116 70 125 70 c 0,108,109
587 438 m 1,127,128
 629 444 629 444 681 458.5 c 128,-1,129
 733 473 733 473 783.5 496.5 c 128,-1,130
 834 520 834 520 876 551.5 c 128,-1,131
 918 583 918 583 940 624 c 0,132,133
 944 632 944 632 948.5 643.5 c 128,-1,134
 953 655 953 655 953 664 c 0,135,136
 953 680 953 680 941.5 689 c 128,-1,137
 930 698 930 698 914 702 c 128,-1,138
 898 706 898 706 881 707 c 128,-1,139
 864 708 864 708 854 708 c 0,140,141
 809 708 809 708 767.5 679 c 128,-1,142
 726 650 726 650 691.5 608.5 c 128,-1,143
 657 567 657 567 630 520.5 c 128,-1,144
 603 474 603 474 587 438 c 1,127,128
EndSplineSet
EndChar

StartChar: braceleft
Encoding: 123 123 92
Width: 722
Flags: W
LayerCount: 2
Fore
SplineSet
249 -120 m 0,0,1
 249 -138 249 -138 237 -152.5 c 128,-1,2
 225 -167 225 -167 206 -167 c 0,3,4
 186 -167 186 -167 170.5 -153 c 128,-1,5
 155 -139 155 -139 142.5 -116 c 128,-1,6
 130 -93 130 -93 121 -65 c 128,-1,7
 112 -37 112 -37 106 -9.5 c 128,-1,8
 100 18 100 18 97 42.5 c 128,-1,9
 94 67 94 67 94 82 c 0,10,11
 94 138 94 138 107.5 204 c 128,-1,12
 121 270 121 270 137.5 337.5 c 128,-1,13
 154 405 154 405 168 468.5 c 128,-1,14
 182 532 182 532 182 582 c 0,15,16
 182 622 182 622 167.5 645 c 128,-1,17
 153 668 153 668 136 683.5 c 128,-1,18
 119 699 119 699 104.5 711 c 128,-1,19
 90 723 90 723 90 741 c 0,20,21
 90 757 90 757 98.5 767 c 128,-1,22
 107 777 107 777 121 783 c 0,23,24
 181 812 181 812 222.5 848.5 c 128,-1,25
 264 885 264 885 295 928.5 c 128,-1,26
 326 972 326 972 351 1022.5 c 128,-1,27
 376 1073 376 1073 403 1131 c 0,28,29
 438 1205 438 1205 477.5 1278 c 128,-1,30
 517 1351 517 1351 564 1418.5 c 128,-1,31
 611 1486 611 1486 667.5 1545.5 c 128,-1,32
 724 1605 724 1605 795 1651 c 0,33,34
 808 1659 808 1659 822 1659 c 0,35,36
 839 1659 839 1659 852 1646 c 128,-1,37
 865 1633 865 1633 865 1616 c 0,38,39
 865 1593 865 1593 846 1578 c 0,40,41
 773 1520 773 1520 722 1468 c 128,-1,42
 671 1416 671 1416 631 1360 c 128,-1,43
 591 1304 591 1304 556.5 1239.5 c 128,-1,44
 522 1175 522 1175 483 1093 c 0,45,46
 458 1041 458 1041 432.5 989.5 c 128,-1,47
 407 938 407 938 376.5 891 c 128,-1,48
 346 844 346 844 307.5 803 c 128,-1,49
 269 762 269 762 217 731 c 1,50,51
 243 702 243 702 257.5 666 c 128,-1,52
 272 630 272 630 272 590 c 0,53,54
 272 527 272 527 258 466.5 c 128,-1,55
 244 406 244 406 230 346 c 0,56,57
 217 290 217 290 207 234 c 128,-1,58
 197 178 197 178 187 122 c 0,59,60
 185 110 185 110 183.5 97.5 c 128,-1,61
 182 85 182 85 182 72 c 0,62,63
 182 35 182 35 192.5 3 c 128,-1,64
 203 -29 203 -29 215.5 -54 c 128,-1,65
 228 -79 228 -79 238.5 -96 c 128,-1,66
 249 -113 249 -113 249 -120 c 0,0,1
EndSplineSet
EndChar

StartChar: bar
Encoding: 124 124 93
Width: 597
Flags: W
LayerCount: 2
Fore
SplineSet
713 1862 m 0,0,1
 732 1862 732 1862 744.5 1850 c 128,-1,2
 757 1838 757 1838 757 1819 c 0,3,4
 757 1815 757 1815 738.5 1760 c 128,-1,5
 720 1705 720 1705 688 1613 c 128,-1,6
 656 1521 656 1521 613 1399 c 128,-1,7
 570 1277 570 1277 521 1139 c 128,-1,8
 472 1001 472 1001 420 854.5 c 128,-1,9
 368 708 368 708 317.5 566.5 c 128,-1,10
 267 425 267 425 220.5 295.5 c 128,-1,11
 174 166 174 166 137.5 63 c 128,-1,12
 101 -40 101 -40 75.5 -110.5 c 128,-1,13
 50 -181 50 -181 42 -204 c 0,14,15
 37 -218 37 -218 24.5 -226 c 128,-1,16
 12 -234 12 -234 -2 -234 c 0,17,18
 -20 -234 -20 -234 -33 -220 c 128,-1,19
 -46 -206 -46 -206 -46 -189 c 0,20,21
 -46 -186 -46 -186 -27.5 -131.5 c 128,-1,22
 -9 -77 -9 -77 23.5 14.5 c 128,-1,23
 56 106 56 106 99 228 c 128,-1,24
 142 350 142 350 191.5 488.5 c 128,-1,25
 241 627 241 627 293 774 c 128,-1,26
 345 921 345 921 396 1063 c 128,-1,27
 447 1205 447 1205 493.5 1335 c 128,-1,28
 540 1465 540 1465 576.5 1568 c 128,-1,29
 613 1671 613 1671 638 1741 c 128,-1,30
 663 1811 663 1811 671 1833 c 0,31,32
 676 1846 676 1846 687.5 1854 c 128,-1,33
 699 1862 699 1862 713 1862 c 0,0,1
EndSplineSet
EndChar

StartChar: braceright
Encoding: 125 125 94
Width: 877
Flags: W
LayerCount: 2
Fore
SplineSet
701 1612 m 0,0,1
 701 1630 701 1630 713 1644.5 c 128,-1,2
 725 1659 725 1659 744 1659 c 0,3,4
 770 1659 770 1659 791 1630.5 c 128,-1,5
 812 1602 812 1602 826.5 1563.5 c 128,-1,6
 841 1525 841 1525 848.5 1485.5 c 128,-1,7
 856 1446 856 1446 856 1425 c 0,8,9
 856 1366 856 1366 846.5 1306 c 128,-1,10
 837 1246 837 1246 823.5 1185.5 c 128,-1,11
 810 1125 810 1125 795 1065 c 128,-1,12
 780 1005 780 1005 770 948 c 0,13,14
 768 939 768 939 767 930 c 128,-1,15
 766 921 766 921 766 911 c 0,16,17
 766 870 766 870 780.5 847 c 128,-1,18
 795 824 795 824 813 809 c 128,-1,19
 831 794 831 794 845.5 782 c 128,-1,20
 860 770 860 770 860 751 c 0,21,22
 860 735 860 735 851.5 725.5 c 128,-1,23
 843 716 843 716 829 709 c 0,24,25
 769 679 769 679 727.5 643 c 128,-1,26
 686 607 686 607 655.5 563.5 c 128,-1,27
 625 520 625 520 600 469.5 c 128,-1,28
 575 419 575 419 547 361 c 0,29,30
 512 288 512 288 473 214 c 128,-1,31
 434 140 434 140 387 72 c 128,-1,32
 340 4 340 4 283 -55.5 c 128,-1,33
 226 -115 226 -115 155 -159 c 0,34,35
 150 -162 150 -162 142 -164.5 c 128,-1,36
 134 -167 134 -167 128 -167 c 0,37,38
 111 -167 111 -167 98 -154.5 c 128,-1,39
 85 -142 85 -142 85 -125 c 0,40,41
 85 -102 85 -102 104 -86 c 0,42,43
 178 -27 178 -27 229 25 c 128,-1,44
 280 77 280 77 319.5 132 c 128,-1,45
 359 187 359 187 393 251 c 128,-1,46
 427 315 427 315 467 399 c 0,47,48
 491 450 491 450 516.5 502 c 128,-1,49
 542 554 542 554 573 601.5 c 128,-1,50
 604 649 604 649 643 690 c 128,-1,51
 682 731 682 731 733 761 c 1,52,53
 677 823 677 823 677 904 c 0,54,55
 677 963 677 963 691 1029 c 128,-1,56
 705 1095 705 1095 722 1162.5 c 128,-1,57
 739 1230 739 1230 753 1295.5 c 128,-1,58
 767 1361 767 1361 767 1420 c 0,59,60
 767 1457 767 1457 756.5 1489.5 c 128,-1,61
 746 1522 746 1522 734 1546.5 c 128,-1,62
 722 1571 722 1571 711.5 1588 c 128,-1,63
 701 1605 701 1605 701 1612 c 0,0,1
EndSplineSet
EndChar

StartChar: asciitilde
Encoding: 126 126 95
Width: 771
Flags: W
LayerCount: 2
Fore
SplineSet
239 779 m 0,0,1
 239 761 239 761 227 747 c 128,-1,2
 215 733 215 733 195 733 c 0,3,4
 177 733 177 733 167.5 741 c 128,-1,5
 158 749 158 749 153.5 761.5 c 128,-1,6
 149 774 149 774 148.5 788.5 c 128,-1,7
 148 803 148 803 148 816 c 0,8,9
 148 855 148 855 159 889.5 c 128,-1,10
 170 924 170 924 191 950.5 c 128,-1,11
 212 977 212 977 243.5 992.5 c 128,-1,12
 275 1008 275 1008 317 1008 c 0,13,14
 354 1008 354 1008 390 995.5 c 128,-1,15
 426 983 426 983 455.5 961 c 128,-1,16
 485 939 485 939 507 908.5 c 128,-1,17
 529 878 529 878 539 842 c 0,18,19
 550 801 550 801 581.5 777.5 c 128,-1,20
 613 754 613 754 656 754 c 0,21,22
 688 754 688 754 707.5 765.5 c 128,-1,23
 727 777 727 777 737 796.5 c 128,-1,24
 747 816 747 816 750 840 c 128,-1,25
 753 864 753 864 753 890 c 0,26,27
 753 908 753 908 766 921 c 128,-1,28
 779 934 779 934 797 934 c 0,29,30
 813 934 813 934 822.5 927 c 128,-1,31
 832 920 832 920 836.5 909.5 c 128,-1,32
 841 899 841 899 842 886.5 c 128,-1,33
 843 874 843 874 843 862 c 0,34,35
 843 819 843 819 829.5 783 c 128,-1,36
 816 747 816 747 791.5 720.5 c 128,-1,37
 767 694 767 694 731.5 679.5 c 128,-1,38
 696 665 696 665 653 665 c 0,39,40
 627 665 627 665 598 673 c 0,41,42
 550 687 550 687 523 710.5 c 128,-1,43
 496 734 496 734 479.5 761.5 c 128,-1,44
 463 789 463 789 452 817 c 128,-1,45
 441 845 441 845 426 867.5 c 128,-1,46
 411 890 411 890 387 904.5 c 128,-1,47
 363 919 363 919 321 919 c 0,48,49
 288 919 288 919 271 906 c 128,-1,50
 254 893 254 893 247 872.5 c 128,-1,51
 240 852 240 852 239.5 827.5 c 128,-1,52
 239 803 239 803 239 779 c 0,0,1
EndSplineSet
EndChar

StartChar: exclamdown
Encoding: 161 161 98
Width: 597
Flags: W
LayerCount: 2
Fore
SplineSet
-124 -575 m 0,0,1
 -143 -575 -143 -575 -155.5 -563 c 128,-1,2
 -168 -551 -168 -551 -168 -532 c 0,3,4
 -168 -527 -168 -527 -153 -481.5 c 128,-1,5
 -138 -436 -138 -436 -113.5 -364.5 c 128,-1,6
 -89 -293 -89 -293 -57 -203 c 128,-1,7
 -25 -113 -25 -113 9 -17.5 c 128,-1,8
 43 78 43 78 76 171.5 c 128,-1,9
 109 265 109 265 137 342.5 c 128,-1,10
 165 420 165 420 184.5 474.5 c 128,-1,11
 204 529 204 529 210 546 c 0,12,13
 215 560 215 560 227.5 568 c 128,-1,14
 240 576 240 576 254 576 c 0,15,16
 272 576 272 576 285 562 c 128,-1,17
 298 548 298 548 298 531 c 0,18,19
 298 528 298 528 283 483 c 128,-1,20
 268 438 268 438 243 367 c 128,-1,21
 218 296 218 296 185.5 205 c 128,-1,22
 153 114 153 114 119 17.5 c 128,-1,23
 85 -79 85 -79 51.5 -173 c 128,-1,24
 18 -267 18 -267 -10 -344.5 c 128,-1,25
 -38 -422 -38 -422 -57 -476 c 128,-1,26
 -76 -530 -76 -530 -82 -546 c 0,27,28
 -87 -559 -87 -559 -98.5 -567 c 128,-1,29
 -110 -575 -110 -575 -124 -575 c 0,0,1
319 707 m 0,30,31
 302 707 302 707 288 715 c 128,-1,32
 274 723 274 723 264 735.5 c 128,-1,33
 254 748 254 748 249 764 c 128,-1,34
 244 780 244 780 244 796 c 0,35,36
 244 817 244 817 250.5 838 c 128,-1,37
 257 859 257 859 269.5 875.5 c 128,-1,38
 282 892 282 892 300 902 c 128,-1,39
 318 912 318 912 341 912 c 0,40,41
 357 912 357 912 370 903.5 c 128,-1,42
 383 895 383 895 392 882.5 c 128,-1,43
 401 870 401 870 405.5 854.5 c 128,-1,44
 410 839 410 839 410 825 c 0,45,46
 410 807 410 807 404 786 c 128,-1,47
 398 765 398 765 386 747.5 c 128,-1,48
 374 730 374 730 357 718.5 c 128,-1,49
 340 707 340 707 319 707 c 0,30,31
EndSplineSet
EndChar

StartChar: cent
Encoding: 162 162 99
Width: 880
Flags: W
LayerCount: 2
Fore
SplineSet
300 203 m 0,0,1
 281 203 281 203 268.5 215 c 128,-1,2
 256 227 256 227 256 246 c 0,3,4
 256 256 256 256 260.5 272.5 c 128,-1,5
 265 289 265 289 271.5 306.5 c 128,-1,6
 278 324 278 324 284.5 340 c 128,-1,7
 291 356 291 356 295 367 c 1,8,9
 245 367 245 367 209 385 c 128,-1,10
 173 403 173 403 149 434 c 128,-1,11
 125 465 125 465 113.5 506 c 128,-1,12
 102 547 102 547 102 593 c 0,13,14
 102 655 102 655 120 719 c 128,-1,15
 138 783 138 783 170.5 843.5 c 128,-1,16
 203 904 203 904 247.5 959 c 128,-1,17
 292 1014 292 1014 345.5 1057.5 c 128,-1,18
 399 1101 399 1101 458.5 1131 c 128,-1,19
 518 1161 518 1161 580 1173 c 1,20,-1
 634 1324 l 2,21,22
 639 1338 639 1338 651.5 1346 c 128,-1,23
 664 1354 664 1354 678 1354 c 0,24,25
 696 1354 696 1354 709 1340 c 128,-1,26
 722 1326 722 1326 722 1309 c 0,27,28
 722 1303 722 1303 716 1285 c 128,-1,29
 710 1267 710 1267 702.5 1246 c 128,-1,30
 695 1225 695 1225 688 1206 c 128,-1,31
 681 1187 681 1187 678 1180 c 1,32,33
 756 1172 756 1172 795 1124 c 128,-1,34
 834 1076 834 1076 834 1000 c 0,35,36
 834 979 834 979 822.5 958 c 128,-1,37
 811 937 811 937 787 937 c 0,38,39
 767 937 767 937 758 944 c 128,-1,40
 749 951 749 951 746 961.5 c 128,-1,41
 743 972 743 972 744 985 c 128,-1,42
 745 998 745 998 745 1010 c 0,43,44
 745 1045 745 1045 719.5 1069 c 128,-1,45
 694 1093 694 1093 660 1093 c 2,46,-1
 647 1093 l 1,47,-1
 429 476 l 1,48,49
 493 497 493 497 549.5 530.5 c 128,-1,50
 606 564 606 564 657.5 605 c 128,-1,51
 709 646 709 646 756 692.5 c 128,-1,52
 803 739 803 739 849 786 c 0,53,54
 864 801 864 801 881 801 c 256,55,56
 898 801 898 801 912.5 788 c 128,-1,57
 927 775 927 775 927 758 c 0,58,59
 927 739 927 739 915 726 c 0,60,61
 864 667 864 667 805.5 610.5 c 128,-1,62
 747 554 747 554 681.5 506.5 c 128,-1,63
 616 459 616 459 544 424.5 c 128,-1,64
 472 390 472 390 393 375 c 1,65,-1
 342 232 l 2,66,67
 337 219 337 219 325.5 211 c 128,-1,68
 314 203 314 203 300 203 c 0,0,1
192 593 m 0,69,70
 192 567 192 567 196 542.5 c 128,-1,71
 200 518 200 518 210.5 498.5 c 128,-1,72
 221 479 221 479 240.5 467 c 128,-1,73
 260 455 260 455 290 455 c 0,74,75
 299 455 299 455 308 455 c 128,-1,76
 317 455 317 455 326 456 c 1,77,-1
 543 1069 l 1,78,79
 473 1040 473 1040 409.5 991.5 c 128,-1,80
 346 943 346 943 297.5 880.5 c 128,-1,81
 249 818 249 818 220.5 744.5 c 128,-1,82
 192 671 192 671 192 593 c 0,69,70
EndSplineSet
EndChar

StartChar: sterling
Encoding: 163 163 100
Width: 1304
Flags: W
LayerCount: 2
Fore
SplineSet
311 482 m 0,0,1
 311 501 311 501 324 514 c 128,-1,2
 337 527 337 527 356 527 c 2,3,-1
 531 527 l 1,4,-1
 758 1220 l 2,5,6
 780 1287 780 1287 823.5 1337 c 128,-1,7
 867 1387 867 1387 924 1420 c 128,-1,8
 981 1453 981 1453 1047.5 1469.5 c 128,-1,9
 1114 1486 1114 1486 1181 1486 c 0,10,11
 1223 1486 1223 1486 1266.5 1475 c 128,-1,12
 1310 1464 1310 1464 1345 1441 c 128,-1,13
 1380 1418 1380 1418 1402.5 1382.5 c 128,-1,14
 1425 1347 1425 1347 1425 1298 c 0,15,16
 1425 1284 1425 1284 1423 1266.5 c 128,-1,17
 1421 1249 1421 1249 1414 1233 c 128,-1,18
 1407 1217 1407 1217 1396 1206 c 128,-1,19
 1385 1195 1385 1195 1367 1195 c 0,20,21
 1350 1195 1350 1195 1336 1208.5 c 128,-1,22
 1322 1222 1322 1222 1322 1239 c 0,23,24
 1322 1255 1322 1255 1328.5 1268.5 c 128,-1,25
 1335 1282 1335 1282 1335 1298 c 0,26,27
 1335 1325 1335 1325 1319 1343.5 c 128,-1,28
 1303 1362 1303 1362 1279.5 1374 c 128,-1,29
 1256 1386 1256 1386 1229 1391.5 c 128,-1,30
 1202 1397 1202 1397 1181 1397 c 0,31,32
 1133 1397 1133 1397 1081 1385.5 c 128,-1,33
 1029 1374 1029 1374 982.5 1351 c 128,-1,34
 936 1328 936 1328 900 1291.5 c 128,-1,35
 864 1255 864 1255 848 1206 c 2,36,-1
 625 527 l 1,37,-1
 925 527 l 2,38,39
 944 527 944 527 956.5 513.5 c 128,-1,40
 969 500 969 500 969 482 c 256,41,42
 969 464 969 464 956 451 c 128,-1,43
 943 438 943 438 925 438 c 2,44,-1
 595 438 l 1,45,46
 584 403 584 403 573 372 c 128,-1,47
 562 341 562 341 550 312 c 128,-1,48
 538 283 538 283 523.5 254 c 128,-1,49
 509 225 509 225 490 194 c 1,50,51
 510 174 510 174 541 152.5 c 128,-1,52
 572 131 572 131 607 113 c 128,-1,53
 642 95 642 95 677 83.5 c 128,-1,54
 712 72 712 72 741 72 c 0,55,56
 801 72 801 72 860.5 97.5 c 128,-1,57
 920 123 920 123 974.5 161 c 128,-1,58
 1029 199 1029 199 1077.5 244 c 128,-1,59
 1126 289 1126 289 1164.5 327 c 128,-1,60
 1203 365 1203 365 1230 390.5 c 128,-1,61
 1257 416 1257 416 1269 416 c 0,62,63
 1290 416 1290 416 1302.5 402.5 c 128,-1,64
 1315 389 1315 389 1315 369 c 0,65,66
 1315 355 1315 355 1303 341 c 0,67,68
 1270 304 1270 304 1231 263 c 128,-1,69
 1192 222 1192 222 1147.5 182 c 128,-1,70
 1103 142 1103 142 1054.5 105 c 128,-1,71
 1006 68 1006 68 954.5 40 c 128,-1,72
 903 12 903 12 850 -4.5 c 128,-1,73
 797 -21 797 -21 744 -21 c 0,74,75
 697 -21 697 -21 656.5 -7.5 c 128,-1,76
 616 6 616 6 579 27 c 128,-1,77
 542 48 542 48 507 73.5 c 128,-1,78
 472 99 472 99 435 123 c 1,79,80
 410 97 410 97 382 72 c 128,-1,81
 354 47 354 47 323 27 c 128,-1,82
 292 7 292 7 257.5 -5.5 c 128,-1,83
 223 -18 223 -18 185 -18 c 0,84,85
 155 -18 155 -18 122.5 -12.5 c 128,-1,86
 90 -7 90 -7 62.5 7.5 c 128,-1,87
 35 22 35 22 17.5 46 c 128,-1,88
 0 70 0 70 0 107 c 0,89,90
 0 150 0 150 24.5 183.5 c 128,-1,91
 49 217 49 217 85.5 240.5 c 128,-1,92
 122 264 122 264 164.5 276 c 128,-1,93
 207 288 207 288 243 288 c 0,94,95
 288 288 288 288 332 276 c 128,-1,96
 376 264 376 264 415 242 c 1,97,98
 447 287 447 287 466 336 c 128,-1,99
 485 385 485 385 502 438 c 1,100,-1
 356 438 l 2,101,102
 338 438 338 438 324.5 451 c 128,-1,103
 311 464 311 464 311 482 c 0,0,1
357 171 m 1,104,105
 303 199 303 199 245 199 c 0,106,107
 199 199 199 199 158 180.5 c 128,-1,108
 117 162 117 162 92 121 c 1,109,110
 91 116 91 116 90.5 111.5 c 128,-1,111
 90 107 90 107 90 102 c 0,112,113
 90 91 90 91 102.5 85 c 128,-1,114
 115 79 115 79 131 75.5 c 128,-1,115
 147 72 147 72 162.5 71 c 128,-1,116
 178 70 178 70 185 70 c 0,117,118
 209 70 209 70 233 80 c 128,-1,119
 257 90 257 90 279.5 105 c 128,-1,120
 302 120 302 120 322 137.5 c 128,-1,121
 342 155 342 155 357 171 c 1,104,105
EndSplineSet
EndChar

StartChar: currency
Encoding: 164 164 101
Width: 970
Flags: W
LayerCount: 2
Fore
SplineSet
1008 1176 m 0,0,1
 1026 1176 1026 1176 1039 1162.5 c 128,-1,2
 1052 1149 1052 1149 1052 1131 c 0,3,4
 1052 1106 1052 1106 1031 1093 c 2,5,-1
 898 1012 l 1,6,7
 910 958 910 958 910 901 c 0,8,9
 910 857 910 857 905 819.5 c 128,-1,10
 900 782 900 782 888.5 747.5 c 128,-1,11
 877 713 877 713 859 679.5 c 128,-1,12
 841 646 841 646 815 610 c 1,13,14
 827 601 827 601 849 585.5 c 128,-1,15
 871 570 871 570 893 552.5 c 128,-1,16
 915 535 915 535 931.5 516.5 c 128,-1,17
 948 498 948 498 948 482 c 0,18,19
 948 464 948 464 934 452 c 128,-1,20
 920 440 920 440 903 440 c 0,21,22
 889 440 889 440 868.5 453 c 128,-1,23
 848 466 848 466 827 483 c 128,-1,24
 806 500 806 500 786.5 517 c 128,-1,25
 767 534 767 534 757 542 c 1,26,27
 697 486 697 486 629.5 459.5 c 128,-1,28
 562 433 562 433 479 433 c 0,29,30
 413 433 413 433 350 458 c 128,-1,31
 287 483 287 483 244 536 c 1,32,33
 235 530 235 530 214.5 517 c 128,-1,34
 194 504 194 504 172 490.5 c 128,-1,35
 150 477 150 477 129.5 466.5 c 128,-1,36
 109 456 109 456 100 456 c 0,37,38
 82 456 82 456 68 468.5 c 128,-1,39
 54 481 54 481 54 499 c 0,40,41
 54 525 54 525 77 540 c 1,42,-1
 202 615 l 1,43,44
 193 640 193 640 189.5 666 c 128,-1,45
 186 692 186 692 186 718 c 0,46,47
 186 809 186 809 217 891 c 128,-1,48
 248 973 248 973 302 1045 c 1,49,50
 291 1054 291 1054 269 1068.5 c 128,-1,51
 247 1083 247 1083 225 1100 c 128,-1,52
 203 1117 203 1117 187 1135.5 c 128,-1,53
 171 1154 171 1154 171 1171 c 0,54,55
 171 1191 171 1191 183.5 1203.5 c 128,-1,56
 196 1216 196 1216 216 1216 c 0,57,58
 221 1216 221 1216 231 1214 c 1,59,60
 244 1208 244 1208 261 1195 c 128,-1,61
 278 1182 278 1182 296 1167 c 128,-1,62
 314 1152 314 1152 331 1137 c 128,-1,63
 348 1122 348 1122 360 1112 c 1,64,65
 387 1139 387 1139 419 1164 c 128,-1,66
 451 1189 451 1189 486 1207.5 c 128,-1,67
 521 1226 521 1226 559 1237 c 128,-1,68
 597 1248 597 1248 637 1248 c 0,69,70
 714 1248 714 1248 773.5 1206.5 c 128,-1,71
 833 1165 833 1165 867 1098 c 1,72,73
 876 1104 876 1104 896 1116.5 c 128,-1,74
 916 1129 916 1129 937.5 1142.5 c 128,-1,75
 959 1156 959 1156 979 1166 c 128,-1,76
 999 1176 999 1176 1008 1176 c 0,0,1
821 908 m 0,77,78
 821 949 821 949 810.5 993.5 c 128,-1,79
 800 1038 800 1038 777.5 1074.5 c 128,-1,80
 755 1111 755 1111 720 1135 c 128,-1,81
 685 1159 685 1159 637 1159 c 0,82,83
 590 1159 590 1159 545 1138.5 c 128,-1,84
 500 1118 500 1118 459.5 1083.5 c 128,-1,85
 419 1049 419 1049 385.5 1004 c 128,-1,86
 352 959 352 959 327.5 910 c 128,-1,87
 303 861 303 861 289.5 811 c 128,-1,88
 276 761 276 761 276 718 c 0,89,90
 276 622 276 622 330.5 571.5 c 128,-1,91
 385 521 385 521 479 521 c 0,92,93
 557 521 557 521 620 554 c 128,-1,94
 683 587 683 587 727.5 641.5 c 128,-1,95
 772 696 772 696 796.5 765.5 c 128,-1,96
 821 835 821 835 821 908 c 0,77,78
EndSplineSet
EndChar

StartChar: yen
Encoding: 165 165 102
Width: 1155
Flags: W
LayerCount: 2
Fore
SplineSet
321 0 m 1,0,-1
 394 236 l 1,1,-1
 60 236 l 1,2,-1
 93 344 l 1,3,-1
 427 344 l 1,4,-1
 502 588 l 1,5,-1
 168 588 l 1,6,-1
 202 696 l 1,7,-1
 507 696 l 1,8,9
 442 887 442 887 392.5 1064 c 128,-1,10
 343 1241 343 1241 309 1419 c 1,11,-1
 423 1419 l 1,12,13
 451 1249 451 1249 495.5 1082 c 128,-1,14
 540 915 540 915 597 760 c 1,15,16
 749 915 749 915 896 1082 c 128,-1,17
 1043 1249 1043 1249 1174 1419 c 1,18,-1
 1310 1419 l 1,19,20
 1167 1241 1167 1241 1007 1064 c 128,-1,21
 847 887 847 887 666 696 c 1,22,-1
 975 696 l 1,23,-1
 941 588 l 1,24,-1
 607 588 l 1,25,-1
 532 344 l 1,26,-1
 866 344 l 1,27,-1
 833 236 l 1,28,-1
 499 236 l 1,29,-1
 426 0 l 1,30,-1
 321 0 l 1,0,-1
EndSplineSet
EndChar

StartChar: brokenbar
Encoding: 166 166 103
Width: 597
Flags: W
LayerCount: 2
Fore
SplineSet
42 -204 m 0,0,1
 37 -218 37 -218 24.5 -226 c 128,-1,2
 12 -234 12 -234 -2 -234 c 0,3,4
 -20 -234 -20 -234 -33 -220 c 128,-1,5
 -46 -206 -46 -206 -46 -189 c 0,6,7
 -46 -187 -46 -187 -34 -151 c 128,-1,8
 -22 -115 -22 -115 -0.5 -53 c 128,-1,9
 21 9 21 9 51 94 c 128,-1,10
 81 179 81 179 116.5 279 c 128,-1,11
 152 379 152 379 192 490.5 c 128,-1,12
 232 602 232 602 273 718 c 1,13,-1
 371 718 l 1,14,15
 332 609 332 609 294.5 503 c 128,-1,16
 257 397 257 397 222.5 300.5 c 128,-1,17
 188 204 188 204 158 119.5 c 128,-1,18
 128 35 128 35 104 -31 c 128,-1,19
 80 -97 80 -97 64 -142 c 128,-1,20
 48 -187 48 -187 42 -204 c 0,0,1
713 1862 m 0,21,22
 732 1862 732 1862 744.5 1850 c 128,-1,23
 757 1838 757 1838 757 1819 c 0,24,25
 757 1816 757 1816 747.5 1786.5 c 128,-1,26
 738 1757 738 1757 720.5 1706.5 c 128,-1,27
 703 1656 703 1656 679 1586.5 c 128,-1,28
 655 1517 655 1517 625.5 1434 c 128,-1,29
 596 1351 596 1351 562.5 1256.5 c 128,-1,30
 529 1162 529 1162 494 1062 c 1,31,-1
 395 1062 l 1,32,-1
 671 1833 l 2,33,34
 676 1846 676 1846 687.5 1854 c 128,-1,35
 699 1862 699 1862 713 1862 c 0,21,22
EndSplineSet
EndChar

StartChar: section
Encoding: 167 167 104
Width: 861
Flags: W
LayerCount: 2
Fore
SplineSet
264 1037 m 1,0,1
 244 1062 244 1062 234 1091.5 c 128,-1,2
 224 1121 224 1121 224 1153 c 0,3,4
 224 1229 224 1229 256.5 1293.5 c 128,-1,5
 289 1358 289 1358 342.5 1405 c 128,-1,6
 396 1452 396 1452 465 1478 c 128,-1,7
 534 1504 534 1504 606 1504 c 0,8,9
 676 1504 676 1504 733 1481.5 c 128,-1,10
 790 1459 790 1459 830.5 1418.5 c 128,-1,11
 871 1378 871 1378 893 1320.5 c 128,-1,12
 915 1263 915 1263 915 1194 c 0,13,14
 915 1180 915 1180 913.5 1152.5 c 128,-1,15
 912 1125 912 1125 906.5 1097 c 128,-1,16
 901 1069 901 1069 890 1048.5 c 128,-1,17
 879 1028 879 1028 861 1028 c 256,18,19
 843 1028 843 1028 825.5 1037.5 c 128,-1,20
 808 1047 808 1047 808 1067 c 0,21,22
 808 1098 808 1098 817 1130.5 c 128,-1,23
 826 1163 826 1163 826 1196 c 0,24,25
 826 1299 826 1299 766.5 1357 c 128,-1,26
 707 1415 707 1415 605 1415 c 0,27,28
 552 1415 552 1415 500.5 1396.5 c 128,-1,29
 449 1378 449 1378 408.5 1344.5 c 128,-1,30
 368 1311 368 1311 342.5 1264 c 128,-1,31
 317 1217 317 1217 317 1161 c 0,32,33
 317 1124 317 1124 339.5 1095.5 c 128,-1,34
 362 1067 362 1067 399.5 1044 c 128,-1,35
 437 1021 437 1021 484.5 1000.5 c 128,-1,36
 532 980 532 980 581.5 958.5 c 128,-1,37
 631 937 631 937 678.5 913 c 128,-1,38
 726 889 726 889 763.5 858 c 128,-1,39
 801 827 801 827 823.5 787.5 c 128,-1,40
 846 748 846 748 846 696 c 0,41,42
 846 676 846 676 837 639.5 c 128,-1,43
 828 603 828 603 813.5 566.5 c 128,-1,44
 799 530 799 530 780.5 501 c 128,-1,45
 762 472 762 472 743 467 c 1,46,47
 783 415 783 415 783 350 c 0,48,49
 783 274 783 274 751 209.5 c 128,-1,50
 719 145 719 145 666 98.5 c 128,-1,51
 613 52 613 52 544.5 25.5 c 128,-1,52
 476 -1 476 -1 404 -1 c 0,53,54
 335 -1 335 -1 277.5 21 c 128,-1,55
 220 43 220 43 179 83 c 128,-1,56
 138 123 138 123 115 179.5 c 128,-1,57
 92 236 92 236 92 306 c 0,58,59
 92 321 92 321 93.5 349 c 128,-1,60
 95 377 95 377 100.5 405 c 128,-1,61
 106 433 106 433 117.5 454 c 128,-1,62
 129 475 129 475 149 475 c 0,63,64
 168 475 168 475 183.5 464.5 c 128,-1,65
 199 454 199 454 199 433 c 0,66,67
 199 402 199 402 189.5 369.5 c 128,-1,68
 180 337 180 337 180 304 c 0,69,70
 180 255 180 255 196 215 c 128,-1,71
 212 175 212 175 240.5 147 c 128,-1,72
 269 119 269 119 309 103.5 c 128,-1,73
 349 88 349 88 398 88 c 0,74,75
 450 88 450 88 502.5 106 c 128,-1,76
 555 124 555 124 597 157.5 c 128,-1,77
 639 191 639 191 665 237.5 c 128,-1,78
 691 284 691 284 691 341 c 0,79,80
 691 378 691 378 668 406.5 c 128,-1,81
 645 435 645 435 608 458.5 c 128,-1,82
 571 482 571 482 523 502.5 c 128,-1,83
 475 523 475 523 425.5 545 c 128,-1,84
 376 567 376 567 328 591 c 128,-1,85
 280 615 280 615 243 646 c 128,-1,86
 206 677 206 677 183 716 c 128,-1,87
 160 755 160 755 160 806 c 0,88,89
 160 826 160 826 169.5 863 c 128,-1,90
 179 900 179 900 194 937 c 128,-1,91
 209 974 209 974 227.5 1003 c 128,-1,92
 246 1032 246 1032 264 1037 c 1,0,1
319 985 m 1,93,94
 311 962 311 962 300.5 942.5 c 128,-1,95
 290 923 290 923 280 902.5 c 128,-1,96
 270 882 270 882 263 860.5 c 128,-1,97
 256 839 256 839 256 814 c 0,98,99
 256 775 256 775 279.5 744 c 128,-1,100
 303 713 303 713 341 687 c 128,-1,101
 379 661 379 661 426.5 639.5 c 128,-1,102
 474 618 474 618 522.5 598 c 128,-1,103
 571 578 571 578 614.5 558.5 c 128,-1,104
 658 539 658 539 689 518 c 1,105,106
 693 537 693 537 703 554.5 c 128,-1,107
 713 572 713 572 723.5 591.5 c 128,-1,108
 734 611 734 611 742.5 633.5 c 128,-1,109
 751 656 751 656 751 685 c 0,110,111
 751 726 751 726 727 758.5 c 128,-1,112
 703 791 703 791 664 817 c 128,-1,113
 625 843 625 843 577 865 c 128,-1,114
 529 887 529 887 481 906.5 c 128,-1,115
 433 926 433 926 390 945 c 128,-1,116
 347 964 347 964 319 985 c 1,93,94
EndSplineSet
EndChar

StartChar: dieresis
Encoding: 168 168 105
Width: 1189
Flags: W
LayerCount: 2
Fore
SplineSet
743 1239 m 0,0,1
 762 1239 762 1239 775 1226 c 128,-1,2
 788 1213 788 1213 788 1194 c 0,3,4
 788 1184 788 1184 780 1159 c 128,-1,5
 772 1134 772 1134 761.5 1105.5 c 128,-1,6
 751 1077 751 1077 741 1050.5 c 128,-1,7
 731 1024 731 1024 727 1012 c 0,8,9
 722 998 722 998 710 990 c 128,-1,10
 698 982 698 982 684 982 c 0,11,12
 666 982 666 982 653 995.5 c 128,-1,13
 640 1009 640 1009 640 1027 c 0,14,15
 640 1034 640 1034 648.5 1059.5 c 128,-1,16
 657 1085 657 1085 667.5 1115 c 128,-1,17
 678 1145 678 1145 688.5 1172 c 128,-1,18
 699 1199 699 1199 702 1209 c 0,19,20
 707 1222 707 1222 718 1230.5 c 128,-1,21
 729 1239 729 1239 743 1239 c 0,0,1
457 1239 m 0,22,23
 476 1239 476 1239 489 1226 c 128,-1,24
 502 1213 502 1213 502 1194 c 0,25,26
 502 1184 502 1184 494 1159 c 128,-1,27
 486 1134 486 1134 475.5 1105.5 c 128,-1,28
 465 1077 465 1077 455 1050.5 c 128,-1,29
 445 1024 445 1024 441 1012 c 0,30,31
 436 998 436 998 424 990 c 128,-1,32
 412 982 412 982 398 982 c 0,33,34
 380 982 380 982 367 995.5 c 128,-1,35
 354 1009 354 1009 354 1027 c 0,36,37
 354 1034 354 1034 362.5 1059.5 c 128,-1,38
 371 1085 371 1085 381.5 1115 c 128,-1,39
 392 1145 392 1145 402.5 1172 c 128,-1,40
 413 1199 413 1199 416 1209 c 0,41,42
 421 1222 421 1222 432 1230.5 c 128,-1,43
 443 1239 443 1239 457 1239 c 0,22,23
EndSplineSet
EndChar

StartChar: copyright
Encoding: 169 169 106
Width: 1692
Flags: W
LayerCount: 2
Fore
SplineSet
856 291 m 0,0,1
 776 291 776 291 707.5 319.5 c 128,-1,2
 639 348 639 348 588 401.5 c 128,-1,3
 537 455 537 455 508 533.5 c 128,-1,4
 479 612 479 612 479 713 c 0,5,6
 479 811 479 811 511 888 c 128,-1,7
 543 965 543 965 596 1019 c 128,-1,8
 649 1073 649 1073 718.5 1100.5 c 128,-1,9
 788 1128 788 1128 864 1128 c 0,10,11
 965 1128 965 1128 1027.5 1100.5 c 128,-1,12
 1090 1073 1090 1073 1112 1057 c 1,13,-1
 1073 965 l 1,14,15
 1042 981 1042 981 994 1000.5 c 128,-1,16
 946 1020 946 1020 864 1020 c 0,17,18
 752 1020 752 1020 677 940 c 128,-1,19
 602 860 602 860 602 713 c 0,20,21
 602 561 602 561 675 480 c 128,-1,22
 748 399 748 399 872 399 c 0,23,24
 961 399 961 399 1011 418.5 c 128,-1,25
 1061 438 1061 438 1083 453 c 1,26,-1
 1118 354 l 1,27,28
 1092 338 1092 338 1024 314.5 c 128,-1,29
 956 291 956 291 856 291 c 0,0,1
1540 711 m 0,30,31
 1540 535 1540 535 1482.5 397.5 c 128,-1,32
 1425 260 1425 260 1330 165 c 128,-1,33
 1235 70 1235 70 1109 19.5 c 128,-1,34
 983 -31 983 -31 846 -31 c 256,35,36
 709 -31 709 -31 583 19.5 c 128,-1,37
 457 70 457 70 361.5 165 c 128,-1,38
 266 260 266 260 209 397.5 c 128,-1,39
 152 535 152 535 152 711 c 0,40,41
 152 885 152 885 209 1023 c 128,-1,42
 266 1161 266 1161 361.5 1255.5 c 128,-1,43
 457 1350 457 1350 583 1400 c 128,-1,44
 709 1450 709 1450 846 1450 c 256,45,46
 983 1450 983 1450 1109 1400 c 128,-1,47
 1235 1350 1235 1350 1330 1255.5 c 128,-1,48
 1425 1161 1425 1161 1482.5 1023 c 128,-1,49
 1540 885 1540 885 1540 711 c 0,30,31
1419 711 m 0,50,51
 1419 852 1419 852 1376 968.5 c 128,-1,52
 1333 1085 1333 1085 1257.5 1168 c 128,-1,53
 1182 1251 1182 1251 1076.5 1296 c 128,-1,54
 971 1341 971 1341 846 1341 c 256,55,56
 721 1341 721 1341 615.5 1296 c 128,-1,57
 510 1251 510 1251 434 1168 c 128,-1,58
 358 1085 358 1085 315 968.5 c 128,-1,59
 272 852 272 852 272 711 c 0,60,61
 272 569 272 569 315 452.5 c 128,-1,62
 358 336 358 336 434 253 c 128,-1,63
 510 170 510 170 615.5 124 c 128,-1,64
 721 78 721 78 846 78 c 256,65,66
 971 78 971 78 1076.5 124 c 128,-1,67
 1182 170 1182 170 1257.5 253 c 128,-1,68
 1333 336 1333 336 1376 452.5 c 128,-1,69
 1419 569 1419 569 1419 711 c 0,50,51
EndSplineSet
EndChar

StartChar: ordfeminine
Encoding: 170 170 107
Width: 1189
Flags: W
LayerCount: 2
Fore
SplineSet
838 848 m 0,0,1
 806 848 806 848 786 858.5 c 128,-1,2
 766 869 766 869 754.5 886.5 c 128,-1,3
 743 904 743 904 738.5 926.5 c 128,-1,4
 734 949 734 949 734 974 c 2,5,-1
 734 978 l 1,6,7
 662 917 662 917 577.5 880 c 128,-1,8
 493 843 493 843 396 843 c 0,9,10
 351 843 351 843 316 857 c 128,-1,11
 281 871 281 871 257 896.5 c 128,-1,12
 233 922 233 922 220 958 c 128,-1,13
 207 994 207 994 207 1037 c 0,14,15
 207 1116 207 1116 242.5 1179 c 128,-1,16
 278 1242 278 1242 336.5 1289.5 c 128,-1,17
 395 1337 395 1337 470.5 1371 c 128,-1,18
 546 1405 546 1405 624.5 1426 c 128,-1,19
 703 1447 703 1447 779.5 1457 c 128,-1,20
 856 1467 856 1467 917 1467 c 0,21,22
 937 1467 937 1467 951.5 1453.5 c 128,-1,23
 966 1440 966 1440 966 1421 c 0,24,25
 966 1413 966 1413 965 1409 c 128,-1,26
 964 1405 964 1405 962 1401 c 2,27,-1
 938 1338 l 2,28,29
 922 1298 922 1298 903.5 1248 c 128,-1,30
 885 1198 885 1198 868.5 1147 c 128,-1,31
 852 1096 852 1096 841 1050 c 128,-1,32
 830 1004 830 1004 830 971 c 0,33,34
 830 963 830 963 831 952 c 128,-1,35
 832 941 832 941 837 941 c 0,36,37
 850 941 850 941 869.5 950.5 c 128,-1,38
 889 960 889 960 910 973 c 128,-1,39
 931 986 931 986 950 1000.5 c 128,-1,40
 969 1015 969 1015 981 1026 c 1,41,-1
 992 1039 l 2,42,43
 1001 1050 1001 1050 1012.5 1063.5 c 128,-1,44
 1024 1077 1024 1077 1036.5 1089 c 128,-1,45
 1049 1101 1049 1101 1061.5 1109 c 128,-1,46
 1074 1117 1074 1117 1084 1117 c 0,47,48
 1105 1117 1105 1117 1119.5 1103 c 128,-1,49
 1134 1089 1134 1089 1134 1068 c 0,50,51
 1134 1058 1134 1058 1122.5 1041.5 c 128,-1,52
 1111 1025 1111 1025 1096 1008.5 c 128,-1,53
 1081 992 1081 992 1065.5 977 c 128,-1,54
 1050 962 1050 962 1043 955 c 0,55,56
 1026 939 1026 939 1000.5 920 c 128,-1,57
 975 901 975 901 946.5 885 c 128,-1,58
 918 869 918 869 889.5 858.5 c 128,-1,59
 861 848 861 848 838 848 c 0,0,1
847 1369 m 1,60,61
 800 1365 800 1365 741 1355 c 128,-1,62
 682 1345 682 1345 621.5 1327 c 128,-1,63
 561 1309 561 1309 503.5 1283 c 128,-1,64
 446 1257 446 1257 401 1221.5 c 128,-1,65
 356 1186 356 1186 329 1140 c 128,-1,66
 302 1094 302 1094 302 1037 c 0,67,68
 302 992 302 992 324.5 965 c 128,-1,69
 347 938 347 938 396 938 c 0,70,71
 452 938 452 938 512 959.5 c 128,-1,72
 572 981 572 981 626 1017 c 128,-1,73
 680 1053 680 1053 722.5 1101 c 128,-1,74
 765 1149 765 1149 787 1202 c 1,75,-1
 847 1369 l 1,60,61
EndSplineSet
EndChar

StartChar: guillemotleft
Encoding: 171 171 108
Width: 940
Flags: W
LayerCount: 2
Fore
SplineSet
653 47 m 0,0,1
 653 27 653 27 639.5 14 c 128,-1,2
 626 1 626 1 606 1 c 0,3,4
 597 1 597 1 586.5 6.5 c 128,-1,5
 576 12 576 12 571 19 c 2,6,-1
 320 372 l 2,7,8
 311 384 311 384 311 398 c 0,9,10
 311 408 311 408 316 418 c 128,-1,11
 321 428 321 428 330 433 c 0,12,13
 331 433 331 433 331 434 c 256,14,15
 331 435 331 435 332 435 c 2,16,-1
 832 786 l 2,17,18
 843 794 843 794 856 794 c 0,19,20
 875 794 875 794 888.5 781.5 c 128,-1,21
 902 769 902 769 902 749 c 0,22,23
 902 739 902 739 896.5 729 c 128,-1,24
 891 719 891 719 883 713 c 2,25,-1
 418 387 l 1,26,-1
 644 72 l 2,27,28
 648 67 648 67 650.5 60.5 c 128,-1,29
 653 54 653 54 653 47 c 0,0,1
324 47 m 0,30,31
 324 27 324 27 310.5 14 c 128,-1,32
 297 1 297 1 277 1 c 0,33,34
 268 1 268 1 257.5 6.5 c 128,-1,35
 247 12 247 12 242 19 c 2,36,-1
 -9 372 l 2,37,38
 -18 384 -18 384 -18 398 c 0,39,40
 -18 408 -18 408 -13 418 c 128,-1,41
 -8 428 -8 428 1 433 c 0,42,43
 2 433 2 433 2 434 c 256,44,45
 2 435 2 435 3 435 c 2,46,-1
 503 786 l 2,47,48
 514 794 514 794 527 794 c 0,49,50
 546 794 546 794 559.5 781.5 c 128,-1,51
 573 769 573 769 573 749 c 0,52,53
 573 739 573 739 567.5 729 c 128,-1,54
 562 719 562 719 554 713 c 2,55,-1
 89 387 l 1,56,-1
 315 72 l 2,57,58
 319 67 319 67 321.5 60.5 c 128,-1,59
 324 54 324 54 324 47 c 0,30,31
EndSplineSet
EndChar

StartChar: logicalnot
Encoding: 172 172 109
Width: 878
Flags: W
LayerCount: 2
Fore
SplineSet
179 751 m 0,0,1
 179 770 179 770 192 783 c 128,-1,2
 205 796 205 796 224 796 c 2,3,-1
 793 796 l 2,4,5
 812 796 812 796 824.5 782.5 c 128,-1,6
 837 769 837 769 837 751 c 0,7,8
 837 743 837 743 835 735.5 c 128,-1,9
 833 728 833 728 827 722 c 1,10,-1
 773 568 l 2,11,12
 768 554 768 554 756 546 c 128,-1,13
 744 538 744 538 730 538 c 0,14,15
 712 538 712 538 699 551.5 c 128,-1,16
 686 565 686 565 686 583 c 0,17,18
 686 589 686 589 691.5 606.5 c 128,-1,19
 697 624 697 624 704 643.5 c 128,-1,20
 711 663 711 663 717.5 681 c 128,-1,21
 724 699 724 699 727 707 c 1,22,-1
 224 707 l 2,23,24
 206 707 206 707 192.5 720 c 128,-1,25
 179 733 179 733 179 751 c 0,0,1
EndSplineSet
EndChar

StartChar: registered
Encoding: 174 174 111
Width: 1692
Flags: W
LayerCount: 2
Fore
SplineSet
1540 711 m 0,0,1
 1540 535 1540 535 1482.5 397.5 c 128,-1,2
 1425 260 1425 260 1330 165 c 128,-1,3
 1235 70 1235 70 1109 19.5 c 128,-1,4
 983 -31 983 -31 846 -31 c 256,5,6
 709 -31 709 -31 583 19.5 c 128,-1,7
 457 70 457 70 361.5 165 c 128,-1,8
 266 260 266 260 209 397.5 c 128,-1,9
 152 535 152 535 152 711 c 0,10,11
 152 885 152 885 209 1023 c 128,-1,12
 266 1161 266 1161 361.5 1255.5 c 128,-1,13
 457 1350 457 1350 583 1400 c 128,-1,14
 709 1450 709 1450 846 1450 c 256,15,16
 983 1450 983 1450 1109 1400 c 128,-1,17
 1235 1350 1235 1350 1330 1255.5 c 128,-1,18
 1425 1161 1425 1161 1482.5 1023 c 128,-1,19
 1540 885 1540 885 1540 711 c 0,0,1
1419 711 m 0,20,21
 1419 852 1419 852 1376 968.5 c 128,-1,22
 1333 1085 1333 1085 1257.5 1168 c 128,-1,23
 1182 1251 1182 1251 1076.5 1296 c 128,-1,24
 971 1341 971 1341 846 1341 c 256,25,26
 721 1341 721 1341 615.5 1296 c 128,-1,27
 510 1251 510 1251 434 1168 c 128,-1,28
 358 1085 358 1085 315 968.5 c 128,-1,29
 272 852 272 852 272 711 c 0,30,31
 272 569 272 569 315 452.5 c 128,-1,32
 358 336 358 336 434 253 c 128,-1,33
 510 170 510 170 615.5 124 c 128,-1,34
 721 78 721 78 846 78 c 256,35,36
 971 78 971 78 1076.5 124 c 128,-1,37
 1182 170 1182 170 1257.5 253 c 128,-1,38
 1333 336 1333 336 1376 452.5 c 128,-1,39
 1419 569 1419 569 1419 711 c 0,20,21
1067 305 m 1,40,41
 1014 401 1014 401 956.5 488 c 128,-1,42
 899 575 899 575 856 627 c 1,43,44
 842 625 842 625 829 625 c 2,45,-1
 678 625 l 1,46,-1
 678 305 l 1,47,-1
 565 305 l 1,48,-1
 565 1098 l 1,49,50
 612 1108 612 1108 670.5 1114 c 128,-1,51
 729 1120 729 1120 780 1120 c 0,52,53
 954 1120 954 1120 1045.5 1056.5 c 128,-1,54
 1137 993 1137 993 1137 864 c 0,55,56
 1137 791 1137 791 1096 732.5 c 128,-1,57
 1055 674 1055 674 975 645 c 1,58,59
 991 627 991 627 1019 589 c 128,-1,60
 1047 551 1047 551 1077.5 504 c 128,-1,61
 1108 457 1108 457 1138.5 403.5 c 128,-1,62
 1169 350 1169 350 1192 305 c 1,63,-1
 1067 305 l 1,40,41
678 717 m 1,64,-1
 780 717 l 2,65,66
 831 717 831 717 874.5 723 c 128,-1,67
 918 729 918 729 949.5 746.5 c 128,-1,68
 981 764 981 764 998.5 792.5 c 128,-1,69
 1016 821 1016 821 1016 866 c 0,70,71
 1016 909 1016 909 996.5 939 c 128,-1,72
 977 969 977 969 945 987.5 c 128,-1,73
 913 1006 913 1006 872 1014 c 128,-1,74
 831 1022 831 1022 786 1022 c 0,75,76
 756 1022 756 1022 728 1021 c 128,-1,77
 700 1020 700 1020 678 1018 c 1,78,-1
 678 717 l 1,64,-1
EndSplineSet
EndChar

StartChar: macron
Encoding: 175 175 112
Width: 1061
Flags: W
LayerCount: 2
Fore
SplineSet
380 976 m 2,0,1
 362 976 362 976 348.5 989 c 128,-1,2
 335 1002 335 1002 335 1020 c 0,3,4
 335 1039 335 1039 348 1052 c 128,-1,5
 361 1065 361 1065 380 1065 c 2,6,-1
 949 1065 l 2,7,8
 968 1065 968 1065 980.5 1051.5 c 128,-1,9
 993 1038 993 1038 993 1020 c 256,10,11
 993 1002 993 1002 980 989 c 128,-1,12
 967 976 967 976 949 976 c 2,13,-1
 380 976 l 2,0,1
EndSplineSet
EndChar

StartChar: degree
Encoding: 176 176 113
Width: 637
Flags: W
LayerCount: 2
Fore
SplineSet
488 1504 m 0,0,1
 533 1504 533 1504 566.5 1485 c 128,-1,2
 600 1466 600 1466 622.5 1435.5 c 128,-1,3
 645 1405 645 1405 656.5 1365.5 c 128,-1,4
 668 1326 668 1326 668 1285 c 0,5,6
 668 1232 668 1232 647 1175 c 128,-1,7
 626 1118 626 1118 589.5 1070 c 128,-1,8
 553 1022 553 1022 503.5 991 c 128,-1,9
 454 960 454 960 396 960 c 0,10,11
 351 960 351 960 317 979 c 128,-1,12
 283 998 283 998 260.5 1028.5 c 128,-1,13
 238 1059 238 1059 226.5 1098.5 c 128,-1,14
 215 1138 215 1138 215 1179 c 0,15,16
 215 1232 215 1232 236 1289.5 c 128,-1,17
 257 1347 257 1347 293.5 1394.5 c 128,-1,18
 330 1442 330 1442 380 1473 c 128,-1,19
 430 1504 430 1504 488 1504 c 0,0,1
483 1415 m 0,20,21
 444 1415 444 1415 411.5 1391 c 128,-1,22
 379 1367 379 1367 355 1331.5 c 128,-1,23
 331 1296 331 1296 318 1255 c 128,-1,24
 305 1214 305 1214 305 1180 c 0,25,26
 305 1157 305 1157 310 1134 c 128,-1,27
 315 1111 315 1111 326.5 1092 c 128,-1,28
 338 1073 338 1073 356 1061 c 128,-1,29
 374 1049 374 1049 401 1049 c 0,30,31
 440 1049 440 1049 472.5 1073.5 c 128,-1,32
 505 1098 505 1098 528.5 1134 c 128,-1,33
 552 1170 552 1170 565.5 1211 c 128,-1,34
 579 1252 579 1252 579 1286 c 0,35,36
 579 1308 579 1308 573.5 1331 c 128,-1,37
 568 1354 568 1354 556.5 1372.5 c 128,-1,38
 545 1391 545 1391 527 1403 c 128,-1,39
 509 1415 509 1415 483 1415 c 0,20,21
EndSplineSet
EndChar

StartChar: plusminus
Encoding: 177 177 114
Width: 878
Flags: W
LayerCount: 2
Fore
SplineSet
179 751 m 0,0,1
 179 770 179 770 192 783 c 128,-1,2
 205 796 205 796 224 796 c 2,3,-1
 474 796 l 1,4,-1
 539 1038 l 2,5,6
 543 1052 543 1052 554.5 1061 c 128,-1,7
 566 1070 566 1070 581 1070 c 0,8,9
 601 1070 601 1070 613.5 1057.5 c 128,-1,10
 626 1045 626 1045 626 1025 c 0,11,12
 626 1020 626 1020 622 1003.5 c 128,-1,13
 618 987 618 987 612.5 964 c 128,-1,14
 607 941 607 941 599.5 915 c 128,-1,15
 592 889 592 889 585.5 865 c 128,-1,16
 579 841 579 841 574 822.5 c 128,-1,17
 569 804 569 804 567 796 c 1,18,-1
 793 796 l 2,19,20
 812 796 812 796 824.5 782.5 c 128,-1,21
 837 769 837 769 837 751 c 256,22,23
 837 733 837 733 824 720 c 128,-1,24
 811 707 811 707 793 707 c 2,25,-1
 543 707 l 1,26,-1
 478 466 l 2,27,28
 474 452 474 452 462 442 c 128,-1,29
 450 432 450 432 435 432 c 0,30,31
 418 432 418 432 404 444.5 c 128,-1,32
 390 457 390 457 390 475 c 0,33,34
 390 479 390 479 394 496 c 128,-1,35
 398 513 398 513 404 536 c 128,-1,36
 410 559 410 559 417 586 c 128,-1,37
 424 613 424 613 431 637 c 128,-1,38
 438 661 438 661 443 680 c 128,-1,39
 448 699 448 699 450 707 c 1,40,-1
 224 707 l 2,41,42
 206 707 206 707 192.5 720 c 128,-1,43
 179 733 179 733 179 751 c 0,0,1
117 297 m 2,44,45
 99 297 99 297 85.5 310 c 128,-1,46
 72 323 72 323 72 341 c 0,47,48
 72 360 72 360 85 373 c 128,-1,49
 98 386 98 386 117 386 c 2,50,-1
 686 386 l 2,51,52
 705 386 705 386 717.5 372.5 c 128,-1,53
 730 359 730 359 730 341 c 256,54,55
 730 323 730 323 717 310 c 128,-1,56
 704 297 704 297 686 297 c 2,57,-1
 117 297 l 2,44,45
EndSplineSet
EndChar

StartChar: twosuperior
Encoding: 178 178 115
Width: 547
Flags: W
LayerCount: 2
Fore
SplineSet
462 1319 m 0,0,1
 444 1319 444 1319 432 1329.5 c 128,-1,2
 420 1340 420 1340 420 1359 c 0,3,4
 420 1390 420 1390 441.5 1417 c 128,-1,5
 463 1444 463 1444 494.5 1463.5 c 128,-1,6
 526 1483 526 1483 561 1494.5 c 128,-1,7
 596 1506 596 1506 623 1506 c 0,8,9
 693 1506 693 1506 737.5 1469.5 c 128,-1,10
 782 1433 782 1433 782 1361 c 0,11,12
 782 1313 782 1313 761 1264.5 c 128,-1,13
 740 1216 740 1216 706 1168 c 128,-1,14
 672 1120 672 1120 628.5 1073.5 c 128,-1,15
 585 1027 585 1027 541 984 c 128,-1,16
 497 941 497 941 455.5 902.5 c 128,-1,17
 414 864 414 864 383 832 c 1,18,-1
 554 832 l 2,19,20
 571 832 571 832 583.5 820 c 128,-1,21
 596 808 596 808 596 791 c 256,22,23
 596 774 596 774 583.5 762 c 128,-1,24
 571 750 571 750 554 750 c 2,25,-1
 289 750 l 2,26,27
 274 750 274 750 261.5 762 c 128,-1,28
 249 774 249 774 249 789 c 256,29,30
 249 804 249 804 277.5 836.5 c 128,-1,31
 306 869 306 869 349.5 913 c 128,-1,32
 393 957 393 957 445.5 1008.5 c 128,-1,33
 498 1060 498 1060 547 1113 c 128,-1,34
 596 1166 596 1166 634.5 1218 c 128,-1,35
 673 1270 673 1270 689 1314 c 1,36,-1
 689 1313 l 1,37,38
 694 1327 694 1327 697 1337 c 128,-1,39
 700 1347 700 1347 700 1362 c 0,40,41
 700 1379 700 1379 693.5 1390.5 c 128,-1,42
 687 1402 687 1402 676 1409.5 c 128,-1,43
 665 1417 665 1417 651 1420 c 128,-1,44
 637 1423 637 1423 622 1423 c 0,45,46
 580 1423 580 1423 556 1406.5 c 128,-1,47
 532 1390 532 1390 517 1370.5 c 128,-1,48
 502 1351 502 1351 490.5 1335 c 128,-1,49
 479 1319 479 1319 462 1319 c 0,0,1
EndSplineSet
EndChar

StartChar: threesuperior
Encoding: 179 179 116
Width: 528
Flags: W
LayerCount: 2
Fore
SplineSet
409 1302 m 0,0,1
 392 1302 392 1302 379.5 1314 c 128,-1,2
 367 1326 367 1326 367 1343 c 0,3,4
 367 1357 367 1357 374 1365 c 2,5,-1
 372 1363 l 1,6,7
 387 1392 387 1392 408.5 1418 c 128,-1,8
 430 1444 430 1444 456 1464 c 128,-1,9
 482 1484 482 1484 513 1495.5 c 128,-1,10
 544 1507 544 1507 578 1507 c 0,11,12
 650 1507 650 1507 690.5 1462.5 c 128,-1,13
 731 1418 731 1418 731 1348 c 0,14,15
 731 1314 731 1314 720.5 1280.5 c 128,-1,16
 710 1247 710 1247 691 1218 c 128,-1,17
 672 1189 672 1189 647 1164.5 c 128,-1,18
 622 1140 622 1140 592 1124 c 1,19,20
 637 1073 637 1073 637 1003 c 0,21,22
 637 948 637 948 616 901.5 c 128,-1,23
 595 855 595 855 559 821 c 128,-1,24
 523 787 523 787 475.5 767.5 c 128,-1,25
 428 748 428 748 374 748 c 0,26,27
 343 748 343 748 314 757 c 128,-1,28
 285 766 285 766 263 784 c 128,-1,29
 241 802 241 802 228 828 c 128,-1,30
 215 854 215 854 215 887 c 0,31,32
 215 898 215 898 217.5 911.5 c 128,-1,33
 220 925 220 925 226 937 c 128,-1,34
 232 949 232 949 241.5 957 c 128,-1,35
 251 965 251 965 265 965 c 0,36,37
 284 965 284 965 295 953.5 c 128,-1,38
 306 942 306 942 306 923 c 0,39,40
 306 917 306 917 303.5 911 c 128,-1,41
 301 905 301 905 299 900 c 1,42,-1
 299 897 l 1,43,-1
 298 887 l 1,44,45
 298 872 298 872 305 861 c 128,-1,46
 312 850 312 850 323 843.5 c 128,-1,47
 334 837 334 837 347.5 833.5 c 128,-1,48
 361 830 361 830 374 830 c 0,49,50
 410 830 410 830 442.5 843 c 128,-1,51
 475 856 475 856 500 878.5 c 128,-1,52
 525 901 525 901 540 932 c 128,-1,53
 555 963 555 963 555 1000 c 0,54,55
 555 1039 555 1039 539.5 1057.5 c 128,-1,56
 524 1076 524 1076 505 1086 c 128,-1,57
 486 1096 486 1096 470.5 1105 c 128,-1,58
 455 1114 455 1114 455 1135 c 0,59,60
 455 1151 455 1151 465.5 1161 c 128,-1,61
 476 1171 476 1171 490 1175 c 0,62,63
 522 1183 522 1183 551 1198.5 c 128,-1,64
 580 1214 580 1214 601.5 1236 c 128,-1,65
 623 1258 623 1258 636 1286.5 c 128,-1,66
 649 1315 649 1315 649 1351 c 0,67,68
 649 1383 649 1383 631 1404 c 128,-1,69
 613 1425 613 1425 579 1425 c 0,70,71
 540 1425 540 1425 515 1406 c 128,-1,72
 490 1387 490 1387 472.5 1363.5 c 128,-1,73
 455 1340 455 1340 441 1321 c 128,-1,74
 427 1302 427 1302 409 1302 c 0,0,1
EndSplineSet
EndChar

StartChar: acute
Encoding: 180 180 117
Width: 1189
Flags: W
LayerCount: 2
Fore
SplineSet
833 1241 m 0,0,1
 852 1241 852 1241 864.5 1227 c 128,-1,2
 877 1213 877 1213 877 1195 c 0,3,4
 877 1178 877 1178 861 1147.5 c 128,-1,5
 845 1117 845 1117 819 1080.5 c 128,-1,6
 793 1044 793 1044 761 1006 c 128,-1,7
 729 968 729 968 697 937 c 128,-1,8
 665 906 665 906 636 886.5 c 128,-1,9
 607 867 607 867 589 867 c 0,10,11
 569 867 569 867 557 880.5 c 128,-1,12
 545 894 545 894 545 914 c 0,13,14
 545 936 545 936 564 949 c 0,15,16
 609 979 609 979 640.5 1007 c 128,-1,17
 672 1035 672 1035 697 1066.5 c 128,-1,18
 722 1098 722 1098 744.5 1134.5 c 128,-1,19
 767 1171 767 1171 793 1218 c 0,20,21
 806 1241 806 1241 833 1241 c 0,0,1
EndSplineSet
EndChar

StartChar: mu
Encoding: 181 181 118
Width: 1416
Flags: W
LayerCount: 2
Fore
SplineSet
-139 -578 m 0,0,1
 -158 -578 -158 -578 -170.5 -566 c 128,-1,2
 -183 -554 -183 -554 -183 -535 c 0,3,4
 -183 -527 -183 -527 -173.5 -495 c 128,-1,5
 -164 -463 -164 -463 -147 -413.5 c 128,-1,6
 -130 -364 -130 -364 -107.5 -300.5 c 128,-1,7
 -85 -237 -85 -237 -59 -166 c 128,-1,8
 -33 -95 -33 -95 -5.5 -19.5 c 128,-1,9
 22 56 22 56 49 129.5 c 128,-1,10
 76 203 76 203 101 272 c 128,-1,11
 126 341 126 341 146.5 398 c 128,-1,12
 167 455 167 455 181.5 497.5 c 128,-1,13
 196 540 196 540 202 561 c 1,14,15
 193 551 193 551 173.5 528.5 c 128,-1,16
 154 506 154 506 129 478 c 128,-1,17
 104 450 104 450 76.5 419.5 c 128,-1,18
 49 389 49 389 24 363.5 c 128,-1,19
 -1 338 -1 338 -21 322 c 128,-1,20
 -41 306 -41 306 -50 306 c 0,21,22
 -67 306 -67 306 -82 318 c 128,-1,23
 -97 330 -97 330 -97 349 c 0,24,25
 -97 367 -97 367 -85 381 c 2,26,-1
 284 782 l 2,27,28
 297 797 297 797 316 797 c 0,29,30
 336 797 336 797 349 784.5 c 128,-1,31
 362 772 362 772 362 752 c 0,32,33
 362 746 362 746 352 715 c 128,-1,34
 342 684 342 684 326 639 c 128,-1,35
 310 594 310 594 291.5 542 c 128,-1,36
 273 490 273 490 256 443 c 128,-1,37
 239 396 239 396 226 360.5 c 128,-1,38
 213 325 213 325 209 314 c 0,39,40
 208 311 208 311 207 303.5 c 128,-1,41
 206 296 206 296 205.5 287.5 c 128,-1,42
 205 279 205 279 205 271.5 c 128,-1,43
 205 264 205 264 205 261 c 0,44,45
 205 229 205 229 213.5 195 c 128,-1,46
 222 161 222 161 239 133 c 128,-1,47
 256 105 256 105 283 87.5 c 128,-1,48
 310 70 310 70 348 70 c 0,49,50
 427 70 427 70 511.5 101 c 128,-1,51
 596 132 596 132 672 183.5 c 128,-1,52
 748 235 748 235 806.5 303 c 128,-1,53
 865 371 865 371 892 446 c 2,54,-1
 1006 768 l 2,55,56
 1011 781 1011 781 1022 789 c 128,-1,57
 1033 797 1033 797 1047 797 c 0,58,59
 1064 797 1064 797 1078 785 c 128,-1,60
 1092 773 1092 773 1092 755 c 0,61,62
 1092 745 1092 745 1089 738 c 0,63,64
 1077 703 1077 703 1059 656.5 c 128,-1,65
 1041 610 1041 610 1021 556 c 128,-1,66
 1001 502 1001 502 981 444.5 c 128,-1,67
 961 387 961 387 945.5 330.5 c 128,-1,68
 930 274 930 274 920 221 c 128,-1,69
 910 168 910 168 910 125 c 0,70,71
 910 118 910 118 911 109.5 c 128,-1,72
 912 101 912 101 915.5 93.5 c 128,-1,73
 919 86 919 86 924.5 80.5 c 128,-1,74
 930 75 930 75 939 75 c 0,75,76
 966 75 966 75 1002.5 94.5 c 128,-1,77
 1039 114 1039 114 1078.5 144 c 128,-1,78
 1118 174 1118 174 1159 211.5 c 128,-1,79
 1200 249 1200 249 1236.5 285.5 c 128,-1,80
 1273 322 1273 322 1302.5 353 c 128,-1,81
 1332 384 1332 384 1350 402 c 0,82,83
 1364 416 1364 416 1381 416 c 256,84,85
 1398 416 1398 416 1413 404 c 128,-1,86
 1428 392 1428 392 1428 373 c 256,87,88
 1428 354 1428 354 1416 341 c 0,89,90
 1394 315 1394 315 1360.5 279 c 128,-1,91
 1327 243 1327 243 1286.5 203.5 c 128,-1,92
 1246 164 1246 164 1201 126 c 128,-1,93
 1156 88 1156 88 1110.5 57.5 c 128,-1,94
 1065 27 1065 27 1021.5 8 c 128,-1,95
 978 -11 978 -11 940 -11 c 0,96,97
 896 -11 896 -11 871 9.5 c 128,-1,98
 846 30 846 30 834 61.5 c 128,-1,99
 822 93 822 93 821.5 130 c 128,-1,100
 821 167 821 167 826 201 c 1,101,102
 778 151 778 151 723.5 111 c 128,-1,103
 669 71 669 71 609 42 c 128,-1,104
 549 13 549 13 483.5 -2.5 c 128,-1,105
 418 -18 418 -18 348 -18 c 0,106,107
 273 -18 273 -18 222 20 c 128,-1,108
 171 58 171 58 142 125 c 1,109,-1
 -97 -549 l 2,110,111
 -102 -562 -102 -562 -113.5 -570 c 128,-1,112
 -125 -578 -125 -578 -139 -578 c 0,0,1
EndSplineSet
EndChar

StartChar: paragraph
Encoding: 182 182 119
Width: 1079
Flags: W
LayerCount: 2
Fore
SplineSet
81 -21 m 0,0,1
 63 -21 63 -21 47 -10 c 128,-1,2
 31 1 31 1 31 20 c 0,3,4
 31 30 31 30 34 39 c 2,5,-1
 208 530 l 2,6,7
 216 551 216 551 218 573.5 c 128,-1,8
 220 596 220 596 220 619 c 0,9,10
 220 676 220 676 214.5 732 c 128,-1,11
 209 788 209 788 203 844.5 c 128,-1,12
 197 901 197 901 191.5 957 c 128,-1,13
 186 1013 186 1013 186 1070 c 0,14,15
 186 1171 186 1171 206.5 1248.5 c 128,-1,16
 227 1326 227 1326 272.5 1378.5 c 128,-1,17
 318 1431 318 1431 391.5 1457.5 c 128,-1,18
 465 1484 465 1484 571 1484 c 2,19,-1
 983 1484 l 2,20,21
 1028 1484 1028 1484 1028 1439 c 0,22,23
 1028 1395 1028 1395 983 1395 c 2,24,-1
 803 1395 l 1,25,-1
 326 10 l 2,26,27
 321 -3 321 -3 311.5 -11.5 c 128,-1,28
 302 -20 302 -20 288 -20 c 0,29,30
 271 -20 271 -20 254.5 -10 c 128,-1,31
 238 0 238 0 238 20 c 0,32,33
 238 24 238 24 250 61.5 c 128,-1,34
 262 99 262 99 283 161.5 c 128,-1,35
 304 224 304 224 332 307 c 128,-1,36
 360 390 360 390 392.5 483 c 128,-1,37
 425 576 425 576 459 675.5 c 128,-1,38
 493 775 493 775 526 871 c 128,-1,39
 559 967 559 967 589.5 1054.5 c 128,-1,40
 620 1142 620 1142 644.5 1212.5 c 128,-1,41
 669 1283 669 1283 685.5 1331 c 128,-1,42
 702 1379 702 1379 708 1395 c 1,43,-1
 610 1395 l 1,44,-1
 292 501 l 1,45,-1
 118 9 l 2,46,47
 113 -3 113 -3 104 -12 c 128,-1,48
 95 -21 95 -21 81 -21 c 0,0,1
298 785 m 1,49,-1
 514 1392 l 1,50,51
 443 1384 443 1384 397 1357 c 128,-1,52
 351 1330 351 1330 324 1287.5 c 128,-1,53
 297 1245 297 1245 286 1189.5 c 128,-1,54
 275 1134 275 1134 275 1070 c 0,55,56
 275 998 275 998 283 927.5 c 128,-1,57
 291 857 291 857 298 785 c 1,49,-1
EndSplineSet
EndChar

StartChar: cedilla
Encoding: 184 184 121
Width: 473
Flags: W
LayerCount: 2
Fore
SplineSet
341 77 m 0,0,1
 358 77 358 77 375 65.5 c 128,-1,2
 392 54 392 54 392 36 c 0,3,4
 392 26 392 26 386 11 c 128,-1,5
 380 -4 380 -4 371.5 -20 c 128,-1,6
 363 -36 363 -36 355 -50.5 c 128,-1,7
 347 -65 347 -65 343 -74 c 1,8,9
 363 -78 363 -78 381.5 -86.5 c 128,-1,10
 400 -95 400 -95 414 -108 c 128,-1,11
 428 -121 428 -121 436 -138.5 c 128,-1,12
 444 -156 444 -156 444 -178 c 0,13,14
 444 -210 444 -210 418.5 -245.5 c 128,-1,15
 393 -281 393 -281 358.5 -310 c 128,-1,16
 324 -339 324 -339 288 -358 c 128,-1,17
 252 -377 252 -377 232 -377 c 0,18,19
 214 -377 214 -377 202.5 -360 c 128,-1,20
 191 -343 191 -343 191 -326 c 0,21,22
 191 -308 191 -308 214 -293.5 c 128,-1,23
 237 -279 237 -279 266.5 -262.5 c 128,-1,24
 296 -246 296 -246 322.5 -226 c 128,-1,25
 349 -206 349 -206 356 -177 c 1,26,27
 345 -167 345 -167 335.5 -163 c 128,-1,28
 326 -159 326 -159 315.5 -158.5 c 128,-1,29
 305 -158 305 -158 294 -159.5 c 128,-1,30
 283 -161 283 -161 271 -161 c 0,31,32
 254 -161 254 -161 239 -149.5 c 128,-1,33
 224 -138 224 -138 224 -121 c 0,34,35
 224 -111 224 -111 234.5 -86.5 c 128,-1,36
 245 -62 245 -62 259 -35 c 128,-1,37
 273 -8 273 -8 286.5 16.5 c 128,-1,38
 300 41 300 41 305 52 c 256,39,40
 310 63 310 63 319 70 c 128,-1,41
 328 77 328 77 341 77 c 0,0,1
EndSplineSet
EndChar

StartChar: onesuperior
Encoding: 185 185 122
Width: 386
Flags: W
LayerCount: 2
Fore
SplineSet
339 799 m 0,0,1
 339 803 339 803 351 837.5 c 128,-1,2
 363 872 363 872 381.5 923 c 128,-1,3
 400 974 400 974 422.5 1033 c 128,-1,4
 445 1092 445 1092 465 1145.5 c 128,-1,5
 485 1199 485 1199 500 1238.5 c 128,-1,6
 515 1278 515 1278 519 1289 c 1,7,8
 511 1281 511 1281 503.5 1270.5 c 128,-1,9
 496 1260 496 1260 487 1251 c 128,-1,10
 478 1242 478 1242 468 1235.5 c 128,-1,11
 458 1229 458 1229 445 1229 c 0,12,13
 427 1229 427 1229 416 1240.5 c 128,-1,14
 405 1252 405 1252 405 1270 c 0,15,16
 405 1278 405 1278 408 1285 c 128,-1,17
 411 1292 411 1292 416 1298 c 1,18,-1
 416 1297 l 1,19,20
 462 1348 462 1348 508.5 1397.5 c 128,-1,21
 555 1447 555 1447 601 1498 c 1,22,-1
 600 1497 l 1,23,24
 605 1505 605 1505 613.5 1508 c 128,-1,25
 622 1511 622 1511 631 1511 c 0,26,27
 648 1511 648 1511 659.5 1498.5 c 128,-1,28
 671 1486 671 1486 671 1469 c 0,29,30
 671 1466 671 1466 661 1437.5 c 128,-1,31
 651 1409 651 1409 634.5 1363.5 c 128,-1,32
 618 1318 618 1318 597 1260.5 c 128,-1,33
 576 1203 576 1203 553 1142 c 128,-1,34
 530 1081 530 1081 508 1021 c 128,-1,35
 486 961 486 961 467.5 912 c 128,-1,36
 449 863 449 863 436 828.5 c 128,-1,37
 423 794 423 794 419 783 c 256,38,39
 415 772 415 772 403.5 764 c 128,-1,40
 392 756 392 756 381 756 c 0,41,42
 339 756 339 756 339 799 c 0,0,1
EndSplineSet
EndChar

StartChar: ordmasculine
Encoding: 186 186 123
Width: 965
Flags: W
LayerCount: 2
Fore
SplineSet
421 869 m 0,0,1
 371 869 371 869 329.5 884.5 c 128,-1,2
 288 900 288 900 258 929 c 128,-1,3
 228 958 228 958 211 999 c 128,-1,4
 194 1040 194 1040 194 1091 c 0,5,6
 194 1133 194 1133 206.5 1179.5 c 128,-1,7
 219 1226 219 1226 242 1270 c 128,-1,8
 265 1314 265 1314 296.5 1354 c 128,-1,9
 328 1394 328 1394 366 1424 c 128,-1,10
 404 1454 404 1454 447.5 1471.5 c 128,-1,11
 491 1489 491 1489 537 1489 c 0,12,13
 564 1489 564 1489 585 1484 c 128,-1,14
 606 1479 606 1479 623 1470 c 128,-1,15
 640 1461 640 1461 655.5 1448 c 128,-1,16
 671 1435 671 1435 688 1419 c 1,17,-1
 692 1416 l 1,18,19
 695 1408 695 1408 699.5 1398.5 c 128,-1,20
 704 1389 704 1389 710 1380.5 c 128,-1,21
 716 1372 716 1372 723 1366.5 c 128,-1,22
 730 1361 730 1361 738 1361 c 0,23,24
 750 1361 750 1361 763.5 1367.5 c 128,-1,25
 777 1374 777 1374 790.5 1384 c 128,-1,26
 804 1394 804 1394 816.5 1406 c 128,-1,27
 829 1418 829 1418 840 1429 c 0,28,29
 854 1443 854 1443 871 1456.5 c 128,-1,30
 888 1470 888 1470 900 1470 c 0,31,32
 920 1470 920 1470 934 1457.5 c 128,-1,33
 948 1445 948 1445 948 1425 c 256,34,35
 948 1405 948 1405 927 1380 c 128,-1,36
 906 1355 906 1355 875.5 1332 c 128,-1,37
 845 1309 845 1309 810 1292 c 128,-1,38
 775 1275 775 1275 748 1270 c 1,39,40
 750 1259 750 1259 750.5 1246.5 c 128,-1,41
 751 1234 751 1234 751 1223 c 0,42,43
 751 1183 751 1183 743 1143.5 c 128,-1,44
 735 1104 735 1104 724 1067 c 1,45,46
 697 1023 697 1023 667 987 c 128,-1,47
 637 951 637 951 601 924.5 c 128,-1,48
 565 898 565 898 521 883.5 c 128,-1,49
 477 869 477 869 421 869 c 0,0,1
659 1229 m 0,50,51
 659 1256 659 1256 652 1285.5 c 128,-1,52
 645 1315 645 1315 630 1340 c 128,-1,53
 615 1365 615 1365 592 1381.5 c 128,-1,54
 569 1398 569 1398 537 1398 c 0,55,56
 489 1398 489 1398 443.5 1367 c 128,-1,57
 398 1336 398 1336 363 1289.5 c 128,-1,58
 328 1243 328 1243 307 1189.5 c 128,-1,59
 286 1136 286 1136 286 1091 c 0,60,61
 286 1027 286 1027 322.5 994 c 128,-1,62
 359 961 359 961 421 961 c 0,63,64
 475 961 475 961 518.5 984 c 128,-1,65
 562 1007 562 1007 593.5 1044.5 c 128,-1,66
 625 1082 625 1082 642 1130.5 c 128,-1,67
 659 1179 659 1179 659 1229 c 0,50,51
EndSplineSet
EndChar

StartChar: guillemotright
Encoding: 187 187 124
Width: 945
Flags: W
LayerCount: 2
Fore
SplineSet
560 750 m 0,0,1
 560 770 560 770 573.5 783 c 128,-1,2
 587 796 587 796 607 796 c 0,3,4
 616 796 616 796 626.5 790.5 c 128,-1,5
 637 785 637 785 642 778 c 2,6,-1
 893 425 l 2,7,8
 902 413 902 413 902 399 c 0,9,10
 902 389 902 389 897 379 c 128,-1,11
 892 369 892 369 883 364 c 0,12,13
 882 364 882 364 882 363 c 256,14,15
 882 362 882 362 881.5 361.5 c 128,-1,16
 881 361 881 361 881 362 c 2,17,-1
 381 11 l 2,18,19
 370 3 370 3 357 3 c 0,20,21
 338 3 338 3 324.5 15.5 c 128,-1,22
 311 28 311 28 311 48 c 0,23,24
 311 58 311 58 316.5 68 c 128,-1,25
 322 78 322 78 330 84 c 2,26,-1
 795 410 l 1,27,-1
 569 725 l 2,28,29
 565 730 565 730 562.5 736.5 c 128,-1,30
 560 743 560 743 560 750 c 0,0,1
231 750 m 0,31,32
 231 770 231 770 244.5 783 c 128,-1,33
 258 796 258 796 278 796 c 0,34,35
 287 796 287 796 297.5 790.5 c 128,-1,36
 308 785 308 785 313 778 c 2,37,-1
 564 425 l 2,38,39
 573 413 573 413 573 399 c 0,40,41
 573 389 573 389 568 379 c 128,-1,42
 563 369 563 369 554 364 c 0,43,44
 553 364 553 364 553 363 c 256,45,46
 553 362 553 362 552.5 361.5 c 128,-1,47
 552 361 552 361 552 362 c 2,48,-1
 52 11 l 2,49,50
 41 3 41 3 28 3 c 0,51,52
 9 3 9 3 -4.5 15.5 c 128,-1,53
 -18 28 -18 28 -18 48 c 0,54,55
 -18 58 -18 58 -12.5 68 c 128,-1,56
 -7 78 -7 78 1 84 c 2,57,-1
 466 410 l 1,58,-1
 240 725 l 2,59,60
 236 730 236 730 233.5 736.5 c 128,-1,61
 231 743 231 743 231 750 c 0,31,32
EndSplineSet
EndChar

StartChar: onequarter
Encoding: 188 188 125
Width: 1284
Flags: W
LayerCount: 2
Fore
SplineSet
1142 1572 m 0,0,1
 1159 1572 1159 1572 1172.5 1559.5 c 128,-1,2
 1186 1547 1186 1547 1186 1530 c 0,3,4
 1186 1515 1186 1515 1178 1502 c 2,5,-1
 110 -33 l 2,6,7
 97 -52 97 -52 73 -52 c 0,8,9
 54 -52 54 -52 41 -39 c 128,-1,10
 28 -26 28 -26 28 -7 c 0,11,12
 28 7 28 7 36 18 c 2,13,-1
 1105 1553 l 2,14,15
 1118 1572 1118 1572 1142 1572 c 0,0,1
722 -9 m 0,16,17
 705 -9 705 -9 692.5 2.5 c 128,-1,18
 680 14 680 14 680 31 c 0,19,20
 680 36 680 36 685 52 c 128,-1,21
 690 68 690 68 697 86 c 128,-1,22
 704 104 704 104 710 120.5 c 128,-1,23
 716 137 716 137 719 145 c 1,24,-1
 530 145 l 2,25,26
 512 145 512 145 500.5 156.5 c 128,-1,27
 489 168 489 168 489 186 c 0,28,29
 489 201 489 201 498 212 c 2,30,-1
 928 729 l 1,31,-1
 926 727 l 1,32,33
 932 735 932 735 940.5 740.5 c 128,-1,34
 949 746 949 746 960 746 c 0,35,36
 977 746 977 746 989 733.5 c 128,-1,37
 1001 721 1001 721 1001 704 c 0,38,39
 1001 699 1001 699 990 665.5 c 128,-1,40
 979 632 979 632 961.5 582.5 c 128,-1,41
 944 533 944 533 924 476 c 128,-1,42
 904 419 904 419 885.5 367.5 c 128,-1,43
 867 316 867 316 853 277.5 c 128,-1,44
 839 239 839 239 835 227 c 1,45,46
 846 227 846 227 858.5 226.5 c 128,-1,47
 871 226 871 226 881.5 222.5 c 128,-1,48
 892 219 892 219 898.5 210.5 c 128,-1,49
 905 202 905 202 905 186 c 0,50,51
 905 166 905 166 894.5 157 c 128,-1,52
 884 148 884 148 868.5 145.5 c 128,-1,53
 853 143 853 143 836 144 c 128,-1,54
 819 145 819 145 807 145 c 1,55,56
 801 128 801 128 793.5 102 c 128,-1,57
 786 76 786 76 776 51 c 128,-1,58
 766 26 766 26 753 8.5 c 128,-1,59
 740 -9 740 -9 722 -9 c 0,16,17
230 799 m 0,60,61
 230 803 230 803 242 837.5 c 128,-1,62
 254 872 254 872 272.5 923 c 128,-1,63
 291 974 291 974 313.5 1033 c 128,-1,64
 336 1092 336 1092 356 1145.5 c 128,-1,65
 376 1199 376 1199 391 1238.5 c 128,-1,66
 406 1278 406 1278 410 1289 c 1,67,68
 402 1281 402 1281 394.5 1270.5 c 128,-1,69
 387 1260 387 1260 378 1251 c 128,-1,70
 369 1242 369 1242 359 1235.5 c 128,-1,71
 349 1229 349 1229 336 1229 c 0,72,73
 318 1229 318 1229 307 1240.5 c 128,-1,74
 296 1252 296 1252 296 1270 c 0,75,76
 296 1278 296 1278 299 1285 c 128,-1,77
 302 1292 302 1292 307 1298 c 1,78,-1
 307 1297 l 1,79,80
 353 1348 353 1348 399.5 1397.5 c 128,-1,81
 446 1447 446 1447 492 1498 c 1,82,-1
 491 1497 l 1,83,84
 496 1505 496 1505 504.5 1508 c 128,-1,85
 513 1511 513 1511 522 1511 c 0,86,87
 539 1511 539 1511 550.5 1498.5 c 128,-1,88
 562 1486 562 1486 562 1469 c 0,89,90
 562 1466 562 1466 552 1437.5 c 128,-1,91
 542 1409 542 1409 525.5 1363.5 c 128,-1,92
 509 1318 509 1318 488 1260.5 c 128,-1,93
 467 1203 467 1203 444 1142 c 128,-1,94
 421 1081 421 1081 399 1021 c 128,-1,95
 377 961 377 961 358.5 912 c 128,-1,96
 340 863 340 863 327 828.5 c 128,-1,97
 314 794 314 794 310 783 c 256,98,99
 306 772 306 772 294.5 764 c 128,-1,100
 283 756 283 756 272 756 c 0,101,102
 230 756 230 756 230 799 c 0,60,61
748 227 m 1,103,104
 771 296 771 296 796 364.5 c 128,-1,105
 821 433 821 433 846 502 c 1,106,-1
 618 227 l 1,107,-1
 748 227 l 1,103,104
EndSplineSet
EndChar

StartChar: onehalf
Encoding: 189 189 126
Width: 1284
Flags: W
LayerCount: 2
Fore
SplineSet
1142 1572 m 0,0,1
 1159 1572 1159 1572 1172.5 1559.5 c 128,-1,2
 1186 1547 1186 1547 1186 1530 c 0,3,4
 1186 1515 1186 1515 1178 1502 c 2,5,-1
 110 -33 l 2,6,7
 97 -52 97 -52 73 -52 c 0,8,9
 54 -52 54 -52 41 -39 c 128,-1,10
 28 -26 28 -26 28 -7 c 0,11,12
 28 7 28 7 36 18 c 2,13,-1
 1105 1553 l 2,14,15
 1118 1572 1118 1572 1142 1572 c 0,0,1
230 799 m 0,16,17
 230 803 230 803 242 837.5 c 128,-1,18
 254 872 254 872 272.5 923 c 128,-1,19
 291 974 291 974 313.5 1033 c 128,-1,20
 336 1092 336 1092 356 1145.5 c 128,-1,21
 376 1199 376 1199 391 1238.5 c 128,-1,22
 406 1278 406 1278 410 1289 c 1,23,24
 402 1281 402 1281 394.5 1270.5 c 128,-1,25
 387 1260 387 1260 378 1251 c 128,-1,26
 369 1242 369 1242 359 1235.5 c 128,-1,27
 349 1229 349 1229 336 1229 c 0,28,29
 318 1229 318 1229 307 1240.5 c 128,-1,30
 296 1252 296 1252 296 1270 c 0,31,32
 296 1278 296 1278 299 1285 c 128,-1,33
 302 1292 302 1292 307 1298 c 1,34,-1
 307 1297 l 1,35,36
 353 1348 353 1348 399.5 1397.5 c 128,-1,37
 446 1447 446 1447 492 1498 c 1,38,-1
 491 1497 l 1,39,40
 496 1505 496 1505 504.5 1508 c 128,-1,41
 513 1511 513 1511 522 1511 c 0,42,43
 539 1511 539 1511 550.5 1498.5 c 128,-1,44
 562 1486 562 1486 562 1469 c 0,45,46
 562 1466 562 1466 552 1437.5 c 128,-1,47
 542 1409 542 1409 525.5 1363.5 c 128,-1,48
 509 1318 509 1318 488 1260.5 c 128,-1,49
 467 1203 467 1203 444 1142 c 128,-1,50
 421 1081 421 1081 399 1021 c 128,-1,51
 377 961 377 961 358.5 912 c 128,-1,52
 340 863 340 863 327 828.5 c 128,-1,53
 314 794 314 794 310 783 c 256,54,55
 306 772 306 772 294.5 764 c 128,-1,56
 283 756 283 756 272 756 c 0,57,58
 230 756 230 756 230 799 c 0,16,17
748 580 m 0,59,60
 730 580 730 580 718 590.5 c 128,-1,61
 706 601 706 601 706 620 c 0,62,63
 706 651 706 651 727.5 678 c 128,-1,64
 749 705 749 705 780.5 724.5 c 128,-1,65
 812 744 812 744 847 755.5 c 128,-1,66
 882 767 882 767 909 767 c 0,67,68
 979 767 979 767 1023.5 730.5 c 128,-1,69
 1068 694 1068 694 1068 622 c 0,70,71
 1068 579 1068 579 1046.5 531.5 c 128,-1,72
 1025 484 1025 484 990.5 435.5 c 128,-1,73
 956 387 956 387 912.5 339 c 128,-1,74
 869 291 869 291 824.5 246.5 c 128,-1,75
 780 202 780 202 739 163 c 128,-1,76
 698 124 698 124 669 93 c 1,77,-1
 840 93 l 2,78,79
 857 93 857 93 869.5 81 c 128,-1,80
 882 69 882 69 882 52 c 256,81,82
 882 35 882 35 869.5 23 c 128,-1,83
 857 11 857 11 840 11 c 2,84,-1
 575 11 l 2,85,86
 560 11 560 11 547.5 23 c 128,-1,87
 535 35 535 35 535 50 c 256,88,89
 535 65 535 65 563.5 97.5 c 128,-1,90
 592 130 592 130 635.5 174 c 128,-1,91
 679 218 679 218 731.5 269.5 c 128,-1,92
 784 321 784 321 833 374 c 128,-1,93
 882 427 882 427 920.5 479 c 128,-1,94
 959 531 959 531 975 575 c 1,95,-1
 975 574 l 1,96,97
 980 588 980 588 983 598 c 128,-1,98
 986 608 986 608 986 623 c 0,99,100
 986 640 986 640 979.5 651.5 c 128,-1,101
 973 663 973 663 962 670.5 c 128,-1,102
 951 678 951 678 937 681 c 128,-1,103
 923 684 923 684 908 684 c 0,104,105
 866 684 866 684 842 667.5 c 128,-1,106
 818 651 818 651 803 631.5 c 128,-1,107
 788 612 788 612 776.5 596 c 128,-1,108
 765 580 765 580 748 580 c 0,59,60
EndSplineSet
EndChar

StartChar: threequarters
Encoding: 190 190 127
Width: 1284
Flags: W
LayerCount: 2
Fore
SplineSet
1142 1572 m 0,0,1
 1159 1572 1159 1572 1172.5 1559.5 c 128,-1,2
 1186 1547 1186 1547 1186 1530 c 0,3,4
 1186 1515 1186 1515 1178 1502 c 2,5,-1
 110 -33 l 2,6,7
 97 -52 97 -52 73 -52 c 0,8,9
 54 -52 54 -52 41 -39 c 128,-1,10
 28 -26 28 -26 28 -7 c 0,11,12
 28 7 28 7 36 18 c 2,13,-1
 1105 1553 l 2,14,15
 1118 1572 1118 1572 1142 1572 c 0,0,1
722 -9 m 0,16,17
 705 -9 705 -9 692.5 2.5 c 128,-1,18
 680 14 680 14 680 31 c 0,19,20
 680 36 680 36 685 52 c 128,-1,21
 690 68 690 68 697 86 c 128,-1,22
 704 104 704 104 710 120.5 c 128,-1,23
 716 137 716 137 719 145 c 1,24,-1
 530 145 l 2,25,26
 512 145 512 145 500.5 156.5 c 128,-1,27
 489 168 489 168 489 186 c 0,28,29
 489 201 489 201 498 212 c 2,30,-1
 928 729 l 1,31,-1
 926 727 l 1,32,33
 932 735 932 735 940.5 740.5 c 128,-1,34
 949 746 949 746 960 746 c 0,35,36
 977 746 977 746 989 733.5 c 128,-1,37
 1001 721 1001 721 1001 704 c 0,38,39
 1001 699 1001 699 990 665.5 c 128,-1,40
 979 632 979 632 961.5 582.5 c 128,-1,41
 944 533 944 533 924 476 c 128,-1,42
 904 419 904 419 885.5 367.5 c 128,-1,43
 867 316 867 316 853 277.5 c 128,-1,44
 839 239 839 239 835 227 c 1,45,46
 846 227 846 227 858.5 226.5 c 128,-1,47
 871 226 871 226 881.5 222.5 c 128,-1,48
 892 219 892 219 898.5 210.5 c 128,-1,49
 905 202 905 202 905 186 c 0,50,51
 905 166 905 166 894.5 157 c 128,-1,52
 884 148 884 148 868.5 145.5 c 128,-1,53
 853 143 853 143 836 144 c 128,-1,54
 819 145 819 145 807 145 c 1,55,56
 801 128 801 128 793.5 102 c 128,-1,57
 786 76 786 76 776 51 c 128,-1,58
 766 26 766 26 753 8.5 c 128,-1,59
 740 -9 740 -9 722 -9 c 0,16,17
327 1302 m 0,60,61
 310 1302 310 1302 297.5 1314 c 128,-1,62
 285 1326 285 1326 285 1343 c 0,63,64
 285 1357 285 1357 292 1365 c 2,65,-1
 290 1363 l 1,66,67
 305 1392 305 1392 326.5 1418 c 128,-1,68
 348 1444 348 1444 374 1464 c 128,-1,69
 400 1484 400 1484 431 1495.5 c 128,-1,70
 462 1507 462 1507 496 1507 c 0,71,72
 568 1507 568 1507 608.5 1462.5 c 128,-1,73
 649 1418 649 1418 649 1348 c 0,74,75
 649 1314 649 1314 638.5 1280.5 c 128,-1,76
 628 1247 628 1247 609 1218 c 128,-1,77
 590 1189 590 1189 565 1164.5 c 128,-1,78
 540 1140 540 1140 510 1124 c 1,79,80
 555 1073 555 1073 555 1003 c 0,81,82
 555 948 555 948 534 901.5 c 128,-1,83
 513 855 513 855 477 821 c 128,-1,84
 441 787 441 787 393.5 767.5 c 128,-1,85
 346 748 346 748 292 748 c 0,86,87
 261 748 261 748 232 757 c 128,-1,88
 203 766 203 766 181 784 c 128,-1,89
 159 802 159 802 146 828 c 128,-1,90
 133 854 133 854 133 887 c 0,91,92
 133 898 133 898 135.5 911.5 c 128,-1,93
 138 925 138 925 144 937 c 128,-1,94
 150 949 150 949 159.5 957 c 128,-1,95
 169 965 169 965 183 965 c 0,96,97
 202 965 202 965 213 953.5 c 128,-1,98
 224 942 224 942 224 923 c 0,99,100
 224 917 224 917 221.5 911 c 128,-1,101
 219 905 219 905 217 900 c 1,102,-1
 217 897 l 1,103,-1
 216 887 l 1,104,105
 216 872 216 872 223 861 c 128,-1,106
 230 850 230 850 241 843.5 c 128,-1,107
 252 837 252 837 265.5 833.5 c 128,-1,108
 279 830 279 830 292 830 c 0,109,110
 328 830 328 830 360.5 843 c 128,-1,111
 393 856 393 856 418 878.5 c 128,-1,112
 443 901 443 901 458 932 c 128,-1,113
 473 963 473 963 473 1000 c 0,114,115
 473 1039 473 1039 457.5 1057.5 c 128,-1,116
 442 1076 442 1076 423 1086 c 128,-1,117
 404 1096 404 1096 388.5 1105 c 128,-1,118
 373 1114 373 1114 373 1135 c 0,119,120
 373 1151 373 1151 383.5 1161 c 128,-1,121
 394 1171 394 1171 408 1175 c 0,122,123
 440 1183 440 1183 469 1198.5 c 128,-1,124
 498 1214 498 1214 519.5 1236 c 128,-1,125
 541 1258 541 1258 554 1286.5 c 128,-1,126
 567 1315 567 1315 567 1351 c 0,127,128
 567 1383 567 1383 549 1404 c 128,-1,129
 531 1425 531 1425 497 1425 c 0,130,131
 458 1425 458 1425 433 1406 c 128,-1,132
 408 1387 408 1387 390.5 1363.5 c 128,-1,133
 373 1340 373 1340 359 1321 c 128,-1,134
 345 1302 345 1302 327 1302 c 0,60,61
748 227 m 1,135,136
 771 296 771 296 796 364.5 c 128,-1,137
 821 433 821 433 846 502 c 1,138,-1
 618 227 l 1,139,-1
 748 227 l 1,135,136
EndSplineSet
EndChar
